<!--
  * @license MIT
  * Copyright (c) 2017 Bernhard Grünewaldt - codeclou.io
  * https://github.com/cloukit/legal
-->
<svg width="7172" height="1038" viewBox="0 0 7172 1038" xmlns="http://www.w3.org/2000/svg">
  <defs>
    <linearGradient x1="56.485%" y1="35.918%" x2="14.474%" y2="94.321%" id="a">
      <stop stop-color="#710ECC" offset="0%"/>
      <stop stop-color="#9650D7" offset="100%"/>
    </linearGradient>
  </defs>
  <g fill="none" fill-rule="evenodd">
    <g transform="translate(6104 131)">
      <rect fill="url(#a)" width="775" height="775" rx="100"/>
      <g transform="translate(132 364)" fill="#FFF">
        <ellipse cx="306" cy="38.5" rx="20" ry="20.5"/>
        <path d="M120.268 124.21c4.25-27.09 9.055-66.62 12.38-85.017 10.69-55.168 78.275-21.68 54.583 34.434-4.802 9.33-9.813 20.438-21.658 31.077-7.43 13.45-22.905 47.1-25.716 65.653-2.81 18.555-2.256 43.558-7.207 95.132-2.754 15.984-26.62 10.565-26.62-2.975 0-31.195 6.28-63.362 9.74-97.757-13.152 15.616-81.82 92.126-93.938 103.623-7.38 7.004-28.568-7.59-19.7-18.17 73.362-76.89 106.3-111.63 118.136-126zm27.27-34.42c8.704-13.734 21.938-22.547 21.938-32.633 0-36.33-13.54-31.344-18.294-2.696-4.578 27.602-2.825 32.888-3.645 35.33z"/>
        <path d="M150.368 115.718c65.264-38.035 80.423 28.766 73.902 44.684-6.52 15.918-11.13 29.23-34.59 32.403 21.84 28.757 19.315 53.384 43.12 53.384 27.664 0 32.912-38.846 38.198-58.283.417-1.534 7.844-21.03 7.844-45.89-1.904-21.526 30.294-16.765 30.294 3.523-3.9 28.323-8.533 42.876-7.34 61.804 2.318 36.743 17.8 36.743 28.14 40.718 18.253 7.018 56.864-48.907 69.466-127.57H386.8c-17.59-9.123-11.51-26.045 0-22.45.39-.178 10.7 2.683 16.4 0 3.267-13.563 5.685-31.804 9.21-69.493-7.564-53.784 33.532-19.055 23.234 2.86-3.38 31.835-4.5 54.868-4.5 66.632 12.186-.764 23.925-5.125 32.21-5.125 23.015 9.804 12.44 27.574 0 25.884-20.95 0-32.21 1.69-34.067 3.868 1.13 121.42 14.063 125.256 22.51 129.898 5.057 2.78 31.187-25.572 37.428-22.933 2.567 1.26 8.515 5.647 6.938 9.095-15.414 29.324-35.123 39.22-46.84 39.22-20.036 0-40.438-36.858-40.438-90.04-28.603 78.5-57.275 85.334-78.95 85.334-20.8 0-37.91-16.554-48.366-29.155-15.31 22.667-29.302 32.575-44.406 32.575-47.484 0-63.193-63.485-77.185-76.05-37.085-25.09-4.485-48.968 13.99-25.09 18.625-6.397 24.004-15.368 25.105-22.43 6.56-42.056-54.204-28.058-72.075 32.786 0-22.1 17.01-73.65 23.368-70.16z"/>
      </g>
      <g fill-rule="nonzero" fill="#FFF">
        <path d="M311.5 158.22h1.334c3.72 0 5.83 2.55 6.327 7.65v88.506h61.285c5.11.5 7.662 2.61 7.662 6.322v1.33c0 3.714-2.556 5.824-7.662 6.324H313.17c-5.33-.333-7.994-2.995-7.994-7.983v-94.496c.496-5.103 2.606-7.655 6.323-7.655zM452.5 157.22h1.334c20.486 0 36.804 9.872 48.96 29.614 3.995 8.87 5.993 17.3 5.993 25.286v1.332c0 20.463-9.882 36.766-29.64 48.908-8.882 3.993-17.32 5.99-25.314 5.99H452.5c-20.485 0-36.804-9.87-48.958-29.612-3.996-8.87-5.994-17.303-5.994-25.287v-1.33c0-20.462 9.88-36.767 29.64-48.91 8.882-3.992 17.32-5.99 25.313-5.99zm-41.632 55.897c0 13.476 6.105 24.9 18.318 34.27 7.494 5.102 15.6 7.655 24.313 7.655 13.49 0 24.922-6.103 34.303-18.3 5.108-7.49 7.66-15.583 7.66-24.288 0-13.474-6.107-24.898-18.318-34.272-7.496-5.102-15.598-7.652-24.312-7.652-13.488 0-24.926 6.1-34.303 18.298-5.11 7.49-7.662 15.586-7.662 24.29zM536.047 158.886h1.335c3.718 0 5.83 2.55 6.33 7.652v61.553c0 4.602 2.55 9.817 7.658 15.64 7.99 7.54 17.54 11.313 28.644 11.313 13.155 0 23.813-5.437 31.974-16.305 2.663-5.21 3.996-8.87 3.996-10.98l-.332-3.99v-57.23c.5-5.1 2.61-7.65 6.327-7.65h1.333c3.718 0 5.83 2.55 6.328 7.65v54.234c0 22.18-10.658 37.154-31.973 44.917-6.44 1.773-12.213 2.66-17.32 2.66h-1.334c-19.152 0-34.03-8.21-44.63-24.62-3.11-6.602-4.665-13.7-4.665-21.295V166.54c.5-5.103 2.61-7.654 6.33-7.654zM220.598 276.937c-2.396 0-4.792-.91-6.622-2.735-3.665-3.65-3.68-9.578-.03-13.248l1.786-1.795c.1-.103.2-.2.304-.295l37.12-37.084c1.784-1.78 3.9-4.542 3.886-7.59-.013-3.042-2.12-5.782-3.886-7.544l-38.71-38.68c-5.31-5.303-9.846-5.303-15.166.003l-39.247 39.22c-3.663 3.663-9.603 3.663-13.27.004-3.666-3.66-3.668-9.594-.003-13.256l39.254-39.225c12.676-12.642 29.04-12.642 41.7 0l38.71 38.677c6.107 6.096 9.353 13.26 9.385 20.717.032 7.527-3.21 14.765-9.386 20.928l-39.192 39.154c-1.828 1.83-4.234 2.747-6.634 2.747z"/>
      </g>
    </g>
  </g>
</svg>
