<!--
  * @license MIT
  * Copyright (c) 2017 Bernhard Grünewaldt - codeclou.io
  * https://github.com/cloukit/legal
-->
<svg width="7000" height="1000" viewBox="0 0 7000 1000" xmlns="http://www.w3.org/2000/svg">
  <title>
    cloukit-banner-github
  </title>
  <defs>
    <linearGradient x1="25.145%" y1="-11.327%" x2="68.878%" y2="109.749%" id="a">
      <stop stop-color="#3023AE" offset="0%"/>
      <stop stop-color="#B943CC" offset="100%"/>
    </linearGradient>
  </defs>
  <g fill="none" fill-rule="evenodd">
    <path fill="url(#a)" d="M6462.69 113l291.646 283.19-102.522 382.62-394.168 99.43L5966 595.047l102.523-382.62"/>
    <path d="M6250.53 436.68c63.648-26.503 78.517 42.36 71.424 59.674-7.617 18.592-13 34.14-40.402 37.848 25.51 33.588 22.56 62.353 50.365 62.353 32.312 0 38.442-45.37 44.616-68.075.488-1.792 9.163-24.562 9.163-53.6-2.225-25.143 35.384-19.583 35.384 4.115-4.556 33.082-9.967 50.08-8.572 72.19 2.706 42.915 20.788 42.915 32.865 47.558 21.322 8.197 66.42-57.125 81.14-149.006h-14.72c-20.544-10.655-13.443-30.42 0-26.22.456-.21 12.5 3.133 19.156 0 3.815-15.844 6.64-37.15 10.755-81.17-8.833-62.82 39.167-22.256 27.14 3.34-3.95 37.185-5.257 64.088-5.257 77.83 14.234-.893 27.946-5.988 37.622-5.988 26.882 11.45 14.53 32.207 0 30.233-24.47 0-37.622 1.974-39.79 4.516 1.32 141.82 16.425 146.302 26.29 151.724 5.908 3.247 36.43-29.868 43.72-26.786 2.997 1.47 9.944 6.596 8.102 10.623-18.004 34.252-41.025 45.81-54.71 45.81-23.403 0-47.233-43.05-47.233-105.17-33.41 91.694-66.9 99.675-92.217 99.675-24.293 0-44.28-19.336-56.492-34.055-17.88 26.476-34.223 38.05-51.866 38.05-55.462 0-73.81-74.154-90.155-88.83-43.315-29.306-5.237-57.196 16.343-29.306 21.753-7.47 28.036-17.95 29.322-26.197 5.882-37.706-34.568-36.837-63.128-2.255-2.87 8.29-5.084 16.104-6.04 22.42-3.284 21.672-2.637 50.877-8.42 111.117-3.215 18.67-31.09 12.34-31.09-3.475 0-36.436 7.334-74.008 11.376-114.183-15.362 18.24-95.567 107.605-109.722 121.035-8.62 8.18-33.368-8.867-23.008-21.225 85.687-89.81 124.16-130.387 137.984-147.17 4.965-31.643 10.577-77.815 14.462-99.303 12.485-64.44 91.426-25.326 63.753 40.22-5.61 10.897-11.462 23.87-25.297 36.297-.87 1.572-1.83 3.38-2.863 5.383zm166.887-58.766c-12.902 0-23.36-10.72-23.36-23.945s10.458-23.945 23.36-23.945c12.9 0 23.36 10.72 23.36 23.944 0 13.223-10.46 23.944-23.36 23.944zm-185.09 35.964c10.168-16.043 25.626-26.337 25.626-38.117 0-42.434-15.817-36.61-21.368-3.148-5.348 32.24-3.3 38.413-4.258 41.266z" fill="#FFF"/>
    <path d="M6072.513 569.313c2.523-2.523 4.236-6.037 4.506-9.912l-5.543-1.306c-.225 2.298-.946 4.73-2.658 6.443-3.47 3.47-8.832 2.974-13.248-1.442-4.46-4.46-4.91-9.867-1.35-13.426 1.395-1.398 3.108-1.94 5.315-2.074l-.856-5.902c-3.018.225-6.126 1.17-8.965 4.01-5.902 5.902-6.848 15.32.54 22.708 7.345 7.344 16.22 6.94 22.258.9zm17.177-17.176c1.216-1.217 1.937-2.298 2.297-3.2l-4.55-3.198c-.316.495-.496.675-.72.9-.542.54-1.578.676-2.84-.586l-26.402-26.402-5.182 5.18 26.133 26.133c3.83 3.83 7.57 4.866 11.264 1.172zm16.77-16.77c-5.496 5.496-14.733 6.262-22.077-1.082-7.39-7.39-6.623-16.626-1.126-22.123 5.542-5.542 14.778-6.308 22.167 1.082 7.344 7.344 6.578 16.58 1.036 22.122zm-4.235-4.236c3.244-3.243 2.298-8.154-2.117-12.57-4.46-4.46-9.372-5.406-12.616-2.162-3.244 3.244-2.253 8.11 2.208 12.57 4.415 4.416 9.28 5.407 12.525 2.163zm27.044-18.572c3.017-3.02 3.693-6.668 3.333-10.904l.135-.135 3.65 2.838 4.235-4.236L6118.5 478l-5.18 5.18 15.138 15.14c.495 3.83.09 6.038-1.848 7.975-2.388 2.388-4.776 2.073-8.425-1.577l-13.2-13.2-5.183 5.18 13.877 13.877c5.586 5.587 10.858 6.714 15.59 1.983z" fill="#FFF"/>
  </g>
</svg>
