<!--
  * @license MIT
  * Copyright (c) 2017 Bernhard Grünewaldt - codeclou.io
  * https://github.com/cloukit/legal
-->
<svg width="705" height="449" viewBox="0 0 705 449" xmlns="http://www.w3.org/2000/svg">
  <title>
    cloukit-component-theming
  </title>
  <g fill="none" fill-rule="evenodd">
    <rect stroke="#777" x="15.5" y="16.5" width="676" height="421" rx="8"/>
    <g fill-rule="nonzero" fill="#777">
      <g transform="translate(652.343 410.956)">
        <ellipse cx="16.203" cy="2.098" rx="1.059" ry="1.089"/>
        <path d="M6.39 6.617c.226-1.44.48-3.54.656-4.517.567-2.93 4.145-1.152 2.89 1.83-.254.495-.52 1.085-1.146 1.65-.394.715-1.213 2.502-1.362 3.488-.15.986-.12 2.314-.38 5.054-.147.85-1.41.56-1.41-.158 0-1.657.332-3.366.515-5.193-.697.83-4.333 4.895-4.974 5.506-.392.372-1.514-.404-1.044-.966C4.02 9.225 5.764 7.38 6.39 6.617zm1.445-1.83c.46-.73 1.162-1.197 1.162-1.733 0-1.93-.717-1.665-.97-.143-.24 1.467-.15 1.748-.192 1.878z"/>
        <path d="M7.998 6.2c3.456-2.022 4.26 1.527 3.914 2.373-.346.845-.59 1.552-1.832 1.72 1.156 1.53 1.023 2.837 2.283 2.837 1.465 0 1.743-2.064 2.023-3.096.022-.082.415-1.118.415-2.438-.1-1.144 1.605-.89 1.605.187-.206 1.505-.452 2.278-.388 3.283.122 1.952.942 1.952 1.49 2.164.966.372 3.01-2.6 3.678-6.778h-.667c-.932-.484-.61-1.383 0-1.192.02-.01.566.142.868 0 .173-.72.3-1.69.488-3.692-.4-2.857 1.775-1.012 1.23.152-.18 1.69-.238 2.915-.238 3.54.645-.04 1.267-.273 1.705-.273 1.22.52.66 1.465 0 1.376-1.108 0-1.704.09-1.802.205.06 6.45.744 6.654 1.19 6.9.27.15 1.653-1.358 1.983-1.217.137.067.452.3.37.484-.817 1.557-1.86 2.083-2.482 2.083-1.06 0-2.14-1.958-2.14-4.783-1.515 4.17-3.034 4.533-4.18 4.533-1.103 0-2.01-.88-2.562-1.55-.81 1.206-1.552 1.732-2.352 1.732-2.514 0-3.346-3.374-4.087-4.04-1.964-1.334-.237-2.603.74-1.334.987-.34 1.272-.816 1.33-1.192.348-2.234-2.87-1.49-3.816 1.742C6.76 8.752 7.663 6.013 8 6.2z"/>
      </g>
      <g>
        <path d="M608.447 411.713h.17c.476 0 .746.327.81.982v11.363h7.84c.652.064.98.335.98.812v.17c0 .477-.328.748-.98.812h-8.607c-.68-.042-1.022-.384-1.022-1.025v-12.13c.063-.657.333-.984.81-.984zm18.036-.128h.17c2.62 0 4.708 1.267 6.263 3.802.51 1.138.766 2.22.766 3.246v.17c0 2.628-1.264 4.72-3.79 6.28-1.137.513-2.217.77-3.24.77h-.17c-2.62 0-4.707-1.268-6.262-3.803-.51-1.138-.767-2.22-.767-3.246v-.17c0-2.628 1.264-4.72 3.792-6.28 1.136-.513 2.215-.77 3.238-.77zm-5.326 7.176c0 1.73.78 3.198 2.343 4.4.96.656 1.996.983 3.11.983 1.726 0 3.188-.783 4.388-2.35.654-.96.98-2 .98-3.117 0-1.73-.78-3.197-2.343-4.4-.96-.655-1.995-.983-3.11-.983-1.725 0-3.188.784-4.388 2.35-.653.96-.98 2-.98 3.118zm16.012-6.962h.17c.475 0 .746.328.81.983v7.903c0 .59.326 1.26.98 2.008 1.02.97 2.243 1.454 3.663 1.454 1.683 0 3.046-.698 4.09-2.094.34-.67.51-1.14.51-1.41l-.04-.512v-7.347c.063-.654.333-.98.808-.98h.172c.475 0 .745.326.81.98v6.964c0 2.847-1.364 4.77-4.09 5.766-.825.228-1.563.342-2.216.342h-.17c-2.45 0-4.354-1.054-5.71-3.16-.397-.848-.596-1.76-.596-2.735v-7.176c.064-.654.333-.982.81-.982zm-40.35 15.157c-.307 0-.614-.117-.848-.352-.468-.468-.47-1.23-.004-1.7l.23-.23.038-.04 4.748-4.76c.228-.228.5-.583.497-.974 0-.392-.27-.744-.496-.97l-4.952-4.966c-.68-.68-1.26-.68-1.94 0l-5.02 5.036c-.468.47-1.228.47-1.697 0-.47-.47-.47-1.23 0-1.7l5.02-5.037c1.622-1.623 3.715-1.623 5.335 0l4.95 4.965c.782.783 1.197 1.703 1.202 2.66.004.966-.41 1.896-1.2 2.687l-5.014 5.027c-.234.235-.542.353-.85.353z"/>
      </g>
    </g>
    <path d="M141.5 160.5h151M292.5 207.5l-76-47M293.5 249.5l-77-89" stroke="#710ECC" stroke-linecap="square"/>
    <g>
      <path d="M58.04 111.44c0-1.053.147-2 .44-2.84.293-.84.7-1.553 1.22-2.14.52-.587 1.137-1.037 1.85-1.35.713-.313 1.49-.47 2.33-.47.8 0 1.5.163 2.1.49.6.327 1.093.703 1.48 1.13l-.94 1.06c-.347-.373-.73-.67-1.15-.89-.42-.22-.91-.33-1.47-.33-.627 0-1.193.123-1.7.37-.507.247-.94.6-1.3 1.06-.36.46-.64 1.017-.84 1.67-.2.653-.3 1.387-.3 2.2 0 .827.097 1.57.29 2.23.193.66.463 1.223.81 1.69.347.467.77.827 1.27 1.08.5.253 1.063.38 1.69.38.64 0 1.197-.127 1.67-.38.473-.253.923-.613 1.35-1.08l.94 1.02c-.52.6-1.107 1.067-1.76 1.4-.653.333-1.4.5-2.24.5-.827 0-1.59-.153-2.29-.46-.7-.307-1.307-.75-1.82-1.33-.513-.58-.913-1.293-1.2-2.14-.287-.847-.43-1.803-.43-2.87zm11.633 1.72c0-.813.124-1.537.37-2.17.247-.633.577-1.17.99-1.61.414-.44.89-.773 1.43-1 .54-.227 1.11-.34 1.71-.34.6 0 1.17.113 1.71.34.54.227 1.017.56 1.43 1 .414.44.744.977.99 1.61.247.633.37 1.357.37 2.17 0 .8-.123 1.517-.37 2.15-.246.633-.576 1.167-.99 1.6-.413.433-.89.763-1.43.99-.54.227-1.11.34-1.71.34-.6 0-1.17-.113-1.71-.34-.54-.227-1.016-.557-1.43-.99-.413-.433-.743-.967-.99-1.6-.246-.633-.37-1.35-.37-2.15zm1.7 0c0 .56.067 1.067.2 1.52.134.453.324.843.57 1.17.247.327.544.58.89.76.347.18.727.27 1.14.27.414 0 .794-.09 1.14-.27.347-.18.644-.433.89-.76.247-.327.437-.717.57-1.17.134-.453.2-.96.2-1.52s-.066-1.07-.2-1.53c-.133-.46-.323-.857-.57-1.19-.246-.333-.543-.59-.89-.77-.346-.18-.726-.27-1.14-.27-.413 0-.793.09-1.14.27-.346.18-.643.437-.89.77-.246.333-.436.73-.57 1.19-.133.46-.2.97-.2 1.53zm10.194-4.88h1.36l.14 1.4h.06c.426-.467.89-.857 1.39-1.17.5-.313 1.043-.47 1.63-.47.746 0 1.33.163 1.75.49.42.327.73.783.93 1.37.506-.56 1.016-1.01 1.53-1.35.513-.34 1.07-.51 1.67-.51 1 0 1.743.32 2.23.96.486.64.73 1.587.73 2.84V118h-1.64v-5.94c0-.92-.147-1.583-.44-1.99-.294-.407-.747-.61-1.36-.61-.734 0-1.547.5-2.44 1.5V118h-1.64v-5.94c0-.92-.147-1.583-.44-1.99-.294-.407-.754-.61-1.38-.61-.734 0-1.547.5-2.44 1.5V118h-1.64v-9.72zm18.553 10.54v3.28h-1.64v-13.82h1.36l.14 1.12h.06c.44-.373.923-.693 1.45-.96.527-.267 1.077-.4 1.65-.4.627 0 1.18.117 1.66.35.48.233.88.567 1.2 1 .32.433.563.953.73 1.56.167.607.25 1.29.25 2.05 0 .827-.113 1.563-.34 2.21-.227.647-.533 1.197-.92 1.65-.387.453-.833.797-1.34 1.03-.507.233-1.04.35-1.6.35-.453 0-.903-.1-1.35-.3-.447-.2-.897-.473-1.35-.82l.04 1.7zm0-2.98c.44.373.867.637 1.28.79.413.153.78.23 1.1.23.4 0 .77-.09 1.11-.27.34-.18.633-.433.88-.76s.44-.73.58-1.21c.14-.48.21-1.02.21-1.62 0-.533-.047-1.02-.14-1.46-.093-.44-.243-.817-.45-1.13-.207-.313-.473-.557-.8-.73-.327-.173-.717-.26-1.17-.26-.413 0-.83.113-1.25.34-.42.227-.87.553-1.35.98v5.1zm9.073-2.68c0-.813.124-1.537.37-2.17.247-.633.577-1.17.99-1.61.414-.44.89-.773 1.43-1 .54-.227 1.11-.34 1.71-.34.6 0 1.17.113 1.71.34.54.227 1.017.56 1.43 1 .414.44.744.977.99 1.61.247.633.37 1.357.37 2.17 0 .8-.123 1.517-.37 2.15-.246.633-.576 1.167-.99 1.6-.413.433-.89.763-1.43.99-.54.227-1.11.34-1.71.34-.6 0-1.17-.113-1.71-.34-.54-.227-1.016-.557-1.43-.99-.413-.433-.743-.967-.99-1.6-.246-.633-.37-1.35-.37-2.15zm1.7 0c0 .56.067 1.067.2 1.52.134.453.324.843.57 1.17.247.327.544.58.89.76.347.18.727.27 1.14.27.414 0 .794-.09 1.14-.27.347-.18.644-.433.89-.76.247-.327.437-.717.57-1.17.134-.453.2-.96.2-1.52s-.066-1.07-.2-1.53c-.133-.46-.323-.857-.57-1.19-.246-.333-.543-.59-.89-.77-.346-.18-.726-.27-1.14-.27-.413 0-.793.09-1.14.27-.346.18-.643.437-.89.77-.246.333-.436.73-.57 1.19-.133.46-.2.97-.2 1.53zm10.194-4.88h1.36l.14 1.4h.06c.466-.467.956-.857 1.47-1.17.513-.313 1.11-.47 1.79-.47 1.026 0 1.776.32 2.25.96.473.64.71 1.587.71 2.84V118h-1.64v-5.94c0-.92-.147-1.583-.44-1.99-.294-.407-.76-.61-1.4-.61-.507 0-.954.127-1.34.38-.387.253-.827.627-1.32 1.12V118h-1.64v-9.72zm10.553 4.88c0-.8.123-1.517.37-2.15s.573-1.17.98-1.61c.407-.44.87-.777 1.39-1.01.52-.233 1.06-.35 1.62-.35.613 0 1.163.107 1.65.32.487.213.893.52 1.22.92.327.4.577.88.75 1.44.173.56.26 1.187.26 1.88 0 .36-.02.66-.06.9h-6.56c.067 1.053.39 1.887.97 2.5s1.337.92 2.27.92c.467 0 .897-.07 1.29-.21.393-.14.77-.323 1.13-.55l.58 1.08c-.427.267-.9.5-1.42.7-.52.2-1.113.3-1.78.3-.653 0-1.263-.117-1.83-.35-.567-.233-1.06-.567-1.48-1-.42-.433-.75-.963-.99-1.59-.24-.627-.36-1.34-.36-2.14zm6.8-.74c0-1-.21-1.763-.63-2.29-.42-.527-1.01-.79-1.77-.79-.347 0-.677.07-.99.21-.313.14-.597.34-.85.6-.253.26-.463.58-.63.96-.167.38-.277.817-.33 1.31h5.2zm4.173-4.14h1.36l.14 1.4h.06c.467-.467.957-.857 1.47-1.17.514-.313 1.11-.47 1.79-.47 1.027 0 1.777.32 2.25.96.474.64.71 1.587.71 2.84V118h-1.64v-5.94c0-.92-.146-1.583-.44-1.99-.293-.407-.76-.61-1.4-.61-.506 0-.953.127-1.34.38-.386.253-.826.627-1.32 1.12V118h-1.64v-9.72zm11.554 1.34h-1.44v-1.24l1.52-.1.2-2.72h1.38v2.72h2.62v1.34h-2.62v5.4c0 .6.11 1.063.33 1.39.22.327.61.49 1.17.49.173 0 .36-.027.56-.08.2-.053.38-.113.54-.18l.32 1.24c-.267.093-.557.177-.87.25-.314.073-.624.11-.93.11-.52 0-.957-.08-1.31-.24-.354-.16-.64-.38-.86-.66-.22-.28-.377-.62-.47-1.02-.094-.4-.14-.84-.14-1.32v-5.38zm6.913-4.74h1.66v7.74c0 .787.08 1.447.24 1.98.16.533.377.96.65 1.28.273.32.597.55.97.69.373.14.773.21 1.2.21.44 0 .847-.07 1.22-.21.373-.14.7-.37.98-.69.28-.32.5-.747.66-1.28.16-.533.24-1.193.24-1.98v-7.74h1.6v7.7c0 1.053-.12 1.94-.36 2.66-.24.72-.57 1.303-.99 1.75-.42.447-.917.767-1.49.96-.573.193-1.193.29-1.86.29s-1.29-.097-1.87-.29c-.58-.193-1.08-.513-1.5-.96-.42-.447-.75-1.03-.99-1.75s-.36-1.607-.36-2.66v-7.7zm13.973 1.4c-.32 0-.59-.1-.81-.3-.22-.2-.33-.453-.33-.76 0-.32.11-.577.33-.77.22-.193.49-.29.81-.29.32 0 .59.097.81.29.22.193.33.45.33.77 0 .307-.11.56-.33.76-.22.2-.49.3-.81.3zm-.84 2h1.64V118h-1.64v-9.72zm5.454 6.86c.466.493 1.016.89 1.65 1.19.633.3 1.29.45 1.97.45.866 0 1.54-.197 2.02-.59.48-.393.72-.91.72-1.55 0-.333-.057-.617-.17-.85-.114-.233-.267-.433-.46-.6-.194-.167-.424-.317-.69-.45-.267-.133-.554-.273-.86-.42l-1.88-.82c-.307-.133-.62-.293-.94-.48-.32-.187-.607-.413-.86-.68-.254-.267-.46-.583-.62-.95-.16-.367-.24-.79-.24-1.27 0-.493.103-.953.31-1.38.206-.427.493-.797.86-1.11.366-.313.8-.557 1.3-.73.5-.173 1.05-.26 1.65-.26.786 0 1.513.15 2.18.45.666.3 1.233.69 1.7 1.17l-.9 1.08c-.4-.387-.844-.69-1.33-.91-.487-.22-1.037-.33-1.65-.33-.734 0-1.324.17-1.77.51-.447.34-.67.81-.67 1.41 0 .32.063.59.19.81.126.22.296.413.51.58.213.167.446.313.7.44.253.127.513.243.78.35l1.86.8c.373.16.726.343 1.06.55.333.207.62.447.86.72.24.273.43.593.57.96.14.367.21.79.21 1.27 0 .52-.104 1.007-.31 1.46-.207.453-.504.85-.89 1.19-.387.34-.854.607-1.4.8-.547.193-1.167.29-1.86.29-.92 0-1.774-.173-2.56-.52-.787-.347-1.467-.82-2.04-1.42l1-1.16zm11.093-5.52h-1.44v-1.24l1.52-.1.2-2.72h1.38v2.72h2.62v1.34h-2.62v5.4c0 .6.11 1.063.33 1.39.22.327.61.49 1.17.49.173 0 .36-.027.56-.08.2-.053.38-.113.54-.18l.32 1.24c-.267.093-.557.177-.87.25-.313.073-.623.11-.93.11-.52 0-.957-.08-1.31-.24-.353-.16-.64-.38-.86-.66-.22-.28-.377-.62-.47-1.02-.093-.4-.14-.84-.14-1.32v-5.38zm5.973 5.86c0-1.067.477-1.883 1.43-2.45.954-.567 2.47-.963 4.55-1.19 0-.307-.03-.607-.09-.9-.06-.293-.166-.553-.32-.78-.153-.227-.356-.41-.61-.55-.253-.14-.58-.21-.98-.21-.573 0-1.103.107-1.59.32-.486.213-.923.453-1.31.72l-.66-1.14c.454-.293 1.007-.577 1.66-.85.654-.273 1.374-.41 2.16-.41 1.187 0 2.047.363 2.58 1.09.534.727.8 1.697.8 2.91V118h-1.36l-.14-1.16h-.04c-.466.387-.97.717-1.51.99s-1.11.41-1.71.41c-.826 0-1.51-.24-2.05-.72-.54-.48-.81-1.16-.81-2.04zm1.62-.12c0 .56.164.96.49 1.2.327.24.73.36 1.21.36.467 0 .91-.11 1.33-.33.42-.22.864-.543 1.33-.97v-2.7c-.813.107-1.5.233-2.06.38s-1.01.32-1.35.52c-.34.2-.583.43-.73.69-.146.26-.22.543-.22.85zm9.714-5.74h-1.44v-1.24l1.52-.1.2-2.72h1.38v2.72h2.62v1.34h-2.62v5.4c0 .6.11 1.063.33 1.39.22.327.61.49 1.17.49.173 0 .36-.027.56-.08.2-.053.38-.113.54-.18l.32 1.24c-.267.093-.557.177-.87.25-.314.073-.624.11-.93.11-.52 0-.957-.08-1.31-.24-.354-.16-.64-.38-.86-.66-.22-.28-.377-.62-.47-1.02-.094-.4-.14-.84-.14-1.32v-5.38zm5.893 3.54c0-.8.123-1.517.37-2.15s.573-1.17.98-1.61c.407-.44.87-.777 1.39-1.01.52-.233 1.06-.35 1.62-.35.613 0 1.163.107 1.65.32.487.213.893.52 1.22.92.327.4.577.88.75 1.44.173.56.26 1.187.26 1.88 0 .36-.02.66-.06.9h-6.56c.067 1.053.39 1.887.97 2.5s1.337.92 2.27.92c.467 0 .897-.07 1.29-.21.393-.14.77-.323 1.13-.55l.58 1.08c-.427.267-.9.5-1.42.7-.52.2-1.113.3-1.78.3-.653 0-1.263-.117-1.83-.35-.567-.233-1.06-.567-1.48-1-.42-.433-.75-.963-.99-1.59-.24-.627-.36-1.34-.36-2.14zm6.8-.74c0-1-.21-1.763-.63-2.29-.42-.527-1.01-.79-1.77-.79-.347 0-.677.07-.99.21-.313.14-.597.34-.85.6-.253.26-.463.58-.63.96-.167.38-.277.817-.33 1.31h5.2z" fill="#710ECC"/>
      <path d="M58.64 156.28H60l.14 1.4h.06c.467-.467.957-.857 1.47-1.17.513-.313 1.11-.47 1.79-.47 1.027 0 1.777.32 2.25.96.473.64.71 1.587.71 2.84V166h-1.64v-5.94c0-.92-.147-1.583-.44-1.99-.293-.407-.76-.61-1.4-.61-.507 0-.953.127-1.34.38-.387.253-.827.627-1.32 1.12V166h-1.64v-9.72zm10.553 4.88c0-.813.124-1.537.37-2.17.247-.633.577-1.17.99-1.61.414-.44.89-.773 1.43-1 .54-.227 1.11-.34 1.71-.34.6 0 1.17.113 1.71.34.54.227 1.017.56 1.43 1 .414.44.744.977.99 1.61.247.633.37 1.357.37 2.17 0 .8-.123 1.517-.37 2.15-.246.633-.576 1.167-.99 1.6-.413.433-.89.763-1.43.99-.54.227-1.11.34-1.71.34-.6 0-1.17-.113-1.71-.34-.54-.227-1.016-.557-1.43-.99-.413-.433-.743-.967-.99-1.6-.246-.633-.37-1.35-.37-2.15zm1.7 0c0 .56.067 1.067.2 1.52.134.453.324.843.57 1.17.247.327.544.58.89.76.347.18.727.27 1.14.27.414 0 .794-.09 1.14-.27.347-.18.644-.433.89-.76.247-.327.437-.717.57-1.17.134-.453.2-.96.2-1.52s-.066-1.07-.2-1.53c-.133-.46-.323-.857-.57-1.19-.246-.333-.543-.59-.89-.77-.346-.18-.726-.27-1.14-.27-.413 0-.793.09-1.14.27-.346.18-.643.437-.89.77-.246.333-.436.73-.57 1.19-.133.46-.2.97-.2 1.53zm10.194-4.88h1.36l.14 1.76h.06c.333-.613.736-1.1 1.21-1.46.473-.36.99-.54 1.55-.54.386 0 .733.067 1.04.2l-.32 1.44c-.16-.053-.307-.093-.44-.12-.134-.027-.3-.04-.5-.04-.414 0-.844.167-1.29.5-.447.333-.837.913-1.17 1.74V166h-1.64v-9.72zm7.273 0h1.36l.14 1.4h.06c.427-.467.89-.857 1.39-1.17.5-.313 1.043-.47 1.63-.47.747 0 1.33.163 1.75.49.42.327.73.783.93 1.37.507-.56 1.017-1.01 1.53-1.35.513-.34 1.07-.51 1.67-.51 1 0 1.743.32 2.23.96.487.64.73 1.587.73 2.84V166h-1.64v-5.94c0-.92-.147-1.583-.44-1.99-.293-.407-.747-.61-1.36-.61-.733 0-1.547.5-2.44 1.5V166h-1.64v-5.94c0-.92-.147-1.583-.44-1.99-.293-.407-.753-.61-1.38-.61-.733 0-1.547.5-2.44 1.5V166h-1.64v-9.72zm16.433 7.2c0-1.067.477-1.883 1.43-2.45.954-.567 2.47-.963 4.55-1.19 0-.307-.03-.607-.09-.9-.06-.293-.166-.553-.32-.78-.153-.227-.356-.41-.61-.55-.253-.14-.58-.21-.98-.21-.573 0-1.103.107-1.59.32-.486.213-.923.453-1.31.72l-.66-1.14c.454-.293 1.007-.577 1.66-.85.654-.273 1.374-.41 2.16-.41 1.187 0 2.047.363 2.58 1.09.534.727.8 1.697.8 2.91V166h-1.36l-.14-1.16h-.04c-.466.387-.97.717-1.51.99s-1.11.41-1.71.41c-.826 0-1.51-.24-2.05-.72-.54-.48-.81-1.16-.81-2.04zm1.62-.12c0 .56.164.96.49 1.2.327.24.73.36 1.21.36.467 0 .91-.11 1.33-.33.42-.22.864-.543 1.33-.97v-2.7c-.813.107-1.5.233-2.06.38s-1.01.32-1.35.52c-.34.2-.583.43-.73.69-.146.26-.22.543-.22.85zm9.434-11.6h1.64v12.4c0 .267.046.453.14.56.093.107.2.16.32.16h.15c.046 0 .116-.013.21-.04l.22 1.24c-.107.053-.234.093-.38.12-.147.027-.334.04-.56.04-.627 0-1.074-.187-1.34-.56-.267-.373-.4-.92-.4-1.64v-12.28zM59.48 200.28c-.32 0-.59-.1-.81-.3-.22-.2-.33-.453-.33-.76 0-.32.11-.577.33-.77.22-.193.49-.29.81-.29.32 0 .59.097.81.29.22.193.33.45.33.77 0 .307-.11.56-.33.76-.22.2-.49.3-.81.3zm-.84 2h1.64V212h-1.64v-9.72zm5.253 0h1.36l.14 1.4h.06c.467-.467.957-.857 1.47-1.17.514-.313 1.11-.47 1.79-.47 1.027 0 1.777.32 2.25.96.474.64.71 1.587.71 2.84V212h-1.64v-5.94c0-.92-.146-1.583-.44-1.99-.293-.407-.76-.61-1.4-.61-.506 0-.953.127-1.34.38-.386.253-.826.627-1.32 1.12V212h-1.64v-9.72zm15.654-3.18c-.36-.16-.727-.24-1.1-.24-.907 0-1.36.627-1.36 1.88v1.54h2.06v1.34h-2.06V212h-1.64v-8.38h-1.32v-1.24l1.32-.1v-1.54c0-1 .23-1.787.69-2.36.46-.573 1.176-.86 2.15-.86.306 0 .596.03.87.09.273.06.523.137.75.23l-.36 1.26zm.873 8.06c0-.813.123-1.537.37-2.17s.577-1.17.99-1.61c.413-.44.89-.773 1.43-1 .54-.227 1.11-.34 1.71-.34.6 0 1.17.113 1.71.34.54.227 1.017.56 1.43 1 .413.44.743.977.99 1.61.247.633.37 1.357.37 2.17 0 .8-.123 1.517-.37 2.15s-.577 1.167-.99 1.6c-.413.433-.89.763-1.43.99-.54.227-1.11.34-1.71.34-.6 0-1.17-.113-1.71-.34-.54-.227-1.017-.557-1.43-.99-.413-.433-.743-.967-.99-1.6-.247-.633-.37-1.35-.37-2.15zm1.7 0c0 .56.067 1.067.2 1.52.133.453.323.843.57 1.17.247.327.543.58.89.76.347.18.727.27 1.14.27.413 0 .793-.09 1.14-.27.347-.18.643-.433.89-.76s.437-.717.57-1.17c.133-.453.2-.96.2-1.52s-.067-1.07-.2-1.53c-.133-.46-.323-.857-.57-1.19-.247-.333-.543-.59-.89-.77-.347-.18-.727-.27-1.14-.27-.413 0-.793.09-1.14.27-.347.18-.643.437-.89.77s-.437.73-.57 1.19c-.133.46-.2.97-.2 1.53zM57.92 252.16c0-.8.123-1.517.37-2.15s.573-1.17.98-1.61c.407-.44.87-.777 1.39-1.01.52-.233 1.06-.35 1.62-.35.613 0 1.163.107 1.65.32.487.213.893.52 1.22.92.327.4.577.88.75 1.44.173.56.26 1.187.26 1.88 0 .36-.02.66-.06.9h-6.56c.067 1.053.39 1.887.97 2.5s1.337.92 2.27.92c.467 0 .897-.07 1.29-.21.393-.14.77-.323 1.13-.55l.58 1.08c-.427.267-.9.5-1.42.7-.52.2-1.113.3-1.78.3-.653 0-1.263-.117-1.83-.35-.567-.233-1.06-.567-1.48-1-.42-.433-.75-.963-.99-1.59-.24-.627-.36-1.34-.36-2.14zm6.8-.74c0-1-.21-1.763-.63-2.29-.42-.527-1.01-.79-1.77-.79-.347 0-.677.07-.99.21-.313.14-.597.34-.85.6-.253.26-.463.58-.63.96-.167.38-.277.817-.33 1.31h5.2zm4.173-4.14h1.36l.14 1.76h.06c.334-.613.737-1.1 1.21-1.46.474-.36.99-.54 1.55-.54.387 0 .734.067 1.04.2l-.32 1.44c-.16-.053-.306-.093-.44-.12-.133-.027-.3-.04-.5-.04-.413 0-.843.167-1.29.5-.446.333-.836.913-1.17 1.74V257h-1.64v-9.72zm7.274 0h1.36l.14 1.76h.06c.333-.613.736-1.1 1.21-1.46.473-.36.99-.54 1.55-.54.386 0 .733.067 1.04.2l-.32 1.44c-.16-.053-.307-.093-.44-.12-.134-.027-.3-.04-.5-.04-.414 0-.844.167-1.29.5-.447.333-.837.913-1.17 1.74V257h-1.64v-9.72zm6.353 4.88c0-.813.123-1.537.37-2.17s.577-1.17.99-1.61c.413-.44.89-.773 1.43-1 .54-.227 1.11-.34 1.71-.34.6 0 1.17.113 1.71.34.54.227 1.017.56 1.43 1 .413.44.743.977.99 1.61.247.633.37 1.357.37 2.17 0 .8-.123 1.517-.37 2.15s-.577 1.167-.99 1.6c-.413.433-.89.763-1.43.99-.54.227-1.11.34-1.71.34-.6 0-1.17-.113-1.71-.34-.54-.227-1.017-.557-1.43-.99-.413-.433-.743-.967-.99-1.6-.247-.633-.37-1.35-.37-2.15zm1.7 0c0 .56.067 1.067.2 1.52.133.453.323.843.57 1.17.247.327.543.58.89.76.347.18.727.27 1.14.27.413 0 .793-.09 1.14-.27.347-.18.643-.433.89-.76s.437-.717.57-1.17c.133-.453.2-.96.2-1.52s-.067-1.07-.2-1.53c-.133-.46-.323-.857-.57-1.19-.247-.333-.543-.59-.89-.77-.347-.18-.727-.27-1.14-.27-.413 0-.793.09-1.14.27-.347.18-.643.437-.89.77s-.437.73-.57 1.19c-.133.46-.2.97-.2 1.53zm10.193-4.88h1.36l.14 1.76h.06c.334-.613.737-1.1 1.21-1.46.474-.36.99-.54 1.55-.54.387 0 .734.067 1.04.2l-.32 1.44c-.16-.053-.306-.093-.44-.12-.133-.027-.3-.04-.5-.04-.413 0-.843.167-1.29.5-.446.333-.836.913-1.17 1.74V257h-1.64v-9.72zM58.3 301c0-.387.117-.697.35-.93.233-.233.517-.35.85-.35.32 0 .597.117.83.35.233.233.35.543.35.93 0 .36-.117.657-.35.89-.233.233-.51.35-.83.35-.333 0-.617-.117-.85-.35-.233-.233-.35-.53-.35-.89zm5.313 0c0-.387.117-.697.35-.93.234-.233.517-.35.85-.35.32 0 .597.117.83.35.234.233.35.543.35.93 0 .36-.116.657-.35.89-.233.233-.51.35-.83.35-.333 0-.616-.117-.85-.35-.233-.233-.35-.53-.35-.89zm5.314 0c0-.387.116-.697.35-.93.233-.233.516-.35.85-.35.32 0 .596.117.83.35.233.233.35.543.35.93 0 .36-.117.657-.35.89-.234.233-.51.35-.83.35-.334 0-.617-.117-.85-.35-.234-.233-.35-.53-.35-.89zm5.313 0c0-.387.117-.697.35-.93.233-.233.517-.35.85-.35.32 0 .597.117.83.35.233.233.35.543.35.93 0 .36-.117.657-.35.89-.233.233-.51.35-.83.35-.333 0-.617-.117-.85-.35-.233-.233-.35-.53-.35-.89zM313.64 152.76h1.64v3.88l-.04 1.76c.44-.387.92-.71 1.44-.97.52-.26 1.053-.39 1.6-.39.627 0 1.18.117 1.66.35.48.233.883.567 1.21 1 .327.433.573.953.74 1.56.167.607.25 1.283.25 2.03 0 .827-.113 1.567-.34 2.22-.227.653-.533 1.207-.92 1.66-.387.453-.833.797-1.34 1.03-.507.233-1.04.35-1.6.35-.453 0-.923-.103-1.41-.31-.487-.207-.943-.503-1.37-.89h-.06l-.14.96h-1.32v-14.24zm1.64 12.08c.427.373.85.637 1.27.79.42.153.79.23 1.11.23.4 0 .77-.09 1.11-.27.34-.18.633-.433.88-.76s.44-.73.58-1.21c.14-.48.21-1.02.21-1.62 0-.533-.047-1.02-.14-1.46-.093-.44-.243-.817-.45-1.13-.207-.313-.473-.557-.8-.73-.327-.173-.717-.26-1.17-.26-.787 0-1.653.44-2.6 1.32v5.1zm9.033-.36c0-1.067.477-1.883 1.43-2.45.954-.567 2.47-.963 4.55-1.19 0-.307-.03-.607-.09-.9-.06-.293-.166-.553-.32-.78-.153-.227-.356-.41-.61-.55-.253-.14-.58-.21-.98-.21-.573 0-1.103.107-1.59.32-.486.213-.923.453-1.31.72l-.66-1.14c.454-.293 1.007-.577 1.66-.85.654-.273 1.374-.41 2.16-.41 1.187 0 2.047.363 2.58 1.09.534.727.8 1.697.8 2.91V167h-1.36l-.14-1.16h-.04c-.466.387-.97.717-1.51.99s-1.11.41-1.71.41c-.826 0-1.51-.24-2.05-.72-.54-.48-.81-1.16-.81-2.04zm1.62-.12c0 .56.164.96.49 1.2.327.24.73.36 1.21.36.467 0 .91-.11 1.33-.33.42-.22.864-.543 1.33-.97v-2.7c-.813.107-1.5.233-2.06.38s-1.01.32-1.35.52c-.34.2-.583.43-.73.69-.146.26-.22.543-.22.85zm9.174.44c.426.347.863.627 1.31.84.446.213.963.32 1.55.32.64 0 1.12-.147 1.44-.44.32-.293.48-.653.48-1.08 0-.253-.067-.473-.2-.66-.134-.187-.304-.35-.51-.49-.207-.14-.444-.263-.71-.37l-.8-.32c-.347-.12-.694-.257-1.04-.41-.347-.153-.657-.34-.93-.56-.274-.22-.497-.477-.67-.77-.174-.293-.26-.647-.26-1.06 0-.387.076-.75.23-1.09.153-.34.373-.633.66-.88.286-.247.636-.44 1.05-.58.413-.14.88-.21 1.4-.21.613 0 1.176.107 1.69.32.513.213.956.473 1.33.78l-.78 1.04c-.334-.253-.68-.46-1.04-.62-.36-.16-.754-.24-1.18-.24-.614 0-1.064.14-1.35.42-.287.28-.43.607-.43.98 0 .227.06.423.18.59.12.167.28.313.48.44.2.127.43.24.69.34l.81.31c.346.133.696.273 1.05.42.353.147.67.33.95.55.28.22.51.49.69.81.18.32.27.707.27 1.16 0 .4-.077.773-.23 1.12-.154.347-.38.653-.68.92-.3.267-.674.477-1.12.63-.447.153-.957.23-1.53.23-.694 0-1.354-.127-1.98-.38-.627-.253-1.174-.573-1.64-.96l.82-1.1zm8.253-2.64c0-.8.123-1.517.37-2.15s.573-1.17.98-1.61c.407-.44.87-.777 1.39-1.01.52-.233 1.06-.35 1.62-.35.613 0 1.163.107 1.65.32.487.213.893.52 1.22.92.327.4.577.88.75 1.44.173.56.26 1.187.26 1.88 0 .36-.02.66-.06.9h-6.56c.067 1.053.39 1.887.97 2.5s1.337.92 2.27.92c.467 0 .897-.07 1.29-.21.393-.14.77-.323 1.13-.55l.58 1.08c-.427.267-.9.5-1.42.7-.52.2-1.113.3-1.78.3-.653 0-1.263-.117-1.83-.35-.567-.233-1.06-.567-1.48-1-.42-.433-.75-.963-.99-1.59-.24-.627-.36-1.34-.36-2.14zm6.8-.74c0-1-.21-1.763-.63-2.29-.42-.527-1.01-.79-1.77-.79-.347 0-.677.07-.99.21-.313.14-.597.34-.85.6-.253.26-.463.58-.63.96-.167.38-.277.817-.33 1.31h5.2zM318.02 199.1c-.36-.16-.727-.24-1.1-.24-.907 0-1.36.627-1.36 1.88v1.54h2.06v1.34h-2.06V212h-1.64v-8.38h-1.32v-1.24l1.32-.1v-1.54c0-1 .23-1.787.69-2.36.46-.573 1.177-.86 2.15-.86.307 0 .597.03.87.09s.523.137.75.23l-.36 1.26zm.873 8.06c0-.813.124-1.537.37-2.17.247-.633.577-1.17.99-1.61.414-.44.89-.773 1.43-1 .54-.227 1.11-.34 1.71-.34.6 0 1.17.113 1.71.34.54.227 1.017.56 1.43 1 .414.44.744.977.99 1.61.247.633.37 1.357.37 2.17 0 .8-.123 1.517-.37 2.15-.246.633-.576 1.167-.99 1.6-.413.433-.89.763-1.43.99-.54.227-1.11.34-1.71.34-.6 0-1.17-.113-1.71-.34-.54-.227-1.016-.557-1.43-.99-.413-.433-.743-.967-.99-1.6-.246-.633-.37-1.35-.37-2.15zm1.7 0c0 .56.067 1.067.2 1.52.134.453.324.843.57 1.17.247.327.544.58.89.76.347.18.727.27 1.14.27.414 0 .794-.09 1.14-.27.347-.18.644-.433.89-.76.247-.327.437-.717.57-1.17.134-.453.2-.96.2-1.52s-.066-1.07-.2-1.53c-.133-.46-.323-.857-.57-1.19-.246-.333-.543-.59-.89-.77-.346-.18-.726-.27-1.14-.27-.413 0-.793.09-1.14.27-.346.18-.643.437-.89.77-.246.333-.436.73-.57 1.19-.133.46-.2.97-.2 1.53zm9.474 0c0-.813.126-1.537.38-2.17.253-.633.593-1.17 1.02-1.61.426-.44.923-.773 1.49-1 .566-.227 1.163-.34 1.79-.34.64 0 1.19.117 1.65.35.46.233.856.503 1.19.81l-.82 1.06c-.294-.253-.597-.46-.91-.62-.314-.16-.664-.24-1.05-.24-.44 0-.847.09-1.22.27-.374.18-.694.437-.96.77-.267.333-.477.73-.63 1.19-.154.46-.23.97-.23 1.53s.073 1.067.22 1.52c.146.453.35.843.61 1.17.26.327.576.58.95.76.373.18.78.27 1.22.27.466 0 .89-.097 1.27-.29.38-.193.716-.423 1.01-.69l.74 1.08c-.44.387-.93.693-1.47.92-.54.227-1.104.34-1.69.34-.64 0-1.24-.113-1.8-.34-.56-.227-1.044-.557-1.45-.99-.407-.433-.727-.967-.96-1.6-.234-.633-.35-1.35-.35-2.15zm10.033-4.88h1.66v5.94c0 .92.143 1.583.43 1.99.287.407.75.61 1.39.61.507 0 .953-.13 1.34-.39.387-.26.813-.677 1.28-1.25v-6.9h1.64V212h-1.36l-.14-1.52h-.06c-.453.533-.93.96-1.43 1.28-.5.32-1.09.48-1.77.48-1.04 0-1.797-.32-2.27-.96-.473-.64-.71-1.587-.71-2.84v-6.16zm11.093 7.52c.427.347.864.627 1.31.84.447.213.964.32 1.55.32.64 0 1.12-.147 1.44-.44.32-.293.48-.653.48-1.08 0-.253-.066-.473-.2-.66-.133-.187-.303-.35-.51-.49-.206-.14-.443-.263-.71-.37l-.8-.32c-.346-.12-.693-.257-1.04-.41-.346-.153-.656-.34-.93-.56-.273-.22-.496-.477-.67-.77-.173-.293-.26-.647-.26-1.06 0-.387.077-.75.23-1.09.154-.34.374-.633.66-.88.287-.247.637-.44 1.05-.58.414-.14.88-.21 1.4-.21.614 0 1.177.107 1.69.32.514.213.957.473 1.33.78l-.78 1.04c-.333-.253-.68-.46-1.04-.62-.36-.16-.753-.24-1.18-.24-.613 0-1.063.14-1.35.42-.286.28-.43.607-.43.98 0 .227.06.423.18.59.12.167.28.313.48.44.2.127.43.24.69.34l.81.31c.347.133.697.273 1.05.42.354.147.67.33.95.55.28.22.51.49.69.81.18.32.27.707.27 1.16 0 .4-.076.773-.23 1.12-.153.347-.38.653-.68.92-.3.267-.673.477-1.12.63-.446.153-.956.23-1.53.23-.693 0-1.353-.127-1.98-.38-.626-.253-1.173-.573-1.64-.96l.82-1.1zM313.64 242.76h1.64v3.88l-.06 2c.467-.44.953-.817 1.46-1.13.507-.313 1.1-.47 1.78-.47 1.027 0 1.777.32 2.25.96.473.64.71 1.587.71 2.84V257h-1.64v-5.94c0-.92-.147-1.583-.44-1.99-.293-.407-.76-.61-1.4-.61-.507 0-.953.127-1.34.38-.387.253-.827.627-1.32 1.12V257h-1.64v-14.24zm10.493 9.4c0-.813.124-1.537.37-2.17.247-.633.577-1.17.99-1.61.414-.44.89-.773 1.43-1 .54-.227 1.11-.34 1.71-.34.6 0 1.17.113 1.71.34.54.227 1.017.56 1.43 1 .414.44.744.977.99 1.61.247.633.37 1.357.37 2.17 0 .8-.123 1.517-.37 2.15-.246.633-.576 1.167-.99 1.6-.413.433-.89.763-1.43.99-.54.227-1.11.34-1.71.34-.6 0-1.17-.113-1.71-.34-.54-.227-1.016-.557-1.43-.99-.413-.433-.743-.967-.99-1.6-.246-.633-.37-1.35-.37-2.15zm1.7 0c0 .56.067 1.067.2 1.52.134.453.324.843.57 1.17.247.327.544.58.89.76.347.18.727.27 1.14.27.414 0 .794-.09 1.14-.27.347-.18.644-.433.89-.76.247-.327.437-.717.57-1.17.134-.453.2-.96.2-1.52s-.066-1.07-.2-1.53c-.133-.46-.323-.857-.57-1.19-.246-.333-.543-.59-.89-.77-.346-.18-.726-.27-1.14-.27-.413 0-.793.09-1.14.27-.346.18-.643.437-.89.77-.246.333-.436.73-.57 1.19-.133.46-.2.97-.2 1.53zm8.714-4.88h1.7l1.84 5.52c.146.48.296.96.45 1.44l.45 1.42h.08c.146-.467.293-.94.44-1.42l.44-1.44 1.84-5.52h1.62l-3.44 9.72h-1.92l-3.5-9.72zm10.273 4.88c0-.8.123-1.517.37-2.15s.573-1.17.98-1.61c.407-.44.87-.777 1.39-1.01.52-.233 1.06-.35 1.62-.35.613 0 1.163.107 1.65.32.487.213.893.52 1.22.92.327.4.577.88.75 1.44.173.56.26 1.187.26 1.88 0 .36-.02.66-.06.9h-6.56c.067 1.053.39 1.887.97 2.5s1.337.92 2.27.92c.467 0 .897-.07 1.29-.21.393-.14.77-.323 1.13-.55l.58 1.08c-.427.267-.9.5-1.42.7-.52.2-1.113.3-1.78.3-.653 0-1.263-.117-1.83-.35-.567-.233-1.06-.567-1.48-1-.42-.433-.75-.963-.99-1.59-.24-.627-.36-1.34-.36-2.14zm6.8-.74c0-1-.21-1.763-.63-2.29-.42-.527-1.01-.79-1.77-.79-.347 0-.677.07-.99.21-.313.14-.597.34-.85.6-.253.26-.463.58-.63.96-.167.38-.277.817-.33 1.31h5.2zm4.173-4.14h1.36l.14 1.76h.06c.334-.613.737-1.1 1.21-1.46.474-.36.99-.54 1.55-.54.387 0 .734.067 1.04.2l-.32 1.44c-.16-.053-.306-.093-.44-.12-.133-.027-.3-.04-.5-.04-.413 0-.843.167-1.29.5-.446.333-.836.913-1.17 1.74V257h-1.64v-9.72z" fill="#777"/>
      <path d="M313.04 111.44c0-1.053.147-2 .44-2.84.293-.84.7-1.553 1.22-2.14.52-.587 1.137-1.037 1.85-1.35.713-.313 1.49-.47 2.33-.47.8 0 1.5.163 2.1.49.6.327 1.093.703 1.48 1.13l-.94 1.06c-.347-.373-.73-.67-1.15-.89-.42-.22-.91-.33-1.47-.33-.627 0-1.193.123-1.7.37-.507.247-.94.6-1.3 1.06-.36.46-.64 1.017-.84 1.67-.2.653-.3 1.387-.3 2.2 0 .827.097 1.57.29 2.23.193.66.463 1.223.81 1.69.347.467.77.827 1.27 1.08.5.253 1.063.38 1.69.38.64 0 1.197-.127 1.67-.38.473-.253.923-.613 1.35-1.08l.94 1.02c-.52.6-1.107 1.067-1.76 1.4-.653.333-1.4.5-2.24.5-.827 0-1.59-.153-2.29-.46-.7-.307-1.307-.75-1.82-1.33-.513-.58-.913-1.293-1.2-2.14-.287-.847-.43-1.803-.43-2.87zm11.633 1.72c0-.813.124-1.537.37-2.17.247-.633.577-1.17.99-1.61.414-.44.89-.773 1.43-1 .54-.227 1.11-.34 1.71-.34.6 0 1.17.113 1.71.34.54.227 1.017.56 1.43 1 .414.44.744.977.99 1.61.247.633.37 1.357.37 2.17 0 .8-.123 1.517-.37 2.15-.246.633-.576 1.167-.99 1.6-.413.433-.89.763-1.43.99-.54.227-1.11.34-1.71.34-.6 0-1.17-.113-1.71-.34-.54-.227-1.016-.557-1.43-.99-.413-.433-.743-.967-.99-1.6-.246-.633-.37-1.35-.37-2.15zm1.7 0c0 .56.067 1.067.2 1.52.134.453.324.843.57 1.17.247.327.544.58.89.76.347.18.727.27 1.14.27.414 0 .794-.09 1.14-.27.347-.18.644-.433.89-.76.247-.327.437-.717.57-1.17.134-.453.2-.96.2-1.52s-.066-1.07-.2-1.53c-.133-.46-.323-.857-.57-1.19-.246-.333-.543-.59-.89-.77-.346-.18-.726-.27-1.14-.27-.413 0-.793.09-1.14.27-.346.18-.643.437-.89.77-.246.333-.436.73-.57 1.19-.133.46-.2.97-.2 1.53zm10.194-4.88h1.36l.14 1.4h.06c.426-.467.89-.857 1.39-1.17.5-.313 1.043-.47 1.63-.47.746 0 1.33.163 1.75.49.42.327.73.783.93 1.37.506-.56 1.016-1.01 1.53-1.35.513-.34 1.07-.51 1.67-.51 1 0 1.743.32 2.23.96.486.64.73 1.587.73 2.84V118h-1.64v-5.94c0-.92-.147-1.583-.44-1.99-.294-.407-.747-.61-1.36-.61-.734 0-1.547.5-2.44 1.5V118h-1.64v-5.94c0-.92-.147-1.583-.44-1.99-.294-.407-.754-.61-1.38-.61-.734 0-1.547.5-2.44 1.5V118h-1.64v-9.72zm18.553 10.54v3.28h-1.64v-13.82h1.36l.14 1.12h.06c.44-.373.923-.693 1.45-.96.527-.267 1.077-.4 1.65-.4.627 0 1.18.117 1.66.35.48.233.88.567 1.2 1 .32.433.563.953.73 1.56.167.607.25 1.29.25 2.05 0 .827-.113 1.563-.34 2.21-.227.647-.533 1.197-.92 1.65-.387.453-.833.797-1.34 1.03-.507.233-1.04.35-1.6.35-.453 0-.903-.1-1.35-.3-.447-.2-.897-.473-1.35-.82l.04 1.7zm0-2.98c.44.373.867.637 1.28.79.413.153.78.23 1.1.23.4 0 .77-.09 1.11-.27.34-.18.633-.433.88-.76s.44-.73.58-1.21c.14-.48.21-1.02.21-1.62 0-.533-.047-1.02-.14-1.46-.093-.44-.243-.817-.45-1.13-.207-.313-.473-.557-.8-.73-.327-.173-.717-.26-1.17-.26-.413 0-.83.113-1.25.34-.42.227-.87.553-1.35.98v5.1zm9.073-2.68c0-.813.124-1.537.37-2.17.247-.633.577-1.17.99-1.61.414-.44.89-.773 1.43-1 .54-.227 1.11-.34 1.71-.34.6 0 1.17.113 1.71.34.54.227 1.017.56 1.43 1 .414.44.744.977.99 1.61.247.633.37 1.357.37 2.17 0 .8-.123 1.517-.37 2.15-.246.633-.576 1.167-.99 1.6-.413.433-.89.763-1.43.99-.54.227-1.11.34-1.71.34-.6 0-1.17-.113-1.71-.34-.54-.227-1.016-.557-1.43-.99-.413-.433-.743-.967-.99-1.6-.246-.633-.37-1.35-.37-2.15zm1.7 0c0 .56.067 1.067.2 1.52.134.453.324.843.57 1.17.247.327.544.58.89.76.347.18.727.27 1.14.27.414 0 .794-.09 1.14-.27.347-.18.644-.433.89-.76.247-.327.437-.717.57-1.17.134-.453.2-.96.2-1.52s-.066-1.07-.2-1.53c-.133-.46-.323-.857-.57-1.19-.246-.333-.543-.59-.89-.77-.346-.18-.726-.27-1.14-.27-.413 0-.793.09-1.14.27-.346.18-.643.437-.89.77-.246.333-.436.73-.57 1.19-.133.46-.2.97-.2 1.53zm10.194-4.88h1.36l.14 1.4h.06c.466-.467.956-.857 1.47-1.17.513-.313 1.11-.47 1.79-.47 1.026 0 1.776.32 2.25.96.473.64.71 1.587.71 2.84V118h-1.64v-5.94c0-.92-.147-1.583-.44-1.99-.294-.407-.76-.61-1.4-.61-.507 0-.954.127-1.34.38-.387.253-.827.627-1.32 1.12V118h-1.64v-9.72zm10.553 4.88c0-.8.123-1.517.37-2.15s.573-1.17.98-1.61c.407-.44.87-.777 1.39-1.01.52-.233 1.06-.35 1.62-.35.613 0 1.163.107 1.65.32.487.213.893.52 1.22.92.327.4.577.88.75 1.44.173.56.26 1.187.26 1.88 0 .36-.02.66-.06.9h-6.56c.067 1.053.39 1.887.97 2.5s1.337.92 2.27.92c.467 0 .897-.07 1.29-.21.393-.14.77-.323 1.13-.55l.58 1.08c-.427.267-.9.5-1.42.7-.52.2-1.113.3-1.78.3-.653 0-1.263-.117-1.83-.35-.567-.233-1.06-.567-1.48-1-.42-.433-.75-.963-.99-1.59-.24-.627-.36-1.34-.36-2.14zm6.8-.74c0-1-.21-1.763-.63-2.29-.42-.527-1.01-.79-1.77-.79-.347 0-.677.07-.99.21-.313.14-.597.34-.85.6-.253.26-.463.58-.63.96-.167.38-.277.817-.33 1.31h5.2zm4.173-4.14h1.36l.14 1.4h.06c.467-.467.957-.857 1.47-1.17.514-.313 1.11-.47 1.79-.47 1.027 0 1.777.32 2.25.96.474.64.71 1.587.71 2.84V118h-1.64v-5.94c0-.92-.146-1.583-.44-1.99-.293-.407-.76-.61-1.4-.61-.506 0-.953.127-1.34.38-.386.253-.826.627-1.32 1.12V118h-1.64v-9.72zm11.554 1.34h-1.44v-1.24l1.52-.1.2-2.72h1.38v2.72h2.62v1.34h-2.62v5.4c0 .6.11 1.063.33 1.39.22.327.61.49 1.17.49.173 0 .36-.027.56-.08.2-.053.38-.113.54-.18l.32 1.24c-.267.093-.557.177-.87.25-.314.073-.624.11-.93.11-.52 0-.957-.08-1.31-.24-.354-.16-.64-.38-.86-.66-.22-.28-.377-.62-.47-1.02-.094-.4-.14-.84-.14-1.32v-5.38zm6.913-4.74h1.66v7.74c0 .787.08 1.447.24 1.98.16.533.377.96.65 1.28.273.32.597.55.97.69.373.14.773.21 1.2.21.44 0 .847-.07 1.22-.21.373-.14.7-.37.98-.69.28-.32.5-.747.66-1.28.16-.533.24-1.193.24-1.98v-7.74h1.6v7.7c0 1.053-.12 1.94-.36 2.66-.24.72-.57 1.303-.99 1.75-.42.447-.917.767-1.49.96-.573.193-1.193.29-1.86.29s-1.29-.097-1.87-.29c-.58-.193-1.08-.513-1.5-.96-.42-.447-.75-1.03-.99-1.75s-.36-1.607-.36-2.66v-7.7zm13.973 1.4c-.32 0-.59-.1-.81-.3-.22-.2-.33-.453-.33-.76 0-.32.11-.577.33-.77.22-.193.49-.29.81-.29.32 0 .59.097.81.29.22.193.33.45.33.77 0 .307-.11.56-.33.76-.22.2-.49.3-.81.3zm-.84 2h1.64V118h-1.64v-9.72zm5.454 6.86c.466.493 1.016.89 1.65 1.19.633.3 1.29.45 1.97.45.866 0 1.54-.197 2.02-.59.48-.393.72-.91.72-1.55 0-.333-.057-.617-.17-.85-.114-.233-.267-.433-.46-.6-.194-.167-.424-.317-.69-.45-.267-.133-.554-.273-.86-.42l-1.88-.82c-.307-.133-.62-.293-.94-.48-.32-.187-.607-.413-.86-.68-.254-.267-.46-.583-.62-.95-.16-.367-.24-.79-.24-1.27 0-.493.103-.953.31-1.38.206-.427.493-.797.86-1.11.366-.313.8-.557 1.3-.73.5-.173 1.05-.26 1.65-.26.786 0 1.513.15 2.18.45.666.3 1.233.69 1.7 1.17l-.9 1.08c-.4-.387-.844-.69-1.33-.91-.487-.22-1.037-.33-1.65-.33-.734 0-1.324.17-1.77.51-.447.34-.67.81-.67 1.41 0 .32.063.59.19.81.126.22.296.413.51.58.213.167.446.313.7.44.253.127.513.243.78.35l1.86.8c.373.16.726.343 1.06.55.333.207.62.447.86.72.24.273.43.593.57.96.14.367.21.79.21 1.27 0 .52-.104 1.007-.31 1.46-.207.453-.504.85-.89 1.19-.387.34-.854.607-1.4.8-.547.193-1.167.29-1.86.29-.92 0-1.774-.173-2.56-.52-.787-.347-1.467-.82-2.04-1.42l1-1.16zm11.093-5.52h-1.44v-1.24l1.52-.1.2-2.72h1.38v2.72h2.62v1.34h-2.62v5.4c0 .6.11 1.063.33 1.39.22.327.61.49 1.17.49.173 0 .36-.027.56-.08.2-.053.38-.113.54-.18l.32 1.24c-.267.093-.557.177-.87.25-.313.073-.623.11-.93.11-.52 0-.957-.08-1.31-.24-.353-.16-.64-.38-.86-.66-.22-.28-.377-.62-.47-1.02-.093-.4-.14-.84-.14-1.32v-5.38zm5.973 5.86c0-1.067.477-1.883 1.43-2.45.954-.567 2.47-.963 4.55-1.19 0-.307-.03-.607-.09-.9-.06-.293-.166-.553-.32-.78-.153-.227-.356-.41-.61-.55-.253-.14-.58-.21-.98-.21-.573 0-1.103.107-1.59.32-.486.213-.923.453-1.31.72l-.66-1.14c.454-.293 1.007-.577 1.66-.85.654-.273 1.374-.41 2.16-.41 1.187 0 2.047.363 2.58 1.09.534.727.8 1.697.8 2.91V118h-1.36l-.14-1.16h-.04c-.466.387-.97.717-1.51.99s-1.11.41-1.71.41c-.826 0-1.51-.24-2.05-.72-.54-.48-.81-1.16-.81-2.04zm1.62-.12c0 .56.164.96.49 1.2.327.24.73.36 1.21.36.467 0 .91-.11 1.33-.33.42-.22.864-.543 1.33-.97v-2.7c-.813.107-1.5.233-2.06.38s-1.01.32-1.35.52c-.34.2-.583.43-.73.69-.146.26-.22.543-.22.85zm9.714-5.74h-1.44v-1.24l1.52-.1.2-2.72h1.38v2.72h2.62v1.34h-2.62v5.4c0 .6.11 1.063.33 1.39.22.327.61.49 1.17.49.173 0 .36-.027.56-.08.2-.053.38-.113.54-.18l.32 1.24c-.267.093-.557.177-.87.25-.314.073-.624.11-.93.11-.52 0-.957-.08-1.31-.24-.354-.16-.64-.38-.86-.66-.22-.28-.377-.62-.47-1.02-.094-.4-.14-.84-.14-1.32v-5.38zm5.893 3.54c0-.8.123-1.517.37-2.15s.573-1.17.98-1.61c.407-.44.87-.777 1.39-1.01.52-.233 1.06-.35 1.62-.35.613 0 1.163.107 1.65.32.487.213.893.52 1.22.92.327.4.577.88.75 1.44.173.56.26 1.187.26 1.88 0 .36-.02.66-.06.9h-6.56c.067 1.053.39 1.887.97 2.5s1.337.92 2.27.92c.467 0 .897-.07 1.29-.21.393-.14.77-.323 1.13-.55l.58 1.08c-.427.267-.9.5-1.42.7-.52.2-1.113.3-1.78.3-.653 0-1.263-.117-1.83-.35-.567-.233-1.06-.567-1.48-1-.42-.433-.75-.963-.99-1.59-.24-.627-.36-1.34-.36-2.14zm6.8-.74c0-1-.21-1.763-.63-2.29-.42-.527-1.01-.79-1.77-.79-.347 0-.677.07-.99.21-.313.14-.597.34-.85.6-.253.26-.463.58-.63.96-.167.38-.277.817-.33 1.31h5.2zm4.333-7.54h1.96l2.54 7.04.96 2.68h.08l.92-2.68 2.52-7.04h1.96V118h-1.58v-7.22c0-.587.024-1.233.07-1.94.047-.707.097-1.353.15-1.94h-.08l-1.06 2.92-2.52 6.86h-.94l-2.54-6.86-1.04-2.92h-.08c.04.587.087 1.233.14 1.94.054.707.08 1.353.08 1.94V118h-1.54v-13.12zm13.994 8.28c0-.813.123-1.537.37-2.17.246-.633.576-1.17.99-1.61.413-.44.89-.773 1.43-1 .54-.227 1.11-.34 1.71-.34.6 0 1.17.113 1.71.34.54.227 1.016.56 1.43 1 .413.44.743.977.99 1.61.246.633.37 1.357.37 2.17 0 .8-.124 1.517-.37 2.15-.247.633-.577 1.167-.99 1.6-.414.433-.89.763-1.43.99-.54.227-1.11.34-1.71.34-.6 0-1.17-.113-1.71-.34-.54-.227-1.017-.557-1.43-.99-.414-.433-.744-.967-.99-1.6-.247-.633-.37-1.35-.37-2.15zm1.7 0c0 .56.066 1.067.2 1.52.133.453.323.843.57 1.17.246.327.543.58.89.76.346.18.726.27 1.14.27.413 0 .793-.09 1.14-.27.346-.18.643-.433.89-.76.246-.327.436-.717.57-1.17.133-.453.2-.96.2-1.52s-.067-1.07-.2-1.53c-.134-.46-.324-.857-.57-1.19-.247-.333-.544-.59-.89-.77-.347-.18-.727-.27-1.14-.27-.414 0-.794.09-1.14.27-.347.18-.644.437-.89.77-.247.333-.437.73-.57 1.19-.134.46-.2.97-.2 1.53zm9.493 0c0-.787.117-1.497.35-2.13.233-.633.543-1.17.93-1.61.387-.44.833-.78 1.34-1.02.507-.24 1.04-.36 1.6-.36s1.047.1 1.46.3c.413.2.833.473 1.26.82l-.08-1.66v-3.74h1.66V118h-1.36l-.14-1.14h-.06c-.387.373-.83.697-1.33.97-.5.273-1.037.41-1.61.41-1.227 0-2.203-.44-2.93-1.32-.727-.88-1.09-2.133-1.09-3.76zm1.7-.02c0 1.173.233 2.087.7 2.74.467.653 1.127.98 1.98.98.453 0 .88-.11 1.28-.33.4-.22.8-.557 1.2-1.01v-5.08c-.413-.373-.81-.637-1.19-.79-.38-.153-.77-.23-1.17-.23-.387 0-.75.09-1.09.27-.34.18-.637.433-.89.76s-.453.717-.6 1.17c-.147.453-.22.96-.22 1.52zm11.273-6.86c-.32 0-.59-.1-.81-.3-.22-.2-.33-.453-.33-.76 0-.32.11-.577.33-.77.22-.193.49-.29.81-.29.32 0 .59.097.81.29.22.193.33.45.33.77 0 .307-.11.56-.33.76-.22.2-.49.3-.81.3zm-.84 2h1.64V118h-1.64v-9.72zm9.634-3.18c-.36-.16-.727-.24-1.1-.24-.907 0-1.36.627-1.36 1.88v1.54h2.06v1.34h-2.06V118h-1.64v-8.38h-1.32v-1.24l1.32-.1v-1.54c0-1 .23-1.787.69-2.36.46-.573 1.176-.86 2.15-.86.306 0 .596.03.87.09.273.06.523.137.75.23l-.36 1.26zm2.633 1.18c-.32 0-.59-.1-.81-.3-.22-.2-.33-.453-.33-.76 0-.32.11-.577.33-.77.22-.193.49-.29.81-.29.32 0 .59.097.81.29.22.193.33.45.33.77 0 .307-.11.56-.33.76-.22.2-.49.3-.81.3zm-.84 2h1.64V118h-1.64v-9.72zm4.533 4.88c0-.8.124-1.517.37-2.15.247-.633.574-1.17.98-1.61.407-.44.87-.777 1.39-1.01.52-.233 1.06-.35 1.62-.35.614 0 1.164.107 1.65.32.487.213.894.52 1.22.92.327.4.577.88.75 1.44.174.56.26 1.187.26 1.88 0 .36-.02.66-.06.9h-6.56c.067 1.053.39 1.887.97 2.5s1.337.92 2.27.92c.467 0 .897-.07 1.29-.21.394-.14.77-.323 1.13-.55l.58 1.08c-.426.267-.9.5-1.42.7-.52.2-1.113.3-1.78.3-.653 0-1.263-.117-1.83-.35-.566-.233-1.06-.567-1.48-1-.42-.433-.75-.963-.99-1.59-.24-.627-.36-1.34-.36-2.14zm6.8-.74c0-1-.21-1.763-.63-2.29-.42-.527-1.01-.79-1.77-.79-.346 0-.676.07-.99.21-.313.14-.596.34-.85.6-.253.26-.463.58-.63.96-.166.38-.276.817-.33 1.31h5.2zm4.174-4.14h1.36l.14 1.76h.06c.333-.613.736-1.1 1.21-1.46.473-.36.99-.54 1.55-.54.386 0 .733.067 1.04.2l-.32 1.44c-.16-.053-.307-.093-.44-.12-.134-.027-.3-.04-.5-.04-.414 0-.844.167-1.29.5-.447.333-.837.913-1.17 1.74V118h-1.64v-9.72z" fill="#710ECC"/>
      <path d="M448.38 268.66l-.62-2c-.24-.733-.467-1.463-.68-2.19-.213-.727-.427-1.47-.64-2.23h-.08c-.2.76-.407 1.503-.62 2.23-.213.727-.44 1.457-.68 2.19l-.62 2h3.94zm.42 1.34h-4.78l-1.26 4h-1.7l4.44-13.12h1.88l4.44 13.12h-1.78l-1.24-4zm12.087-7.12h-3.78v-1.96h9.88v1.96h-3.78V274h-2.32v-11.12zm6.353 6.22c0-.813.127-1.54.38-2.18.253-.64.597-1.18 1.03-1.62.433-.44.93-.777 1.49-1.01.56-.233 1.147-.35 1.76-.35s1.203.117 1.77.35c.567.233 1.063.57 1.49 1.01.427.44.77.98 1.03 1.62.26.64.39 1.367.39 2.18 0 .813-.13 1.54-.39 2.18-.26.64-.603 1.18-1.03 1.62-.427.44-.923.773-1.49 1-.567.227-1.157.34-1.77.34s-1.2-.113-1.76-.34c-.56-.227-1.057-.56-1.49-1-.433-.44-.777-.98-1.03-1.62-.253-.64-.38-1.367-.38-2.18zm2.36 0c0 .987.203 1.777.61 2.37.407.593.97.89 1.69.89s1.287-.297 1.7-.89c.413-.593.62-1.383.62-2.37 0-1-.207-1.797-.62-2.39-.413-.593-.98-.89-1.7-.89s-1.283.297-1.69.89c-.407.593-.61 1.39-.61 2.39zm10.853 6.34c0 .44.224.783.67 1.03.447.247 1.064.37 1.85.37.8 0 1.444-.157 1.93-.47.487-.313.73-.683.73-1.11 0-.387-.15-.647-.45-.78-.3-.133-.73-.2-1.29-.2h-1.34c-.533 0-.98-.047-1.34-.14-.506.387-.76.82-.76 1.3zm-1.92.34c0-.413.12-.797.36-1.15.24-.353.587-.67 1.04-.95v-.08c-.253-.16-.463-.373-.63-.64-.166-.267-.25-.6-.25-1 0-.387.11-.737.33-1.05.22-.313.47-.57.75-.77v-.08c-.333-.253-.63-.603-.89-1.05-.26-.447-.39-.963-.39-1.55 0-.56.107-1.06.32-1.5.214-.44.497-.81.85-1.11.354-.3.764-.527 1.23-.68.467-.153.96-.23 1.48-.23.267 0 .524.023.77.07.247.047.47.103.67.17h3.52v1.7h-1.8c.16.187.294.423.4.71.107.287.16.603.16.95 0 .547-.096 1.027-.29 1.44-.193.413-.456.76-.79 1.04-.333.28-.726.493-1.18.64-.453.147-.94.22-1.46.22-.213 0-.433-.02-.66-.06-.226-.04-.453-.107-.68-.2-.146.133-.263.267-.35.4-.086.133-.13.313-.13.54 0 .28.117.5.35.66.234.16.65.24 1.25.24h1.74c1.187 0 2.084.19 2.69.57.607.38.91.997.91 1.85 0 .48-.123.933-.37 1.36-.246.427-.596.793-1.05 1.1-.453.307-1.003.55-1.65.73-.646.18-1.37.27-2.17.27-.586 0-1.13-.053-1.63-.16-.5-.107-.93-.267-1.29-.48-.36-.213-.643-.48-.85-.8-.206-.32-.31-.693-.31-1.12zm4.2-6.34c.467 0 .867-.17 1.2-.51.334-.34.5-.83.5-1.47 0-.613-.163-1.09-.49-1.43-.326-.34-.73-.51-1.21-.51s-.886.167-1.22.5c-.333.333-.5.813-.5 1.44 0 .64.167 1.13.5 1.47.334.34.74.51 1.22.51zm8.454 6c0 .44.223.783.67 1.03.446.247 1.063.37 1.85.37.8 0 1.443-.157 1.93-.47.486-.313.73-.683.73-1.11 0-.387-.15-.647-.45-.78-.3-.133-.73-.2-1.29-.2h-1.34c-.534 0-.98-.047-1.34-.14-.507.387-.76.82-.76 1.3zm-1.92.34c0-.413.12-.797.36-1.15.24-.353.586-.67 1.04-.95v-.08c-.254-.16-.464-.373-.63-.64-.167-.267-.25-.6-.25-1 0-.387.11-.737.33-1.05.22-.313.47-.57.75-.77v-.08c-.334-.253-.63-.603-.89-1.05-.26-.447-.39-.963-.39-1.55 0-.56.106-1.06.32-1.5.213-.44.496-.81.85-1.11.353-.3.763-.527 1.23-.68.466-.153.96-.23 1.48-.23.266 0 .523.023.77.07.246.047.47.103.67.17h3.52v1.7h-1.8c.16.187.293.423.4.71.106.287.16.603.16.95 0 .547-.097 1.027-.29 1.44-.194.413-.457.76-.79 1.04-.334.28-.727.493-1.18.64-.454.147-.94.22-1.46.22-.214 0-.434-.02-.66-.06-.227-.04-.454-.107-.68-.2-.147.133-.264.267-.35.4-.087.133-.13.313-.13.54 0 .28.116.5.35.66.233.16.65.24 1.25.24h1.74c1.186 0 2.083.19 2.69.57.606.38.91.997.91 1.85 0 .48-.124.933-.37 1.36-.247.427-.597.793-1.05 1.1-.454.307-1.004.55-1.65.73-.647.18-1.37.27-2.17.27-.587 0-1.13-.053-1.63-.16-.5-.107-.93-.267-1.29-.48-.36-.213-.644-.48-.85-.8-.207-.32-.31-.693-.31-1.12zm4.2-6.34c.466 0 .866-.17 1.2-.51.333-.34.5-.83.5-1.47 0-.613-.164-1.09-.49-1.43-.327-.34-.73-.51-1.21-.51s-.887.167-1.22.5c-.334.333-.5.813-.5 1.44 0 .64.166 1.13.5 1.47.333.34.74.51 1.22.51zm7.193-9.56h2.3v11.72c0 .28.053.477.16.59.107.113.22.17.34.17h.15c.047 0 .117-.013.21-.04l.3 1.72c-.307.133-.713.2-1.22.2-.827 0-1.407-.247-1.74-.74-.333-.493-.5-1.167-.5-2.02v-11.6zm5.113 9.22c0-.8.127-1.52.38-2.16.254-.64.59-1.18 1.01-1.62.42-.44.904-.78 1.45-1.02.547-.24 1.107-.36 1.68-.36.667 0 1.254.113 1.76.34.507.227.93.547 1.27.96.34.413.597.907.77 1.48.174.573.26 1.2.26 1.88 0 .453-.033.813-.1 1.08h-6.24c.107.893.417 1.58.93 2.06.514.48 1.17.72 1.97.72.427 0 .824-.063 1.19-.19.367-.127.73-.303 1.09-.53l.78 1.44c-.466.307-.986.56-1.56.76-.573.2-1.173.3-1.8.3-.68 0-1.313-.117-1.9-.35-.586-.233-1.1-.57-1.54-1.01-.44-.44-.783-.977-1.03-1.61-.246-.633-.37-1.357-.37-2.17zm6.58-.88c0-.787-.163-1.4-.49-1.84-.326-.44-.83-.66-1.51-.66-.586 0-1.1.21-1.54.63-.44.42-.713 1.043-.82 1.87h4.36zm13.467-7.12c-.36-.16-.727-.24-1.1-.24-.907 0-1.36.627-1.36 1.88v1.54h2.06v1.34h-2.06V274h-1.64v-8.38h-1.32v-1.24l1.32-.1v-1.54c0-1 .23-1.787.69-2.36.46-.573 1.177-.86 2.15-.86.307 0 .597.03.87.09s.523.137.75.23l-.36 1.26zm.873 8.06c0-.813.124-1.537.37-2.17.247-.633.577-1.17.99-1.61.414-.44.89-.773 1.43-1 .54-.227 1.11-.34 1.71-.34.6 0 1.17.113 1.71.34.54.227 1.017.56 1.43 1 .414.44.744.977.99 1.61.247.633.37 1.357.37 2.17 0 .8-.123 1.517-.37 2.15-.246.633-.576 1.167-.99 1.6-.413.433-.89.763-1.43.99-.54.227-1.11.34-1.71.34-.6 0-1.17-.113-1.71-.34-.54-.227-1.016-.557-1.43-.99-.413-.433-.743-.967-.99-1.6-.246-.633-.37-1.35-.37-2.15zm1.7 0c0 .56.067 1.067.2 1.52.134.453.324.843.57 1.17.247.327.544.58.89.76.347.18.727.27 1.14.27.414 0 .794-.09 1.14-.27.347-.18.644-.433.89-.76.247-.327.437-.717.57-1.17.134-.453.2-.96.2-1.52s-.066-1.07-.2-1.53c-.133-.46-.323-.857-.57-1.19-.246-.333-.543-.59-.89-.77-.346-.18-.726-.27-1.14-.27-.413 0-.793.09-1.14.27-.346.18-.643.437-.89.77-.246.333-.436.73-.57 1.19-.133.46-.2.97-.2 1.53zm10.194-4.88h1.36l.14 1.76h.06c.333-.613.736-1.1 1.21-1.46.473-.36.99-.54 1.55-.54.386 0 .733.067 1.04.2l-.32 1.44c-.16-.053-.307-.093-.44-.12-.134-.027-.3-.04-.5-.04-.414 0-.844.167-1.29.5-.447.333-.837.913-1.17 1.74V274h-1.64v-9.72zm10.926 4.88c0-.8.124-1.517.37-2.15.247-.633.574-1.17.98-1.61.407-.44.87-.777 1.39-1.01.52-.233 1.06-.35 1.62-.35.614 0 1.164.107 1.65.32.487.213.894.52 1.22.92.327.4.577.88.75 1.44.174.56.26 1.187.26 1.88 0 .36-.02.66-.06.9h-6.56c.067 1.053.39 1.887.97 2.5s1.337.92 2.27.92c.467 0 .897-.07 1.29-.21.394-.14.77-.323 1.13-.55l.58 1.08c-.426.267-.9.5-1.42.7-.52.2-1.113.3-1.78.3-.653 0-1.263-.117-1.83-.35-.566-.233-1.06-.567-1.48-1-.42-.433-.75-.963-.99-1.59-.24-.627-.36-1.34-.36-2.14zm6.8-.74c0-1-.21-1.763-.63-2.29-.42-.527-1.01-.79-1.77-.79-.346 0-.676.07-.99.21-.313.14-.596.34-.85.6-.253.26-.463.58-.63.96-.166.38-.276.817-.33 1.31h5.2zm5.854.5l-2.94-4.64h1.78l1.3 2.14c.146.267.3.537.46.81.16.273.326.543.5.81h.08c.146-.267.293-.537.44-.81.146-.273.293-.543.44-.81l1.18-2.14h1.72l-2.94 4.82 3.16 4.9h-1.78l-1.42-2.26-.52-.88c-.174-.293-.354-.58-.54-.86h-.08c-.174.28-.34.563-.5.85-.16.287-.32.583-.48.89l-1.32 2.26h-1.72l3.18-5.08zm6.753 2.56c0-1.067.477-1.883 1.43-2.45.953-.567 2.47-.963 4.55-1.19 0-.307-.03-.607-.09-.9-.06-.293-.167-.553-.32-.78-.153-.227-.357-.41-.61-.55-.253-.14-.58-.21-.98-.21-.573 0-1.103.107-1.59.32-.487.213-.923.453-1.31.72l-.66-1.14c.453-.293 1.007-.577 1.66-.85s1.373-.41 2.16-.41c1.187 0 2.047.363 2.58 1.09.533.727.8 1.697.8 2.91V274h-1.36l-.14-1.16H575c-.467.387-.97.717-1.51.99s-1.11.41-1.71.41c-.827 0-1.51-.24-2.05-.72-.54-.48-.81-1.16-.81-2.04zm1.62-.12c0 .56.163.96.49 1.2.327.24.73.36 1.21.36.467 0 .91-.11 1.33-.33.42-.22.863-.543 1.33-.97v-2.7c-.813.107-1.5.233-2.06.38s-1.01.32-1.35.52c-.34.2-.583.43-.73.69-.147.26-.22.543-.22.85zm9.433-7.08h1.36l.14 1.4h.06c.427-.467.89-.857 1.39-1.17.5-.313 1.044-.47 1.63-.47.747 0 1.33.163 1.75.49.42.327.73.783.93 1.37.507-.56 1.017-1.01 1.53-1.35.514-.34 1.07-.51 1.67-.51 1 0 1.744.32 2.23.96.487.64.73 1.587.73 2.84V274h-1.64v-5.94c0-.92-.146-1.583-.44-1.99-.293-.407-.746-.61-1.36-.61-.733 0-1.546.5-2.44 1.5V274h-1.64v-5.94c0-.92-.146-1.583-.44-1.99-.293-.407-.753-.61-1.38-.61-.733 0-1.546.5-2.44 1.5V274h-1.64v-9.72zm18.554 10.54v3.28h-1.64v-13.82h1.36l.14 1.12h.06c.44-.373.923-.693 1.45-.96.526-.267 1.076-.4 1.65-.4.626 0 1.18.117 1.66.35.48.233.88.567 1.2 1 .32.433.563.953.73 1.56.166.607.25 1.29.25 2.05 0 .827-.114 1.563-.34 2.21-.227.647-.534 1.197-.92 1.65-.387.453-.834.797-1.34 1.03-.507.233-1.04.35-1.6.35-.454 0-.904-.1-1.35-.3-.447-.2-.897-.473-1.35-.82l.04 1.7zm0-2.98c.44.373.866.637 1.28.79.413.153.78.23 1.1.23.4 0 .77-.09 1.11-.27.34-.18.633-.433.88-.76.246-.327.44-.73.58-1.21.14-.48.21-1.02.21-1.62 0-.533-.047-1.02-.14-1.46-.094-.44-.244-.817-.45-1.13-.207-.313-.474-.557-.8-.73-.327-.173-.717-.26-1.17-.26-.414 0-.83.113-1.25.34-.42.227-.87.553-1.35.98v5.1zm9.793-12.08h1.64v12.4c0 .267.047.453.14.56.093.107.2.16.32.16h.15c.047 0 .117-.013.21-.04l.22 1.24c-.107.053-.233.093-.38.12-.147.027-.333.04-.56.04-.627 0-1.073-.187-1.34-.56-.267-.373-.4-.92-.4-1.64v-12.28zm4.713 9.4c0-.8.124-1.517.37-2.15.247-.633.574-1.17.98-1.61.407-.44.87-.777 1.39-1.01.52-.233 1.06-.35 1.62-.35.614 0 1.164.107 1.65.32.487.213.894.52 1.22.92.327.4.577.88.75 1.44.174.56.26 1.187.26 1.88 0 .36-.02.66-.06.9h-6.56c.067 1.053.39 1.887.97 2.5s1.337.92 2.27.92c.467 0 .897-.07 1.29-.21.394-.14.77-.323 1.13-.55l.58 1.08c-.426.267-.9.5-1.42.7-.52.2-1.113.3-1.78.3-.653 0-1.263-.117-1.83-.35-.566-.233-1.06-.567-1.48-1-.42-.433-.75-.963-.99-1.59-.24-.627-.36-1.34-.36-2.14zm6.8-.74c0-1-.21-1.763-.63-2.29-.42-.527-1.01-.79-1.77-.79-.346 0-.676.07-.99.21-.313.14-.596.34-.85.6-.253.26-.463.58-.63.96-.166.38-.276.817-.33 1.31h5.2zm8.547-8.66h1.64v3.88l-.06 2c.467-.44.953-.817 1.46-1.13.507-.313 1.1-.47 1.78-.47 1.027 0 1.777.32 2.25.96.473.64.71 1.587.71 2.84V274h-1.64v-5.94c0-.92-.147-1.583-.44-1.99-.293-.407-.76-.61-1.4-.61-.507 0-.953.127-1.34.38-.387.253-.827.627-1.32 1.12V274h-1.64v-14.24zm10.733 11.72c0-1.067.477-1.883 1.43-2.45.954-.567 2.47-.963 4.55-1.19 0-.307-.03-.607-.09-.9-.06-.293-.166-.553-.32-.78-.153-.227-.356-.41-.61-.55-.253-.14-.58-.21-.98-.21-.573 0-1.103.107-1.59.32-.486.213-.923.453-1.31.72l-.66-1.14c.454-.293 1.007-.577 1.66-.85.654-.273 1.374-.41 2.16-.41 1.187 0 2.047.363 2.58 1.09.534.727.8 1.697.8 2.91V274h-1.36l-.14-1.16h-.04c-.466.387-.97.717-1.51.99s-1.11.41-1.71.41c-.826 0-1.51-.24-2.05-.72-.54-.48-.81-1.16-.81-2.04zm1.62-.12c0 .56.164.96.49 1.2.327.24.73.36 1.21.36.467 0 .91-.11 1.33-.33.42-.22.864-.543 1.33-.97v-2.7c-.813.107-1.5.233-2.06.38s-1.01.32-1.35.52c-.34.2-.583.43-.73.69-.146.26-.22.543-.22.85zm9.174.44c.426.347.863.627 1.31.84.446.213.963.32 1.55.32.64 0 1.12-.147 1.44-.44.32-.293.48-.653.48-1.08 0-.253-.067-.473-.2-.66-.134-.187-.304-.35-.51-.49-.207-.14-.444-.263-.71-.37l-.8-.32c-.347-.12-.694-.257-1.04-.41-.347-.153-.657-.34-.93-.56-.274-.22-.497-.477-.67-.77-.174-.293-.26-.647-.26-1.06 0-.387.076-.75.23-1.09.153-.34.373-.633.66-.88.286-.247.636-.44 1.05-.58.413-.14.88-.21 1.4-.21.613 0 1.176.107 1.69.32.513.213.956.473 1.33.78l-.78 1.04c-.334-.253-.68-.46-1.04-.62-.36-.16-.754-.24-1.18-.24-.614 0-1.064.14-1.35.42-.287.28-.43.607-.43.98 0 .227.06.423.18.59.12.167.28.313.48.44.2.127.43.24.69.34l.81.31c.346.133.696.273 1.05.42.353.147.67.33.95.55.28.22.51.49.69.81.18.32.27.707.27 1.16 0 .4-.077.773-.23 1.12-.154.347-.38.653-.68.92-.3.267-.674.477-1.12.63-.447.153-.957.23-1.53.23-.694 0-1.354-.127-1.98-.38-.627-.253-1.174-.573-1.64-.96l.82-1.1zm-207.803 41.44c.34.277.69.5 1.048.672.357.17.77.256 1.24.256.512 0 .896-.117 1.152-.352.256-.235.384-.523.384-.864 0-.203-.053-.38-.16-.528-.107-.15-.243-.28-.408-.392-.165-.112-.355-.21-.568-.296l-.64-.256c-.277-.096-.555-.205-.832-.328-.277-.123-.525-.272-.744-.448-.22-.176-.397-.38-.536-.616-.14-.235-.208-.517-.208-.848 0-.31.06-.6.184-.872.123-.272.3-.507.528-.704.23-.197.51-.352.84-.464.33-.112.704-.168 1.12-.168.49 0 .94.085 1.352.256.41.17.765.38 1.064.624l-.624.832c-.267-.203-.544-.368-.832-.496-.288-.128-.603-.192-.944-.192-.49 0-.85.112-1.08.336-.23.224-.344.485-.344.784 0 .18.048.34.144.472.096.133.224.25.384.352.16.1.344.192.552.272l.648.248c.277.107.557.22.84.336.283.117.536.264.76.44.224.176.408.392.552.648.144.256.216.565.216.928 0 .32-.06.62-.184.896-.123.277-.304.523-.544.736-.24.213-.54.38-.896.504-.357.123-.765.184-1.224.184-.555 0-1.083-.1-1.584-.304-.5-.203-.94-.46-1.312-.768l.656-.88zm7.47-4.944h-1.153v-.992l1.217-.08.16-2.176h1.104v2.176h2.097v1.072H450.9v4.32c0 .48.09.85.265 1.112.176.26.488.392.936.392.14 0 .29-.02.45-.064.16-.043.303-.09.43-.144l.257.992c-.213.075-.445.14-.696.2-.25.06-.497.088-.743.088-.416 0-.765-.064-1.048-.192-.283-.128-.513-.304-.69-.528-.175-.224-.3-.496-.375-.816-.074-.32-.112-.672-.112-1.056v-4.304zm4.845 4.688c0-.853.38-1.507 1.143-1.96.762-.453 1.976-.77 3.64-.952 0-.245-.024-.485-.072-.72-.047-.235-.133-.443-.255-.624-.123-.18-.286-.328-.488-.44-.203-.112-.464-.168-.784-.168-.46 0-.883.085-1.272.256-.39.17-.738.363-1.047.576l-.528-.912c.362-.235.805-.46 1.328-.68.522-.22 1.098-.328 1.728-.328.95 0 1.638.29 2.065.872.426.58.64 1.357.64 2.328V315h-1.088l-.112-.928h-.032c-.374.31-.776.573-1.208.792-.432.22-.888.328-1.368.328-.662 0-1.208-.192-1.64-.576-.432-.384-.648-.928-.648-1.632zm1.295-.096c0 .448.13.768.392.96.26.192.584.288.968.288.373 0 .728-.088 1.064-.264.335-.176.69-.435 1.063-.776v-2.16c-.65.085-1.2.187-1.648.304-.448.117-.808.256-1.08.416-.272.16-.467.344-.584.552-.117.208-.175.435-.175.68zm7.837-4.592H462.4v-.992l1.216-.08.16-2.176h1.104v2.176h2.096v1.072h-2.096v4.32c0 .48.088.85.264 1.112.176.26.488.392.936.392.14 0 .288-.02.448-.064.16-.043.304-.09.432-.144l.256.992c-.213.075-.445.14-.696.2-.25.06-.5.088-.744.088-.416 0-.765-.064-1.048-.192-.283-.128-.512-.304-.688-.528-.176-.224-.3-.496-.376-.816-.075-.32-.112-.672-.112-1.056v-4.304zm4.78 2.832c0-.64.1-1.213.297-1.72.197-.507.458-.936.783-1.288.326-.352.696-.62 1.112-.808.416-.187.848-.28 1.296-.28.492 0 .932.085 1.32.256.39.17.716.416.977.736.262.32.462.704.6 1.152.14.448.208.95.208 1.504 0 .288-.016.528-.048.72h-5.248c.053.843.31 1.51.775 2 .464.49 1.07.736 1.816.736.375 0 .72-.056 1.033-.168.315-.112.616-.26.904-.44l.464.864c-.34.213-.72.4-1.135.56-.416.16-.89.24-1.424.24-.52 0-1.01-.093-1.463-.28-.453-.187-.848-.453-1.184-.8-.336-.347-.6-.77-.792-1.272-.19-.5-.287-1.072-.287-1.712zm5.44-.592c0-.8-.167-1.41-.503-1.832-.337-.42-.81-.632-1.417-.632-.277 0-.54.056-.792.168-.25.112-.476.272-.68.48-.2.208-.37.464-.503.768s-.22.653-.264 1.048h4.16zm3.2 2.704c.34.277.69.5 1.047.672.356.17.77.256 1.24.256.51 0 .895-.117 1.15-.352.257-.235.385-.523.385-.864 0-.203-.054-.38-.16-.528-.107-.15-.243-.28-.408-.392-.166-.112-.355-.21-.568-.296l-.64-.256c-.28-.096-.556-.205-.833-.328-.278-.123-.526-.272-.744-.448-.22-.176-.398-.38-.536-.616-.14-.235-.208-.517-.208-.848 0-.31.06-.6.183-.872.122-.272.298-.507.528-.704.23-.197.51-.352.84-.464.33-.112.705-.168 1.12-.168.49 0 .942.085 1.353.256.41.17.765.38 1.064.624l-.624.832c-.267-.203-.544-.368-.832-.496-.287-.128-.602-.192-.943-.192-.49 0-.85.112-1.08.336-.23.224-.344.485-.344.784 0 .18.048.34.144.472.096.133.224.25.384.352.16.1.345.192.553.272l.648.248c.278.107.558.22.84.336.283.117.537.264.76.44.225.176.41.392.553.648.144.256.216.565.216.928 0 .32-.063.62-.185.896-.123.277-.304.523-.544.736-.24.213-.538.38-.895.504-.358.123-.766.184-1.224.184-.554 0-1.082-.1-1.583-.304-.502-.203-.94-.46-1.312-.768l.656-.88zm6.972-4.816c0-.31.093-.557.28-.744.187-.187.413-.28.68-.28.256 0 .477.093.664.28.187.187.28.435.28.744 0 .288-.093.525-.28.712-.187.187-.408.28-.664.28-.267 0-.493-.093-.68-.28-.187-.187-.28-.424-.28-.712zm0 5.776c0-.31.093-.557.28-.744.187-.187.413-.28.68-.28.256 0 .477.093.664.28.187.187.28.435.28.744 0 .288-.093.525-.28.712-.187.187-.408.28-.664.28-.267 0-.493-.093-.68-.28-.187-.187-.28-.424-.28-.712zm-30.712 14.096h-1.152v-.992l1.216-.08.16-2.176h1.104v2.176h2.096v1.072h-2.096v4.32c0 .48.088.85.264 1.112.176.26.488.392.936.392.14 0 .288-.02.448-.064.16-.043.304-.09.432-.144l.256.992c-.213.075-.445.14-.696.2-.25.06-.5.088-.744.088-.416 0-.765-.064-1.048-.192-.283-.128-.512-.304-.688-.528-.176-.224-.3-.496-.376-.816-.075-.32-.112-.672-.112-1.056v-4.304zm4.78 2.832c0-.65.1-1.23.297-1.736.197-.507.46-.936.79-1.288.332-.352.713-.62 1.145-.8.432-.18.888-.272 1.368-.272.48 0 .936.09 1.368.272.433.18.815.448 1.145.8.33.352.595.78.792 1.288.198.507.296 1.085.296 1.736 0 .64-.098 1.213-.296 1.72-.197.507-.46.933-.792 1.28-.33.347-.712.61-1.144.792-.43.18-.887.272-1.367.272s-.936-.09-1.368-.272c-.432-.18-.813-.445-1.144-.792-.33-.347-.593-.773-.79-1.28-.198-.507-.297-1.08-.297-1.72zm1.36 0c0 .448.055.853.16 1.216.108.363.26.675.457.936.197.26.434.464.71.608.28.144.583.216.913.216.33 0 .635-.072.912-.216.278-.144.515-.347.712-.608.198-.26.35-.573.456-.936.107-.363.16-.768.16-1.216 0-.448-.053-.856-.16-1.224-.106-.368-.258-.685-.456-.952-.197-.267-.434-.472-.712-.616-.277-.144-.58-.216-.912-.216-.33 0-.634.072-.912.216-.276.144-.513.35-.71.616-.198.267-.35.584-.457.952-.106.368-.16.776-.16 1.224zm8.783 5.184c0 .416.2.747.6.992.4.245.952.368 1.656.368.374 0 .713-.045 1.017-.136.304-.09.562-.208.776-.352.213-.144.378-.312.496-.504.116-.192.175-.39.175-.592 0-.363-.134-.613-.4-.752-.267-.14-.656-.208-1.168-.208h-1.344c-.15 0-.312-.008-.488-.024s-.35-.05-.52-.104c-.278.203-.48.416-.608.64-.128.224-.192.448-.192.672zm-1.152.176c0-.33.1-.645.304-.944.202-.3.48-.57.832-.816v-.064c-.193-.117-.356-.28-.49-.488-.133-.208-.2-.467-.2-.776 0-.33.09-.62.273-.864.18-.245.373-.437.576-.576v-.064c-.257-.213-.49-.5-.697-.856-.208-.357-.312-.77-.312-1.24 0-.427.078-.81.233-1.152.154-.34.365-.632.632-.872.266-.24.578-.424.936-.552.358-.128.734-.192 1.13-.192.212 0 .412.02.6.056.185.037.353.083.503.136h2.704v1.008h-1.6c.18.18.333.41.456.688.122.277.184.58.184.912 0 .416-.075.792-.224 1.128-.15.336-.352.62-.608.848-.256.23-.558.408-.904.536-.346.128-.717.192-1.11.192-.193 0-.39-.024-.593-.072-.203-.048-.395-.115-.576-.2-.138.117-.255.248-.35.392-.097.144-.145.323-.145.536 0 .245.096.448.288.608.192.16.554.24 1.088.24h1.505c.906 0 1.586.147 2.04.44.453.293.68.765.68 1.416 0 .363-.09.707-.272 1.032-.182.325-.443.61-.784.856-.343.245-.756.44-1.24.584-.487.144-1.033.216-1.64.216-.48 0-.92-.045-1.313-.136-.395-.09-.734-.227-1.016-.408-.282-.18-.5-.4-.655-.656-.155-.256-.232-.555-.232-.896zm3.216-4.832c.223 0 .433-.043.63-.128.198-.085.374-.208.53-.368.153-.16.273-.355.36-.584.084-.23.127-.488.127-.776 0-.576-.16-1.02-.48-1.336-.32-.315-.71-.472-1.168-.472-.46 0-.85.157-1.17.472-.32.315-.48.76-.48 1.336 0 .288.043.547.13.776.084.23.204.424.36.584.153.16.33.283.527.368.197.085.408.128.632.128zm6.332 4.656c0 .416.2.747.6.992.4.245.952.368 1.656.368.373 0 .712-.045 1.016-.136.304-.09.563-.208.776-.352.213-.144.38-.312.496-.504.117-.192.176-.39.176-.592 0-.363-.133-.613-.4-.752-.267-.14-.656-.208-1.168-.208h-1.344c-.15 0-.312-.008-.488-.024s-.35-.05-.52-.104c-.277.203-.48.416-.608.64-.128.224-.192.448-.192.672zm-1.152.176c0-.33.1-.645.304-.944.203-.3.48-.57.832-.816v-.064c-.192-.117-.355-.28-.488-.488-.133-.208-.2-.467-.2-.776 0-.33.09-.62.272-.864.18-.245.373-.437.576-.576v-.064c-.256-.213-.488-.5-.696-.856-.208-.357-.312-.77-.312-1.24 0-.427.077-.81.232-1.152.155-.34.365-.632.632-.872s.58-.424.936-.552c.357-.128.733-.192 1.128-.192.213 0 .413.02.6.056.187.037.355.083.504.136h2.704v1.008h-1.6c.18.18.333.41.456.688.123.277.184.58.184.912 0 .416-.075.792-.224 1.128-.15.336-.352.62-.608.848-.256.23-.557.408-.904.536-.347.128-.717.192-1.112.192-.192 0-.39-.024-.592-.072-.203-.048-.395-.115-.576-.2-.14.117-.256.248-.352.392-.096.144-.144.323-.144.536 0 .245.096.448.288.608.192.16.555.24 1.088.24h1.504c.907 0 1.587.147 2.04.44.453.293.68.765.68 1.416 0 .363-.09.707-.272 1.032-.18.325-.443.61-.784.856-.34.245-.755.44-1.24.584-.485.144-1.032.216-1.64.216-.48 0-.917-.045-1.312-.136-.395-.09-.733-.227-1.016-.408-.283-.18-.5-.4-.656-.656-.155-.256-.232-.555-.232-.896zm3.216-4.832c.224 0 .435-.043.632-.128s.373-.208.528-.368c.155-.16.275-.355.36-.584.085-.23.128-.488.128-.776 0-.576-.16-1.02-.48-1.336-.32-.315-.71-.472-1.168-.472-.46 0-.848.157-1.168.472-.32.315-.48.76-.48 1.336 0 .288.043.547.128.776.085.23.205.424.36.584.155.16.33.283.528.368.197.085.408.128.632.128zm5.773-8.048h1.31v9.92c0 .213.04.363.113.448.075.085.16.128.256.128h.12c.037 0 .093-.01.167-.032l.176.992c-.085.043-.186.075-.304.096-.118.02-.267.032-.45.032-.5 0-.857-.15-1.07-.448-.214-.3-.32-.736-.32-1.312v-9.824zm3.837 7.52c0-.64.098-1.213.296-1.72.197-.507.458-.936.784-1.288.325-.352.696-.62 1.112-.808.415-.187.847-.28 1.295-.28.49 0 .93.085 1.32.256.39.17.714.416.976.736s.462.704.6 1.152c.14.448.21.95.21 1.504 0 .288-.017.528-.05.72h-5.247c.053.843.312 1.51.776 2 .463.49 1.068.736 1.815.736.373 0 .717-.056 1.032-.168.314-.112.616-.26.904-.44l.465.864c-.342.213-.72.4-1.136.56-.417.16-.892.24-1.425.24-.523 0-1.01-.093-1.464-.28-.453-.187-.847-.453-1.183-.8-.336-.347-.6-.77-.792-1.272-.192-.5-.288-1.072-.288-1.712zm5.44-.592c0-.8-.168-1.41-.504-1.832-.336-.42-.808-.632-1.416-.632-.278 0-.542.056-.792.168-.25.112-.478.272-.68.48-.203.208-.37.464-.504.768-.133.304-.22.653-.263 1.048h4.16zm2.845.592c0-.63.093-1.197.28-1.704.187-.507.435-.936.744-1.288.31-.352.667-.624 1.072-.816.405-.192.832-.288 1.28-.288.448 0 .837.08 1.168.24.33.16.667.38 1.008.656L502 326.6v-2.992h1.328V335h-1.088l-.112-.912h-.048c-.31.3-.664.557-1.064.776-.4.22-.83.328-1.288.328-.98 0-1.763-.352-2.344-1.056-.58-.704-.872-1.707-.872-3.008zm1.36-.016c0 .94.187 1.67.56 2.192.373.523.9.784 1.584.784.363 0 .704-.088 1.024-.264.32-.176.64-.445.96-.808v-4.064c-.33-.3-.648-.51-.952-.632-.304-.123-.616-.184-.936-.184-.31 0-.6.072-.872.216-.272.144-.51.347-.712.608-.203.26-.363.573-.48.936-.117.363-.176.768-.176 1.216zm-44.976 16.112h1.328v4.752c0 .736.115 1.267.344 1.592.23.325.6.488 1.112.488.405 0 .763-.104 1.072-.312.31-.208.65-.54 1.024-1v-5.52h1.312V355H458l-.112-1.216h-.048c-.363.427-.744.768-1.144 1.024-.4.256-.872.384-1.416.384-.832 0-1.437-.256-1.816-.768-.38-.512-.568-1.27-.568-2.272v-4.928zm9.15 0h1.087l.112 1.12h.048c.374-.373.766-.685 1.176-.936.41-.25.887-.376 1.43-.376.823 0 1.423.256 1.8.768.38.512.57 1.27.57 2.272V355h-1.313v-4.752c0-.736-.117-1.267-.352-1.592-.234-.325-.608-.488-1.12-.488-.405 0-.762.1-1.072.304-.31.203-.66.5-1.056.896V355h-1.312v-7.776zm9.31 1.072h-1.153v-.992l1.216-.08.16-2.176h1.103v2.176h2.096v1.072h-2.097v4.32c0 .48.088.85.264 1.112.176.26.488.392.936.392.138 0 .288-.02.448-.064.16-.043.305-.09.433-.144l.256.992c-.215.075-.447.14-.697.2-.25.06-.5.088-.744.088-.417 0-.767-.064-1.05-.192-.282-.128-.51-.304-.687-.528-.176-.224-.302-.496-.376-.816-.075-.32-.112-.672-.112-1.056v-4.304zm4.78 2.832c0-.65.1-1.23.296-1.736.197-.507.46-.936.792-1.288.33-.352.712-.62 1.144-.8.432-.18.888-.272 1.368-.272.48 0 .936.09 1.368.272.432.18.813.448 1.144.8.33.352.595.78.792 1.288.197.507.296 1.085.296 1.736 0 .64-.1 1.213-.296 1.72-.197.507-.46.933-.792 1.28-.33.347-.712.61-1.144.792-.432.18-.888.272-1.368.272-.48 0-.936-.09-1.368-.272-.432-.18-.813-.445-1.144-.792-.33-.347-.595-.773-.792-1.28-.197-.507-.296-1.08-.296-1.72zm1.36 0c0 .448.053.853.16 1.216.107.363.26.675.456.936.197.26.435.464.712.608.277.144.58.216.912.216.33 0 .635-.072.912-.216.277-.144.515-.347.712-.608.197-.26.35-.573.456-.936.107-.363.16-.768.16-1.216 0-.448-.053-.856-.16-1.224-.107-.368-.26-.685-.456-.952-.197-.267-.435-.472-.712-.616-.277-.144-.58-.216-.912-.216-.33 0-.635.072-.912.216-.277.144-.515.35-.712.616-.197.267-.35.584-.456.952-.107.368-.16.776-.16 1.224zm8.78 5.184c0 .416.2.747.6.992.4.245.953.368 1.657.368.374 0 .712-.045 1.016-.136.303-.09.562-.208.775-.352.214-.144.38-.312.496-.504.12-.192.177-.39.177-.592 0-.363-.133-.613-.4-.752-.266-.14-.656-.208-1.168-.208h-1.345c-.15 0-.312-.008-.488-.024s-.35-.05-.52-.104c-.277.203-.48.416-.608.64-.13.224-.193.448-.193.672zm-1.15.176c0-.33.1-.645.303-.944.202-.3.48-.57.83-.816v-.064c-.19-.117-.353-.28-.487-.488-.133-.208-.2-.467-.2-.776 0-.33.09-.62.272-.864.182-.245.374-.437.576-.576v-.064c-.255-.213-.487-.5-.695-.856-.208-.357-.312-.77-.312-1.24 0-.427.078-.81.232-1.152.155-.34.366-.632.632-.872.267-.24.58-.424.936-.552.358-.128.734-.192 1.128-.192.215 0 .415.02.6.056.188.037.356.083.505.136h2.704v1.008h-1.6c.18.18.333.41.455.688.123.277.184.58.184.912 0 .416-.075.792-.225 1.128-.15.336-.352.62-.608.848-.256.23-.557.408-.904.536-.346.128-.717.192-1.112.192-.19 0-.388-.024-.59-.072-.203-.048-.395-.115-.577-.2-.138.117-.256.248-.352.392-.095.144-.143.323-.143.536 0 .245.096.448.288.608.192.16.555.24 1.088.24h1.504c.907 0 1.587.147 2.04.44.454.293.68.765.68 1.416 0 .363-.09.707-.272 1.032-.18.325-.442.61-.784.856-.34.245-.753.44-1.24.584-.484.144-1.03.216-1.64.216-.48 0-.916-.045-1.31-.136-.395-.09-.734-.227-1.017-.408-.282-.18-.5-.4-.656-.656-.154-.256-.232-.555-.232-.896zm3.215-4.832c.225 0 .436-.043.633-.128.198-.085.374-.208.528-.368.156-.16.276-.355.36-.584.087-.23.13-.488.13-.776 0-.576-.16-1.02-.48-1.336-.32-.315-.71-.472-1.17-.472-.457 0-.847.157-1.167.472-.32.315-.48.76-.48 1.336 0 .288.043.547.128.776.087.23.207.424.36.584.156.16.332.283.53.368.197.085.407.128.63.128zm6.335 4.656c0 .416.2.747.6.992.4.245.952.368 1.656.368.374 0 .713-.045 1.017-.136.304-.09.562-.208.776-.352.213-.144.378-.312.496-.504.116-.192.175-.39.175-.592 0-.363-.134-.613-.4-.752-.267-.14-.656-.208-1.168-.208h-1.344c-.15 0-.312-.008-.488-.024s-.35-.05-.52-.104c-.278.203-.48.416-.608.64-.128.224-.192.448-.192.672zm-1.152.176c0-.33.1-.645.304-.944.202-.3.48-.57.832-.816v-.064c-.193-.117-.356-.28-.49-.488-.133-.208-.2-.467-.2-.776 0-.33.09-.62.273-.864.18-.245.373-.437.576-.576v-.064c-.257-.213-.49-.5-.697-.856-.208-.357-.312-.77-.312-1.24 0-.427.078-.81.233-1.152.154-.34.365-.632.632-.872.266-.24.578-.424.936-.552.358-.128.734-.192 1.13-.192.212 0 .412.02.6.056.185.037.353.083.503.136h2.704v1.008h-1.6c.18.18.333.41.456.688.122.277.184.58.184.912 0 .416-.075.792-.224 1.128-.15.336-.352.62-.608.848-.256.23-.558.408-.904.536-.346.128-.717.192-1.11.192-.193 0-.39-.024-.593-.072-.203-.048-.395-.115-.576-.2-.138.117-.255.248-.35.392-.097.144-.145.323-.145.536 0 .245.096.448.288.608.192.16.554.24 1.088.24h1.505c.906 0 1.586.147 2.04.44.453.293.68.765.68 1.416 0 .363-.09.707-.272 1.032-.182.325-.443.61-.784.856-.343.245-.756.44-1.24.584-.487.144-1.033.216-1.64.216-.48 0-.92-.045-1.313-.136-.395-.09-.734-.227-1.016-.408-.282-.18-.5-.4-.655-.656-.155-.256-.232-.555-.232-.896zm3.216-4.832c.223 0 .433-.043.63-.128.198-.085.374-.208.53-.368.153-.16.273-.355.36-.584.084-.23.127-.488.127-.776 0-.576-.16-1.02-.48-1.336-.32-.315-.71-.472-1.168-.472-.46 0-.85.157-1.17.472-.32.315-.48.76-.48 1.336 0 .288.043.547.13.776.084.23.204.424.36.584.153.16.33.283.527.368.197.085.408.128.632.128zm5.772-8.048h1.312v9.92c0 .213.037.363.112.448.075.085.16.128.256.128h.12c.037 0 .093-.01.168-.032l.176.992c-.085.043-.187.075-.304.096-.117.02-.267.032-.448.032-.5 0-.86-.15-1.072-.448-.213-.3-.32-.736-.32-1.312v-9.824zm3.837 7.52c0-.64.098-1.213.295-1.72.198-.507.46-.936.784-1.288.325-.352.695-.62 1.11-.808.417-.187.85-.28 1.297-.28.49 0 .93.085 1.32.256.39.17.715.416.976.736.262.32.462.704.6 1.152.14.448.208.95.208 1.504 0 .288-.015.528-.047.72h-5.248c.054.843.312 1.51.776 2 .465.49 1.07.736 1.817.736.374 0 .718-.056 1.032-.168.314-.112.615-.26.903-.44l.464.864c-.34.213-.72.4-1.136.56-.415.16-.89.24-1.423.24-.522 0-1.01-.093-1.464-.28-.453-.187-.848-.453-1.184-.8-.337-.347-.6-.77-.793-1.272-.192-.5-.288-1.072-.288-1.712zm5.44-.592c0-.8-.17-1.41-.505-1.832-.336-.42-.808-.632-1.416-.632-.278 0-.542.056-.793.168-.25.112-.477.272-.68.48-.202.208-.37.464-.504.768-.133.304-.22.653-.264 1.048h4.16zm2.845.592c0-.63.093-1.197.28-1.704.186-.507.434-.936.744-1.288.308-.352.665-.624 1.07-.816.406-.192.833-.288 1.28-.288.45 0 .838.08 1.17.24.33.16.665.38 1.007.656l-.064-1.328v-2.992h1.328V355h-1.087l-.112-.912h-.047c-.31.3-.664.557-1.064.776-.4.22-.83.328-1.29.328-.98 0-1.762-.352-2.343-1.056-.582-.704-.872-1.707-.872-3.008zm1.36-.016c0 .94.186 1.67.56 2.192.373.523.9.784 1.584.784.36 0 .703-.088 1.023-.264.32-.176.64-.445.96-.808v-4.064c-.33-.3-.648-.51-.952-.632-.303-.123-.615-.184-.935-.184-.31 0-.6.072-.872.216-.272.144-.51.347-.712.608-.202.26-.362.573-.48.936-.117.363-.175.768-.175 1.216zM535.312 307.224h1.088l.112 1.12h.048c.34-.373.712-.685 1.112-.936.4-.25.835-.376 1.304-.376.597 0 1.064.13 1.4.392.336.26.584.627.744 1.096.405-.448.813-.808 1.224-1.08.41-.272.856-.408 1.336-.408.8 0 1.395.256 1.784.768.39.512.584 1.27.584 2.272V315h-1.312v-4.752c0-.736-.117-1.267-.352-1.592-.235-.325-.597-.488-1.088-.488-.587 0-1.237.4-1.952 1.2V315h-1.312v-4.752c0-.736-.117-1.267-.352-1.592-.235-.325-.603-.488-1.104-.488-.587 0-1.237.4-1.952 1.2V315h-1.312v-7.776zm13.018 3.904c0-.65.1-1.23.296-1.736.197-.507.46-.936.792-1.288.33-.352.712-.62 1.144-.8.432-.18.888-.272 1.368-.272.48 0 .936.09 1.368.272.432.18.813.448 1.144.8.33.352.595.78.792 1.288.197.507.296 1.085.296 1.736 0 .64-.1 1.213-.296 1.72-.197.507-.46.933-.792 1.28-.33.347-.712.61-1.144.792-.432.18-.888.272-1.368.272-.48 0-.936-.09-1.368-.272-.432-.18-.813-.445-1.144-.792-.33-.347-.595-.773-.792-1.28-.197-.507-.296-1.08-.296-1.72zm1.36 0c0 .448.053.853.16 1.216.107.363.26.675.456.936.197.26.435.464.712.608.277.144.58.216.912.216.33 0 .635-.072.912-.216.277-.144.515-.347.712-.608.197-.26.35-.573.456-.936.107-.363.16-.768.16-1.216 0-.448-.053-.856-.16-1.224-.107-.368-.26-.685-.456-.952-.197-.267-.435-.472-.712-.616-.277-.144-.58-.216-.912-.216-.33 0-.635.072-.912.216-.277.144-.515.35-.712.616-.197.267-.35.584-.456.952-.107.368-.16.776-.16 1.224zm7.658 0c0-.63.093-1.197.28-1.704.187-.507.435-.936.744-1.288.31-.352.667-.624 1.072-.816.405-.192.832-.288 1.28-.288.448 0 .837.08 1.168.24.33.16.667.38 1.008.656l-.064-1.328v-2.992h1.328V315h-1.088l-.112-.912h-.048c-.31.3-.664.557-1.064.776-.4.22-.83.328-1.288.328-.98 0-1.763-.352-2.344-1.056-.58-.704-.872-1.707-.872-3.008zm1.36-.016c0 .94.187 1.67.56 2.192.373.523.9.784 1.584.784.363 0 .704-.088 1.024-.264.32-.176.64-.445.96-.808v-4.064c-.33-.3-.648-.51-.952-.632-.304-.123-.616-.184-.936-.184-.31 0-.6.072-.872.216-.272.144-.51.347-.712.608-.203.26-.363.573-.48.936-.117.363-.176.768-.176 1.216zm9.082-5.488c-.256 0-.472-.08-.648-.24-.176-.16-.264-.363-.264-.608 0-.256.088-.46.264-.616.176-.155.392-.232.648-.232s.472.077.648.232c.176.155.264.36.264.616 0 .245-.088.448-.264.608-.176.16-.392.24-.648.24zm-.672 1.6h1.312V315h-1.312v-7.776zm7.77-2.544c-.288-.128-.58-.192-.88-.192-.725 0-1.088.5-1.088 1.504v1.232h1.648v1.072h-1.648V315h-1.312v-6.704h-1.056v-.992l1.056-.08v-1.232c0-.8.184-1.43.552-1.888.368-.46.94-.688 1.72-.688.245 0 .477.024.696.072.22.048.42.11.6.184l-.288 1.008zm2.17.944c-.256 0-.472-.08-.648-.24-.176-.16-.264-.363-.264-.608 0-.256.088-.46.264-.616.176-.155.392-.232.648-.232s.472.077.648.232c.176.155.264.36.264.616 0 .245-.088.448-.264.608-.176.16-.392.24-.648.24zm-.672 1.6h1.312V315h-1.312v-7.776zm3.69 3.904c0-.64.1-1.213.296-1.72.197-.507.46-.936.784-1.288.325-.352.696-.62 1.112-.808.416-.187.848-.28 1.296-.28.49 0 .93.085 1.32.256.39.17.715.416.976.736.26.32.46.704.6 1.152.14.448.208.95.208 1.504 0 .288-.016.528-.048.72h-5.248c.053.843.312 1.51.776 2s1.07.736 1.816.736c.373 0 .717-.056 1.032-.168.315-.112.616-.26.904-.44l.464.864c-.34.213-.72.4-1.136.56-.416.16-.89.24-1.424.24-.523 0-1.01-.093-1.464-.28-.453-.187-.848-.453-1.184-.8-.336-.347-.6-.77-.792-1.272-.192-.5-.288-1.072-.288-1.712zm5.44-.592c0-.8-.168-1.41-.504-1.832-.336-.42-.808-.632-1.416-.632-.277 0-.54.056-.792.168-.25.112-.477.272-.68.48-.203.208-.37.464-.504.768-.133.304-.22.653-.264 1.048h4.16zm3.402-3.312h1.088l.112 1.408h.048c.267-.49.59-.88.968-1.168.38-.288.792-.432 1.24-.432.31 0 .587.053.832.16l-.256 1.152c-.128-.043-.245-.075-.352-.096-.107-.02-.24-.032-.4-.032-.33 0-.675.133-1.032.4s-.67.73-.936 1.392V315h-1.312v-7.776zm5.514 6.016c.34.277.69.5 1.048.672.357.17.77.256 1.24.256.512 0 .896-.117 1.152-.352.256-.235.384-.523.384-.864 0-.203-.053-.38-.16-.528-.107-.15-.243-.28-.408-.392-.165-.112-.355-.21-.568-.296l-.64-.256c-.277-.096-.555-.205-.832-.328-.277-.123-.525-.272-.744-.448-.22-.176-.397-.38-.536-.616-.14-.235-.208-.517-.208-.848 0-.31.06-.6.184-.872.123-.272.3-.507.528-.704.23-.197.51-.352.84-.464.33-.112.704-.168 1.12-.168.49 0 .94.085 1.352.256.41.17.765.38 1.064.624l-.624.832c-.267-.203-.544-.368-.832-.496-.288-.128-.603-.192-.944-.192-.49 0-.85.112-1.08.336-.23.224-.344.485-.344.784 0 .18.048.34.144.472.096.133.224.25.384.352.16.1.344.192.552.272l.648.248c.277.107.557.22.84.336.283.117.536.264.76.44.224.176.408.392.552.648.144.256.216.565.216.928 0 .32-.06.62-.184.896-.123.277-.304.523-.544.736-.24.213-.54.38-.896.504-.357.123-.765.184-1.224.184-.555 0-1.083-.1-1.584-.304-.5-.203-.94-.46-1.312-.768l.656-.88zm6.97-4.816c0-.31.093-.557.28-.744.187-.187.413-.28.68-.28.256 0 .477.093.664.28.187.187.28.435.28.744 0 .288-.093.525-.28.712-.187.187-.408.28-.664.28-.267 0-.493-.093-.68-.28-.187-.187-.28-.424-.28-.712zm0 5.776c0-.31.093-.557.28-.744.187-.187.413-.28.68-.28.256 0 .477.093.664.28.187.187.28.435.28.744 0 .288-.093.525-.28.712-.187.187-.408.28-.664.28-.267 0-.493-.093-.68-.28-.187-.187-.28-.424-.28-.712zm-55.404 9.408h1.312v3.104l-.032 1.408c.352-.31.736-.568 1.152-.776.416-.208.843-.312 1.28-.312.5 0 .944.093 1.328.28.384.187.707.453.968.8.26.347.46.763.592 1.248.133.485.2 1.027.2 1.624 0 .66-.09 1.253-.272 1.776-.18.523-.427.965-.736 1.328-.31.363-.667.637-1.072.824-.405.187-.832.28-1.28.28-.363 0-.74-.083-1.128-.248-.39-.165-.755-.403-1.096-.712h-.048l-.112.768h-1.056v-11.392zm1.312 9.664c.34.3.68.51 1.016.632.336.123.632.184.888.184.32 0 .616-.072.888-.216.272-.144.507-.347.704-.608.197-.26.352-.584.464-.968.112-.384.168-.816.168-1.296 0-.427-.037-.816-.112-1.168-.075-.352-.195-.653-.36-.904-.165-.25-.38-.445-.64-.584-.26-.14-.573-.208-.936-.208-.63 0-1.323.352-2.08 1.056v4.08zm7.29-.288c0-.853.38-1.507 1.144-1.96.763-.453 1.976-.77 3.64-.952 0-.245-.024-.485-.072-.72-.048-.235-.133-.443-.256-.624-.123-.18-.285-.328-.488-.44-.203-.112-.464-.168-.784-.168-.46 0-.883.085-1.272.256-.39.17-.74.363-1.048.576l-.528-.912c.363-.235.805-.46 1.328-.68.523-.22 1.1-.328 1.728-.328.95 0 1.637.29 2.064.872.427.58.64 1.357.64 2.328V335h-1.088l-.112-.928h-.032c-.373.31-.776.573-1.208.792-.432.22-.888.328-1.368.328-.66 0-1.208-.192-1.64-.576-.432-.384-.648-.928-.648-1.632zm1.296-.096c0 .448.13.768.392.96.26.192.584.288.968.288.373 0 .728-.088 1.064-.264.336-.176.69-.435 1.064-.776v-2.16c-.65.085-1.2.187-1.648.304-.448.117-.808.256-1.08.416-.272.16-.467.344-.584.552-.117.208-.176.435-.176.68zm7.402.352c.34.277.69.5 1.048.672.357.17.77.256 1.24.256.512 0 .896-.117 1.152-.352.256-.235.384-.523.384-.864 0-.203-.053-.38-.16-.528-.107-.15-.243-.28-.408-.392-.165-.112-.355-.21-.568-.296l-.64-.256c-.277-.096-.555-.205-.832-.328-.277-.123-.525-.272-.744-.448-.22-.176-.397-.38-.536-.616-.14-.235-.208-.517-.208-.848 0-.31.06-.6.184-.872.123-.272.3-.507.528-.704.23-.197.51-.352.84-.464.33-.112.704-.168 1.12-.168.49 0 .94.085 1.352.256.41.17.765.38 1.064.624l-.624.832c-.267-.203-.544-.368-.832-.496-.288-.128-.603-.192-.944-.192-.49 0-.85.112-1.08.336-.23.224-.344.485-.344.784 0 .18.048.34.144.472.096.133.224.25.384.352.16.1.344.192.552.272l.648.248c.277.107.557.22.84.336.283.117.536.264.76.44.224.176.408.392.552.648.144.256.216.565.216.928 0 .32-.06.62-.184.896-.123.277-.304.523-.544.736-.24.213-.54.38-.896.504-.357.123-.765.184-1.224.184-.555 0-1.083-.1-1.584-.304-.5-.203-.94-.46-1.312-.768l.656-.88zm6.666-2.112c0-.64.1-1.213.296-1.72.197-.507.46-.936.784-1.288.325-.352.696-.62 1.112-.808.416-.187.848-.28 1.296-.28.49 0 .93.085 1.32.256.39.17.715.416.976.736.26.32.46.704.6 1.152.14.448.208.95.208 1.504 0 .288-.016.528-.048.72h-5.248c.053.843.312 1.51.776 2s1.07.736 1.816.736c.373 0 .717-.056 1.032-.168.315-.112.616-.26.904-.44l.464.864c-.34.213-.72.4-1.136.56-.416.16-.89.24-1.424.24-.523 0-1.01-.093-1.464-.28-.453-.187-.848-.453-1.184-.8-.336-.347-.6-.77-.792-1.272-.192-.5-.288-1.072-.288-1.712zm5.44-.592c0-.8-.168-1.41-.504-1.832-.336-.42-.808-.632-1.416-.632-.277 0-.54.056-.792.168-.25.112-.477.272-.68.48-.203.208-.37.464-.504.768-.133.304-.22.653-.264 1.048h4.16zm-29.406 13.072h1.312v3.104l-.048 1.6c.373-.352.763-.653 1.168-.904.405-.25.88-.376 1.424-.376.82 0 1.42.256 1.8.768.38.512.568 1.27.568 2.272V355h-1.312v-4.752c0-.736-.117-1.267-.352-1.592-.235-.325-.608-.488-1.12-.488-.405 0-.763.1-1.072.304-.31.203-.66.5-1.056.896V355h-1.312v-11.392zm8.458 7.52c0-.65.1-1.23.296-1.736.197-.507.46-.936.792-1.288.33-.352.712-.62 1.144-.8.432-.18.888-.272 1.368-.272.48 0 .936.09 1.368.272.432.18.813.448 1.144.8.33.352.595.78.792 1.288.197.507.296 1.085.296 1.736 0 .64-.1 1.213-.296 1.72-.197.507-.46.933-.792 1.28-.33.347-.712.61-1.144.792-.432.18-.888.272-1.368.272-.48 0-.936-.09-1.368-.272-.432-.18-.813-.445-1.144-.792-.33-.347-.595-.773-.792-1.28-.197-.507-.296-1.08-.296-1.72zm1.36 0c0 .448.053.853.16 1.216.107.363.26.675.456.936.197.26.435.464.712.608.277.144.58.216.912.216.33 0 .635-.072.912-.216.277-.144.515-.347.712-.608.197-.26.35-.573.456-.936.107-.363.16-.768.16-1.216 0-.448-.053-.856-.16-1.224-.107-.368-.26-.685-.456-.952-.197-.267-.435-.472-.712-.616-.277-.144-.58-.216-.912-.216-.33 0-.635.072-.912.216-.277.144-.515.35-.712.616-.197.267-.35.584-.456.952-.107.368-.16.776-.16 1.224zm7.034-3.904h1.36l1.472 4.416c.117.384.237.768.36 1.152.123.384.243.763.36 1.136h.064c.117-.373.235-.752.352-1.136l.352-1.152 1.472-4.416h1.296L567.186 355h-1.536l-2.8-7.776zm8.282 3.904c0-.64.1-1.213.296-1.72.197-.507.46-.936.784-1.288.325-.352.696-.62 1.112-.808.416-.187.848-.28 1.296-.28.49 0 .93.085 1.32.256.39.17.715.416.976.736.26.32.46.704.6 1.152.14.448.208.95.208 1.504 0 .288-.016.528-.048.72h-5.248c.053.843.312 1.51.776 2s1.07.736 1.816.736c.373 0 .717-.056 1.032-.168.315-.112.616-.26.904-.44l.464.864c-.34.213-.72.4-1.136.56-.416.16-.89.24-1.424.24-.523 0-1.01-.093-1.464-.28-.453-.187-.848-.453-1.184-.8-.336-.347-.6-.77-.792-1.272-.192-.5-.288-1.072-.288-1.712zm5.44-.592c0-.8-.168-1.41-.504-1.832-.336-.42-.808-.632-1.416-.632-.277 0-.54.056-.792.168-.25.112-.477.272-.68.48-.203.208-.37.464-.504.768-.133.304-.22.653-.264 1.048h4.16zm3.402-3.312h1.088l.112 1.408h.048c.267-.49.59-.88.968-1.168.38-.288.792-.432 1.24-.432.31 0 .587.053.832.16l-.256 1.152c-.128-.043-.245-.075-.352-.096-.107-.02-.24-.032-.4-.032-.33 0-.675.133-1.032.4s-.67.73-.936 1.392V355h-1.312v-7.776zm-35.526 23.904c0-.63.093-1.197.28-1.704.187-.507.435-.936.744-1.288.31-.352.667-.624 1.072-.816.405-.192.832-.288 1.28-.288.448 0 .837.08 1.168.24.33.16.667.38 1.008.656l-.064-1.328v-2.992h1.328V375h-1.088l-.112-.912h-.048c-.31.3-.664.557-1.064.776-.4.22-.83.328-1.288.328-.98 0-1.763-.352-2.344-1.056-.58-.704-.872-1.707-.872-3.008zm1.36-.016c0 .94.187 1.67.56 2.192.373.523.9.784 1.584.784.363 0 .704-.088 1.024-.264.32-.176.64-.445.96-.808v-4.064c-.33-.3-.648-.51-.952-.632-.304-.123-.616-.184-.936-.184-.31 0-.6.072-.872.216-.272.144-.51.347-.712.608-.203.26-.363.573-.48.936-.117.363-.176.768-.176 1.216zm8.752-5.488c-.256 0-.472-.08-.648-.24-.176-.16-.264-.363-.264-.608 0-.256.088-.46.264-.616.176-.155.392-.232.648-.232s.472.077.648.232c.176.155.264.36.264.616 0 .245-.088.448-.264.608-.176.16-.392.24-.648.24zm-.672 1.6h1.312V375h-1.312v-7.776zm3.728 6.016c.34.277.69.5 1.048.672.357.17.77.256 1.24.256.512 0 .896-.117 1.152-.352.256-.235.384-.523.384-.864 0-.203-.053-.38-.16-.528-.107-.15-.243-.28-.408-.392-.165-.112-.355-.21-.568-.296l-.64-.256c-.277-.096-.555-.205-.832-.328-.277-.123-.525-.272-.744-.448-.22-.176-.397-.38-.536-.616-.14-.235-.208-.517-.208-.848 0-.31.06-.6.184-.872.123-.272.3-.507.528-.704.23-.197.51-.352.84-.464.33-.112.704-.168 1.12-.168.49 0 .94.085 1.352.256.41.17.765.38 1.064.624l-.624.832c-.267-.203-.544-.368-.832-.496-.288-.128-.603-.192-.944-.192-.49 0-.85.112-1.08.336-.23.224-.344.485-.344.784 0 .18.048.34.144.472.096.133.224.25.384.352.16.1.344.192.552.272l.648.248c.277.107.557.22.84.336.283.117.536.264.76.44.224.176.408.392.552.648.144.256.216.565.216.928 0 .32-.06.62-.184.896-.123.277-.304.523-.544.736-.24.213-.54.38-.896.504-.357.123-.765.184-1.224.184-.555 0-1.083-.1-1.584-.304-.5-.203-.94-.46-1.312-.768l.656-.88zm6.528-.256c0-.853.38-1.507 1.144-1.96.763-.453 1.976-.77 3.64-.952 0-.245-.024-.485-.072-.72-.048-.235-.133-.443-.256-.624-.123-.18-.285-.328-.488-.44-.203-.112-.464-.168-.784-.168-.46 0-.883.085-1.272.256-.39.17-.74.363-1.048.576l-.528-.912c.363-.235.805-.46 1.328-.68.523-.22 1.1-.328 1.728-.328.95 0 1.637.29 2.064.872.427.58.64 1.357.64 2.328V375h-1.088l-.112-.928h-.032c-.373.31-.776.573-1.208.792-.432.22-.888.328-1.368.328-.66 0-1.208-.192-1.64-.576-.432-.384-.648-.928-.648-1.632zm1.296-.096c0 .448.13.768.392.96.26.192.584.288.968.288.373 0 .728-.088 1.064-.264.336-.176.69-.435 1.064-.776v-2.16c-.65.085-1.2.187-1.648.304-.448.117-.808.256-1.08.416-.272.16-.467.344-.584.552-.117.208-.176.435-.176.68zm7.28-9.28h1.312v3.104L574 368.12c.352-.31.736-.568 1.152-.776.416-.208.843-.312 1.28-.312.5 0 .944.093 1.328.28.384.187.707.453.968.8.26.347.46.763.592 1.248.133.485.2 1.027.2 1.624 0 .66-.09 1.253-.272 1.776-.18.523-.427.965-.736 1.328-.31.363-.667.637-1.072.824-.405.187-.832.28-1.28.28-.363 0-.74-.083-1.128-.248-.39-.165-.755-.403-1.096-.712h-.048l-.112.768h-1.056v-11.392zm1.312 9.664c.34.3.68.51 1.016.632.336.123.632.184.888.184.32 0 .616-.072.888-.216.272-.144.507-.347.704-.608.197-.26.352-.584.464-.968.112-.384.168-.816.168-1.296 0-.427-.037-.816-.112-1.168-.075-.352-.195-.653-.36-.904-.165-.25-.38-.445-.64-.584-.26-.14-.573-.208-.936-.208-.63 0-1.323.352-2.08 1.056v4.08zm7.568-9.664h1.312v9.92c0 .213.037.363.112.448.075.085.16.128.256.128h.12c.037 0 .093-.01.168-.032l.176.992c-.085.043-.187.075-.304.096-.117.02-.267.032-.448.032-.5 0-.86-.15-1.072-.448-.213-.3-.32-.736-.32-1.312v-9.824zm3.504 7.52c0-.64.1-1.213.296-1.72.197-.507.46-.936.784-1.288.325-.352.696-.62 1.112-.808.416-.187.848-.28 1.296-.28.49 0 .93.085 1.32.256.39.17.715.416.976.736.26.32.46.704.6 1.152.14.448.208.95.208 1.504 0 .288-.016.528-.048.72H586.4c.053.843.312 1.51.776 2s1.07.736 1.816.736c.373 0 .717-.056 1.032-.168.315-.112.616-.26.904-.44l.464.864c-.34.213-.72.4-1.136.56-.416.16-.89.24-1.424.24-.523 0-1.01-.093-1.464-.28-.453-.187-.848-.453-1.184-.8-.336-.347-.6-.77-.792-1.272-.192-.5-.288-1.072-.288-1.712zm5.44-.592c0-.8-.168-1.41-.504-1.832-.336-.42-.808-.632-1.416-.632-.277 0-.54.056-.792.168-.25.112-.477.272-.68.48-.203.208-.37.464-.504.768-.133.304-.22.653-.264 1.048h4.16zm2.512.592c0-.63.093-1.197.28-1.704.187-.507.435-.936.744-1.288.31-.352.667-.624 1.072-.816.405-.192.832-.288 1.28-.288.448 0 .837.08 1.168.24.33.16.667.38 1.008.656l-.064-1.328v-2.992h1.328V375h-1.088l-.112-.912h-.048c-.31.3-.664.557-1.064.776-.4.22-.83.328-1.288.328-.98 0-1.763-.352-2.344-1.056-.58-.704-.872-1.707-.872-3.008zm1.36-.016c0 .94.187 1.67.56 2.192.373.523.9.784 1.584.784.363 0 .704-.088 1.024-.264.32-.176.64-.445.96-.808v-4.064c-.33-.3-.648-.51-.952-.632-.304-.123-.616-.184-.936-.184-.31 0-.6.072-.872.216-.272.144-.51.347-.712.608-.203.26-.363.573-.48.936-.117.363-.176.768-.176 1.216zM313.88 301c0-.387.117-.697.35-.93.233-.233.517-.35.85-.35.32 0 .597.117.83.35.233.233.35.543.35.93 0 .36-.117.657-.35.89-.233.233-.51.35-.83.35-.333 0-.617-.117-.85-.35-.233-.233-.35-.53-.35-.89zm6.7 0c0-.387.117-.697.35-.93.233-.233.517-.35.85-.35.32 0 .597.117.83.35.233.233.35.543.35.93 0 .36-.117.657-.35.89-.233.233-.51.35-.83.35-.333 0-.617-.117-.85-.35-.233-.233-.35-.53-.35-.89zm6.7 0c0-.387.117-.697.35-.93.233-.233.517-.35.85-.35.32 0 .597.117.83.35.233.233.35.543.35.93 0 .36-.117.657-.35.89-.233.233-.51.35-.83.35-.333 0-.617-.117-.85-.35-.233-.233-.35-.53-.35-.89zm5.313 0c0-.387.117-.697.35-.93.234-.233.517-.35.85-.35.32 0 .597.117.83.35.234.233.35.543.35.93 0 .36-.116.657-.35.89-.233.233-.51.35-.83.35-.333 0-.616-.117-.85-.35-.233-.233-.35-.53-.35-.89z" fill="#777"/>
      <path d="M55.65 56.07c0-1.56.205-2.97.615-4.23.41-1.26.985-2.335 1.725-3.225.74-.89 1.63-1.57 2.67-2.04s2.19-.705 3.45-.705c1.14 0 2.15.24 3.03.72.88.48 1.58 1.03 2.1 1.65l-.84.9c-.52-.6-1.14-1.085-1.86-1.455-.72-.37-1.53-.555-2.43-.555-1.08 0-2.055.21-2.925.63-.87.42-1.61 1.015-2.22 1.785-.61.77-1.075 1.705-1.395 2.805-.32 1.1-.48 2.34-.48 3.72 0 1.38.16 2.625.48 3.735.32 1.11.78 2.055 1.38 2.835.6.78 1.325 1.385 2.175 1.815.85.43 1.805.645 2.865.645 1.02 0 1.925-.2 2.715-.6.79-.4 1.545-1.01 2.265-1.83l.84.87c-.76.88-1.61 1.57-2.55 2.07-.94.5-2.05.75-3.33.75-1.22 0-2.34-.24-3.36-.72s-1.895-1.165-2.625-2.055c-.73-.89-1.295-1.97-1.695-3.24-.4-1.27-.6-2.695-.6-4.275zm17.163 2.76c0-1.2.175-2.275.525-3.225.35-.95.82-1.745 1.41-2.385.59-.64 1.275-1.13 2.055-1.47.78-.34 1.6-.51 2.46-.51.86 0 1.685.17 2.475.51.79.34 1.48.83 2.07 1.47.59.64 1.06 1.435 1.41 2.385.35.95.525 2.025.525 3.225 0 1.2-.175 2.265-.525 3.195-.35.93-.82 1.715-1.41 2.355-.59.64-1.28 1.13-2.07 1.47-.79.34-1.615.51-2.475.51-.86 0-1.68-.17-2.46-.51-.78-.34-1.465-.83-2.055-1.47-.59-.64-1.06-1.425-1.41-2.355-.35-.93-.525-1.995-.525-3.195zm1.38 0c0 .94.13 1.8.39 2.58s.615 1.45 1.065 2.01c.45.56.985.995 1.605 1.305.62.31 1.29.465 2.01.465.72 0 1.395-.155 2.025-.465.63-.31 1.17-.745 1.62-1.305.45-.56.805-1.23 1.065-2.01.26-.78.39-1.64.39-2.58 0-.96-.13-1.83-.39-2.61-.26-.78-.615-1.455-1.065-2.025-.45-.57-.99-1.01-1.62-1.32-.63-.31-1.305-.465-2.025-.465s-1.39.155-2.01.465c-.62.31-1.155.75-1.605 1.32-.45.57-.805 1.245-1.065 2.025-.26.78-.39 1.65-.39 2.61zm16.204-7.23h1.14l.12 2.22h.09c.64-.74 1.355-1.355 2.145-1.845s1.585-.735 2.385-.735c1.16 0 2.05.265 2.67.795.62.53 1.06 1.245 1.32 2.145.84-.9 1.655-1.615 2.445-2.145.79-.53 1.605-.795 2.445-.795 2.88 0 4.32 1.84 4.32 5.52V66h-1.35v-9.06c0-1.54-.26-2.675-.78-3.405s-1.33-1.095-2.43-1.095c-1.3 0-2.74.9-4.32 2.7V66h-1.32v-9.06c0-1.54-.26-2.675-.78-3.405s-1.34-1.095-2.46-1.095c-1.3 0-2.74.9-4.32 2.7V66h-1.32V51.6zm26.013 12.99v7.92h-1.32V51.6h1.14l.12 1.8h.09c.7-.56 1.465-1.06 2.295-1.5.83-.44 1.695-.66 2.595-.66 1.92 0 3.36.665 4.32 1.995.96 1.33 1.44 3.115 1.44 5.355 0 1.22-.17 2.31-.51 3.27-.34.96-.805 1.775-1.395 2.445-.59.67-1.27 1.18-2.04 1.53-.77.35-1.575.525-2.415.525-.68 0-1.38-.155-2.1-.465-.72-.31-1.46-.745-2.22-1.305zm0-1.26c.84.68 1.62 1.16 2.34 1.44.72.28 1.36.42 1.92.42.72 0 1.39-.16 2.01-.48.62-.32 1.15-.77 1.59-1.35.44-.58.785-1.275 1.035-2.085.25-.81.375-1.705.375-2.685 0-.88-.085-1.7-.255-2.46-.17-.76-.435-1.415-.795-1.965-.36-.55-.83-.98-1.41-1.29-.58-.31-1.28-.465-2.1-.465-.72 0-1.465.205-2.235.615-.77.41-1.595.995-2.475 1.755v8.55zm14.133-4.5c0-1.2.175-2.275.525-3.225.35-.95.82-1.745 1.41-2.385.59-.64 1.275-1.13 2.055-1.47.78-.34 1.6-.51 2.46-.51.86 0 1.685.17 2.475.51.79.34 1.48.83 2.07 1.47.59.64 1.06 1.435 1.41 2.385.35.95.525 2.025.525 3.225 0 1.2-.175 2.265-.525 3.195-.35.93-.82 1.715-1.41 2.355-.59.64-1.28 1.13-2.07 1.47-.79.34-1.615.51-2.475.51-.86 0-1.68-.17-2.46-.51-.78-.34-1.465-.83-2.055-1.47-.59-.64-1.06-1.425-1.41-2.355-.35-.93-.525-1.995-.525-3.195zm1.38 0c0 .94.13 1.8.39 2.58s.615 1.45 1.065 2.01c.45.56.985.995 1.605 1.305.62.31 1.29.465 2.01.465.72 0 1.395-.155 2.025-.465.63-.31 1.17-.745 1.62-1.305.45-.56.805-1.23 1.065-2.01.26-.78.39-1.64.39-2.58 0-.96-.13-1.83-.39-2.61-.26-.78-.615-1.455-1.065-2.025-.45-.57-.99-1.01-1.62-1.32-.63-.31-1.305-.465-2.025-.465s-1.39.155-2.01.465c-.62.31-1.155.75-1.605 1.32-.45.57-.805 1.245-1.065 2.025-.26.78-.39 1.65-.39 2.61zm16.204-7.23h1.14l.12 2.22h.09c.74-.74 1.5-1.355 2.28-1.845.78-.49 1.67-.735 2.67-.735 1.5 0 2.6.45 3.3 1.35.7.9 1.05 2.29 1.05 4.17V66h-1.32v-9.06c0-1.54-.255-2.675-.765-3.405s-1.355-1.095-2.535-1.095c-.86 0-1.64.225-2.34.675-.7.45-1.49 1.125-2.37 2.025V66h-1.32V51.6zm15.093 7.23c0-1.18.175-2.24.525-3.18.35-.94.82-1.735 1.41-2.385.59-.65 1.26-1.15 2.01-1.5.75-.35 1.525-.525 2.325-.525 1.72 0 3.07.58 4.05 1.74.98 1.16 1.47 2.8 1.47 4.92v.54c0 .18-.02.36-.06.54h-10.38c.02.9.16 1.735.42 2.505.26.77.625 1.43 1.095 1.98s1.035.98 1.695 1.29c.66.31 1.4.465 2.22.465.78 0 1.485-.115 2.115-.345.63-.23 1.215-.545 1.755-.945l.54 1.02c-.58.34-1.215.66-1.905.96-.69.3-1.565.45-2.625.45-.92 0-1.785-.17-2.595-.51-.81-.34-1.515-.835-2.115-1.485-.6-.65-1.075-1.44-1.425-2.37-.35-.93-.525-1.985-.525-3.165zm10.53-.87c0-1.86-.38-3.255-1.14-4.185-.76-.93-1.79-1.395-3.09-1.395-.62 0-1.21.13-1.77.39s-1.065.63-1.515 1.11c-.45.48-.82 1.065-1.11 1.755-.29.69-.475 1.465-.555 2.325h9.18zm5.493-6.36h1.14l.12 2.22h.09c.74-.74 1.5-1.355 2.28-1.845.78-.49 1.67-.735 2.67-.735 1.5 0 2.6.45 3.3 1.35.7.9 1.05 2.29 1.05 4.17V66h-1.32v-9.06c0-1.54-.255-2.675-.765-3.405s-1.355-1.095-2.535-1.095c-.86 0-1.64.225-2.34.675-.7.45-1.49 1.125-2.37 2.025V66h-1.32V51.6zm16.624 1.14h-2.25v-1.02l2.28-.12.18-4.17h1.14v4.17h4.17v1.14h-4.17v9.39c0 .46.035.875.105 1.245.07.37.195.69.375.96s.425.48.735.63c.31.15.715.225 1.215.225.28 0 .585-.045.915-.135.33-.09.625-.195.885-.315l.36 1.08c-.42.16-.84.29-1.26.39-.42.1-.78.15-1.08.15-.7 0-1.28-.105-1.74-.315-.46-.21-.83-.505-1.11-.885-.28-.38-.475-.84-.585-1.38-.11-.54-.165-1.13-.165-1.77v-9.27zm20.076-5.31h-6.3v-1.2h13.98v1.2h-6.3V66h-1.38V47.43zm11.644-3h1.32v9.42c.76-.76 1.53-1.385 2.31-1.875s1.67-.735 2.67-.735c1.5 0 2.6.45 3.3 1.35.7.9 1.05 2.29 1.05 4.17V66h-1.32v-9.06c0-1.54-.255-2.675-.765-3.405s-1.355-1.095-2.535-1.095c-.86 0-1.64.225-2.34.675-.7.45-1.49 1.125-2.37 2.025V66h-1.32V44.43zm14.973 14.4c0-1.18.175-2.24.525-3.18.35-.94.82-1.735 1.41-2.385.59-.65 1.26-1.15 2.01-1.5.75-.35 1.525-.525 2.325-.525 1.72 0 3.07.58 4.05 1.74.98 1.16 1.47 2.8 1.47 4.92v.54c0 .18-.02.36-.06.54h-10.38c.02.9.16 1.735.42 2.505.26.77.625 1.43 1.095 1.98s1.035.98 1.695 1.29c.66.31 1.4.465 2.22.465.78 0 1.485-.115 2.115-.345.63-.23 1.215-.545 1.755-.945l.54 1.02c-.58.34-1.215.66-1.905.96-.69.3-1.565.45-2.625.45-.92 0-1.785-.17-2.595-.51-.81-.34-1.515-.835-2.115-1.485-.6-.65-1.075-1.44-1.425-2.37-.35-.93-.525-1.985-.525-3.165zm10.53-.87c0-1.86-.38-3.255-1.14-4.185-.76-.93-1.79-1.395-3.09-1.395-.62 0-1.21.13-1.77.39s-1.065.63-1.515 1.11c-.45.48-.82 1.065-1.11 1.755-.29.69-.475 1.465-.555 2.325h9.18zm5.493-6.36h1.14l.12 2.22h.09c.64-.74 1.355-1.355 2.145-1.845s1.585-.735 2.385-.735c1.16 0 2.05.265 2.67.795.62.53 1.06 1.245 1.32 2.145.84-.9 1.655-1.615 2.445-2.145.79-.53 1.605-.795 2.445-.795 2.88 0 4.32 1.84 4.32 5.52V66h-1.35v-9.06c0-1.54-.26-2.675-.78-3.405s-1.33-1.095-2.43-1.095c-1.3 0-2.74.9-4.32 2.7V66h-1.32v-9.06c0-1.54-.26-2.675-.78-3.405s-1.34-1.095-2.46-1.095c-1.3 0-2.74.9-4.32 2.7V66h-1.32V51.6zm25.384-3.48c-.34 0-.625-.11-.855-.33-.23-.22-.345-.5-.345-.84 0-.38.115-.675.345-.885.23-.21.515-.315.855-.315.34 0 .625.105.855.315.23.21.345.505.345.885 0 .34-.115.62-.345.84-.23.22-.515.33-.855.33zm-.69 3.48h1.32V66h-1.32V51.6zm7.203 0h1.14l.12 2.22h.09c.74-.74 1.5-1.355 2.28-1.845.78-.49 1.67-.735 2.67-.735 1.5 0 2.6.45 3.3 1.35.7.9 1.05 2.29 1.05 4.17V66h-1.32v-9.06c0-1.54-.255-2.675-.765-3.405s-1.355-1.095-2.535-1.095c-.86 0-1.64.225-2.34.675-.7.45-1.49 1.125-2.37 2.025V66h-1.32V51.6zm16.353 17.22c0 .9.415 1.63 1.245 2.19.83.56 2.015.84 3.555.84.8 0 1.53-.105 2.19-.315.66-.21 1.22-.485 1.68-.825.46-.34.815-.725 1.065-1.155.25-.43.375-.875.375-1.335 0-.8-.285-1.365-.855-1.695-.57-.33-1.395-.495-2.475-.495h-3.09c-.16 0-.405-.015-.735-.045-.33-.03-.685-.095-1.065-.195-.66.46-1.14.95-1.44 1.47-.3.52-.45 1.04-.45 1.56zm-1.26.12c0-.64.19-1.26.57-1.86.38-.6.9-1.14 1.56-1.62v-.12c-.36-.22-.66-.52-.9-.9s-.36-.85-.36-1.41c0-.64.18-1.185.54-1.635.36-.45.7-.785 1.02-1.005v-.12c-.46-.4-.875-.94-1.245-1.62-.37-.68-.555-1.46-.555-2.34 0-.74.13-1.42.39-2.04.26-.62.62-1.155 1.08-1.605.46-.45 1-.8 1.62-1.05.62-.25 1.28-.375 1.98-.375.4 0 .76.035 1.08.105.32.07.59.155.81.255h4.89v1.11h-3.36c.46.4.84.915 1.14 1.545.3.63.45 1.325.45 2.085 0 .74-.13 1.42-.39 2.04-.26.62-.615 1.155-1.065 1.605-.45.45-.98.8-1.59 1.05-.61.25-1.265.375-1.965.375-.4 0-.815-.05-1.245-.15-.43-.1-.815-.25-1.155-.45-.32.26-.595.55-.825.87-.23.32-.345.72-.345 1.2 0 .52.19.965.57 1.335.38.37 1.11.555 2.19.555h3.09c1.62 0 2.815.265 3.585.795s1.155 1.365 1.155 2.505c0 .62-.16 1.225-.48 1.815-.32.59-.775 1.11-1.365 1.56-.59.45-1.305.81-2.145 1.08-.84.27-1.78.405-2.82.405-1.82 0-3.26-.36-4.32-1.08-1.06-.72-1.59-1.69-1.59-2.91zm5.7-8.58c.5 0 .975-.095 1.425-.285.45-.19.845-.465 1.185-.825.34-.36.61-.79.81-1.29.2-.5.3-1.05.3-1.65 0-.6-.1-1.15-.3-1.65-.2-.5-.465-.92-.795-1.26-.33-.34-.725-.605-1.185-.795-.46-.19-.94-.285-1.44-.285-.52 0-1.005.095-1.455.285-.45.19-.845.455-1.185.795-.34.34-.61.755-.81 1.245-.2.49-.3 1.045-.3 1.665 0 .6.1 1.15.3 1.65.2.5.475.93.825 1.29s.75.635 1.2.825c.45.19.925.285 1.425.285z" fill="#710ECC"/>
    </g>
  </g>
</svg>
