<svg width="304" height="167" viewBox="0 0 304 167" xmlns="http://www.w3.org/2000/svg">
  <title>
    compodoc-on
  </title>
  <g fill="none" fill-rule="evenodd">
    <g>
      <path stroke="#979797" d="M.5.5h303v166H.5z"/>
      <g fill-rule="nonzero">
        <g>
          <path fill="#F03949" d="M159.942 20.385l-32.515 89.336 17.07 6.215L177.015 26.6"/>
          <path d="M151.323 70.623c3.536 1.287 7.446-.537 8.733-4.074 1.287-3.538-.535-7.448-4.07-8.735-3.536-1.287-7.446.537-8.733 4.074-1.287 3.536.535 7.447 4.07 8.733" fill="#F78F22"/>
          <path fill="#1A3A5C" d="M155.52 32.538l-2.75 7.554 17.07 6.213 2.75-7.554"/>
          <path d="M135.962 112.828l2.63-7.226 8.536 3.107-2.63 7.225-8.536-3.107m3.945-10.838l3.643-10.217 8.59 2.75-6.196 16.2-7.94-3.715m5.61-15.2l.955-2.628 8.535 3.107-.956 2.628-8.537-3.107m2.27-6.24l5.44-14.945c3.536 1.287 7.446-.537 8.733-4.074 1.287-3.538-.535-7.448-4.07-8.735l5.32-14.616 8.535 3.105-16.935 46.326-8.633-2.84" fill="#E73440"/>
          <path fill="#3F1928" d="M135.436 87.716l-1.315 3.613 17.072 6.212 1.315-3.613M133.284 93.628l-1.315 3.613 17.07 6.214 1.316-3.613"/>
          <path d="M164.055 35.644l.717-1.97 8.536 3.107-.717 1.97-8.535-3.106m2.032-5.583l2.39-6.568 8.537 3.107-2.39 6.568-8.537-3.107" fill="#E73440"/>
          <path fill="#E73440" d="M166.087 30.06l-1.315 3.614 8.536 3.107 1.315-3.612"/>
          <path fill="#183452" d="M164.055 35.644l-2.75 7.555 8.536 3.105 2.75-7.554"/>
        </g>
        <g>
          <path fill="#5CC0AE" d="M76.498 68.088l35.59-35.59 8.752 8.753-35.59 35.59z"/>
          <path fill="#F1C40F" d="M85.034 59.48l35.59 35.59-8.753 8.752-35.59-35.59z"/>
        </g>
        <g>
          <path fill="#F03949" d="M219.354 59.4l-35.59 35.574 8.755 8.75 35.59-35.573"/>
          <path fill="#3498DB" d="M192.483 32.587l35.59 35.59-8.753 8.752-35.59-35.59z"/>
        </g>
        <g fill="#000">
          <path d="M105.232 133.337c-.092.118-.185.21-.277.277-.084.067-.21.1-.377.1-.16 0-.315-.045-.466-.138-.15-.1-.33-.21-.54-.327-.21-.126-.462-.235-.756-.328-.285-.1-.642-.15-1.07-.15-.545 0-1.023.1-1.434.3-.41.194-.755.475-1.032.844-.268.37-.47.817-.604 1.346-.134.52-.2 1.11-.2 1.773 0 .688.07 1.3.213 1.836.15.538.364.99.64 1.36.277.36.613.637 1.007.83.394.184.84.276 1.334.276.496 0 .894-.058 1.196-.176.31-.125.57-.26.78-.402.21-.15.39-.285.542-.403.16-.125.335-.188.528-.188.252 0 .44.096.566.29l.894 1.13c-.344.403-.718.743-1.12 1.02-.403.268-.822.486-1.26.654-.426.16-.87.273-1.332.34-.453.067-.906.1-1.36.1-.796 0-1.547-.146-2.252-.44-.704-.3-1.32-.737-1.85-1.307-.528-.57-.947-1.266-1.257-2.088-.302-.83-.453-1.773-.453-2.83 0-.947.134-1.824.402-2.63.277-.812.68-1.512 1.208-2.1.53-.594 1.183-1.06 1.963-1.395.78-.335 1.678-.503 2.693-.503.964 0 1.807.155 2.53.465.73.31 1.383.755 1.962 1.333l-.818 1.132M113.59 130.407c.957 0 1.825.155 2.605.465.79.31 1.46.75 2.014 1.32.56.57.993 1.267 1.295 2.09.302.82.453 1.74.453 2.753 0 1.023-.15 1.945-.453 2.767-.302.822-.734 1.522-1.296 2.1-.555.58-1.226 1.023-2.015 1.334-.78.31-1.648.465-2.604.465-.964 0-1.84-.154-2.63-.464-.788-.31-1.463-.755-2.025-1.334-.554-.578-.986-1.278-1.296-2.1-.303-.822-.454-1.744-.454-2.767 0-1.014.15-1.933.453-2.754.31-.82.74-1.517 1.295-2.087.562-.57 1.237-1.01 2.026-1.32.79-.31 1.666-.466 2.63-.466m0 10.904c1.074 0 1.867-.36 2.38-1.08.52-.72.78-1.778.78-3.17s-.26-2.452-.78-3.182c-.513-.73-1.306-1.094-2.38-1.094-1.09 0-1.9.37-2.428 1.107-.52.73-.78 1.787-.78 3.17 0 1.384.26 2.44.78 3.17.53.72 1.338 1.08 2.43 1.08M122.33 143.512v-12.904h1.9c.4 0 .665.19.79.566l.203.956c.226-.252.46-.482.704-.692.252-.21.516-.39.793-.54.285-.152.587-.27.906-.353.327-.092.684-.138 1.07-.138.813 0 1.48.222 2 .666.53.436.923 1.02 1.183 1.75.2-.43.452-.794.754-1.096.302-.31.633-.56.994-.754.36-.193.742-.336 1.145-.428.41-.092.822-.138 1.233-.138.713 0 1.346.11 1.9.327.554.218 1.02.537 1.397.956.377.42.662.93.855 1.534.202.604.302 1.296.302 2.075v8.212h-3.108V135.3c0-.822-.18-1.44-.54-1.85-.36-.42-.89-.628-1.586-.628-.32 0-.617.054-.893.163-.27.11-.508.27-.718.478-.2.2-.36.457-.478.767-.117.31-.176.667-.176 1.07v8.212h-3.12V135.3c0-.864-.176-1.493-.528-1.887-.344-.394-.85-.59-1.522-.59-.453 0-.877.112-1.27.338-.387.22-.748.52-1.083.907v9.445h-3.108M143.414 147.726v-17.118h1.9c.403 0 .667.19.793.566l.252 1.195c.52-.596 1.114-1.08 1.786-1.447.68-.37 1.472-.554 2.378-.554.704 0 1.346.146 1.925.44.586.293 1.09.72 1.51 1.282.427.554.754 1.24.98 2.063.235.813.353 1.748.353 2.805 0 .964-.13 1.857-.39 2.68-.26.82-.634 1.533-1.12 2.137-.48.603-1.062 1.077-1.75 1.42-.68.336-1.442.504-2.29.504-.73 0-1.35-.108-1.862-.326-.502-.226-.955-.537-1.358-.93v5.282h-3.108m6.04-14.904c-.646 0-1.2.138-1.66.415-.454.268-.877.65-1.272 1.144v5.787c.353.436.734.742 1.145.918.42.168.873.25 1.36.25.47 0 .893-.087 1.27-.263.378-.176.696-.444.956-.805.27-.36.474-.813.617-1.358.143-.554.214-1.204.214-1.95 0-.755-.063-1.392-.19-1.912-.116-.528-.288-.956-.515-1.283-.227-.327-.504-.566-.83-.717-.32-.15-.685-.226-1.096-.226M163.43 130.407c.956 0 1.824.155 2.605.465.788.31 1.46.75 2.013 1.32.562.57.994 1.267 1.296 2.09.302.82.453 1.74.453 2.753 0 1.023-.15 1.945-.453 2.767-.302.822-.734 1.522-1.296 2.1-.554.58-1.225 1.023-2.013 1.334-.78.31-1.65.465-2.605.465-.965 0-1.84-.154-2.63-.464-.788-.31-1.464-.755-2.026-1.334-.553-.578-.985-1.278-1.296-2.1-.302-.822-.453-1.744-.453-2.767 0-1.014.15-1.933.453-2.754.31-.82.743-1.517 1.296-2.087.562-.57 1.238-1.01 2.026-1.32.79-.31 1.665-.466 2.63-.466m0 10.904c1.074 0 1.866-.36 2.378-1.08.52-.72.78-1.778.78-3.17s-.26-2.452-.78-3.182c-.512-.73-1.304-1.094-2.378-1.094-1.09 0-1.9.37-2.428 1.107-.52.73-.78 1.787-.78 3.17 0 1.384.26 2.44.78 3.17.528.72 1.337 1.08 2.428 1.08"/>
        </g>
        <g fill="#000">
          <path d="M181.808 143.327c-.218 0-.344-.11-.377-.327l-.125-1.974c-.554.754-1.2 1.354-1.938 1.798-.738.445-1.568.667-2.49.667-1.545 0-2.744-.532-3.6-1.597-.855-1.064-1.283-2.662-1.283-4.79 0-.915.117-1.766.352-2.555.243-.796.596-1.484 1.057-2.062.46-.587 1.028-1.048 1.7-1.384.678-.335 1.458-.503 2.34-.503.846 0 1.58.158 2.2.477.622.31 1.163.767 1.624 1.37v-7.42h1.196v18.3h-.655m-4.592-.805c.822 0 1.568-.214 2.24-.64.68-.43 1.283-1.028 1.81-1.8v-6.565c-.477-.72-1.01-1.228-1.597-1.522-.58-.302-1.242-.453-1.99-.453-.737 0-1.383.135-1.937.403-.553.268-1.02.65-1.396 1.144-.37.486-.65 1.073-.843 1.76-.185.68-.277 1.43-.277 2.252 0 1.86.34 3.232 1.02 4.112.687.872 1.677 1.308 2.97 1.308M191.542 130.612c.897 0 1.698.155 2.403.465.713.302 1.313.734 1.8 1.295.486.562.855 1.24 1.107 2.038.26.788.39 1.673.39 2.654 0 .98-.13 1.865-.39 2.654-.252.788-.62 1.463-1.108 2.025-.486.56-1.086.993-1.8 1.295-.704.302-1.505.453-2.402.453-.898 0-1.703-.15-2.416-.452-.705-.302-1.304-.734-1.8-1.295-.486-.562-.86-1.237-1.12-2.025-.25-.79-.377-1.673-.377-2.654 0-.98.125-1.866.377-2.654.26-.797.633-1.476 1.12-2.038.495-.56 1.094-.993 1.8-1.295.712-.31 1.517-.465 2.415-.465m0 11.935c.746 0 1.397-.125 1.95-.377.562-.26 1.028-.63 1.397-1.107.376-.478.657-1.052.842-1.723.184-.68.277-1.438.277-2.276 0-.83-.094-1.585-.278-2.264-.185-.68-.466-1.258-.843-1.736-.37-.486-.836-.86-1.398-1.12-.553-.26-1.204-.39-1.95-.39-.747 0-1.4.13-1.963.39-.555.26-1.02.634-1.398 1.12-.37.478-.65 1.057-.843 1.736-.185.68-.278 1.434-.278 2.264 0 .838.093 1.597.277 2.276.192.67.473 1.245.842 1.723.378.478.843.847 1.397 1.107.56.252 1.215.377 1.962.377M209.06 132.486c-.043.042-.085.08-.127.113-.033.024-.083.037-.15.037-.084 0-.198-.055-.34-.164-.143-.117-.336-.243-.58-.377-.242-.134-.55-.256-.918-.365-.36-.116-.8-.175-1.32-.175-.722 0-1.364.13-1.926.39-.555.25-1.024.616-1.41 1.094-.386.477-.68 1.056-.88 1.735-.194.68-.29 1.442-.29 2.29 0 .88.1 1.66.302 2.338.21.68.503 1.254.88 1.723.378.46.835.814 1.372 1.057.537.243 1.132.364 1.787.364.605 0 1.108-.07 1.51-.213.412-.143.747-.298 1.007-.466.27-.167.478-.323.63-.465.15-.143.276-.214.377-.214.1 0 .184.04.25.125l.316.402c-.193.252-.436.487-.73.705-.293.218-.625.406-.994.566-.37.16-.772.28-1.208.364-.428.093-.876.14-1.346.14-.797 0-1.527-.144-2.19-.43-.654-.292-1.22-.712-1.698-1.257-.47-.553-.84-1.228-1.107-2.025-.26-.796-.39-1.702-.39-2.716 0-.956.125-1.828.377-2.616s.62-1.468 1.107-2.038c.488-.57 1.08-1.01 1.775-1.32.705-.32 1.51-.478 2.416-.478.815 0 1.536.13 2.166.39.63.26 1.178.612 1.648 1.056l-.315.428"/>
        </g>
      </g>
    </g>
  </g>
</svg>
