<svg width="304" height="167" viewBox="0 0 304 167" xmlns="http://www.w3.org/2000/svg">
  <title>
    compodoc-off
  </title>
  <g fill="none" fill-rule="evenodd">
    <g fill-rule="nonzero">
      <g>
        <path fill="#C5C5C5" d="M159.86 21.112l-32.48 89.238 17.033 6.2 32.48-89.238"/>
        <path d="M151.24 71.292c3.528 1.284 7.43-.54 8.717-4.073 1.286-3.534-.532-7.44-4.06-8.723-3.527-1.284-7.43.54-8.715 4.073-1.286 3.533.53 7.438 4.06 8.722" fill="#292929"/>
        <path fill="#757575" d="M155.44 33.25l-2.745 7.547 17.034 6.2 2.745-7.546"/>
        <path d="M135.896 113.45l2.628-7.218 8.516 3.1-2.627 7.218-8.517-3.1m3.94-10.827l3.64-10.204 8.572 2.743-6.19 16.182-7.92-3.708m5.6-15.184l.956-2.625 8.517 3.1-.954 2.625-8.517-3.1m2.268-6.234l5.433-14.928c3.528 1.284 7.43-.54 8.717-4.073 1.286-3.534-.532-7.44-4.06-8.723l5.315-14.6 8.517 3.1-16.92 46.275-8.613-2.835" fill="#A4A4A4"/>
        <path fill="#272727" d="M135.38 88.37l-1.313 3.608 17.033 6.2 1.314-3.61M133.23 94.274l-1.313 3.61 17.034 6.2 1.315-3.61"/>
        <path d="M163.958 36.35l.717-1.967 8.517 3.1-.717 1.968-8.517-3.1m2.03-5.576l2.388-6.562 8.517 3.1-2.388 6.562-8.517-3.1" fill="#A4A4A4"/>
        <path fill="#A4A4A4" d="M165.988 30.774l-1.313 3.61 8.517 3.1 1.313-3.61"/>
        <path fill="#545454" d="M163.958 36.35l-2.746 7.547 8.517 3.1 2.745-7.546"/>
      </g>
      <g>
        <path fill="#B6B4B4" d="M76.503 68.78l35.55-35.55 8.733 8.73-35.55 35.552z"/>
        <path fill="#E6E5E2" d="M85.02 60.15l35.55 35.55-8.733 8.733-35.55-35.55z"/>
      </g>
      <g>
        <path fill="#ACA9A9" d="M219.196 60.09l-35.55 35.496 8.746 8.732 35.55-35.496"/>
        <path fill="#D7D7D7" d="M192.35 33.317l35.55 35.55-8.732 8.733-35.55-35.55z"/>
      </g>
      <g fill="#000">
        <path d="M105.2 133.865c-.092.117-.185.21-.277.276-.083.068-.21.1-.377.1-.16 0-.314-.045-.465-.137-.15-.1-.33-.21-.54-.326-.21-.126-.46-.234-.753-.326-.285-.1-.64-.15-1.07-.15-.543 0-1.02.1-1.432.3-.41.194-.754.474-1.03.842-.268.368-.47.816-.604 1.343-.133.52-.2 1.108-.2 1.77 0 .685.072 1.296.214 1.832.15.535.364.987.64 1.355.278.36.613.636 1.007.828.394.184.838.276 1.333.276.494 0 .892-.058 1.194-.175.31-.125.57-.26.78-.4.21-.152.39-.286.54-.403.16-.125.335-.188.528-.188.25 0 .44.095.565.288l.893 1.13c-.344.4-.717.74-1.12 1.016-.4.267-.82.485-1.256.652-.427.16-.87.272-1.332.34-.453.066-.905.1-1.358.1-.796 0-1.546-.147-2.25-.44-.703-.3-1.32-.736-1.847-1.305-.528-.568-.947-1.262-1.257-2.082-.302-.828-.453-1.77-.453-2.824 0-.945.134-1.82.403-2.623.276-.81.678-1.51 1.206-2.094.527-.594 1.18-1.06 1.96-1.393.78-.335 1.676-.502 2.69-.502.963 0 1.805.155 2.526.465.73.31 1.383.753 1.96 1.33l-.816 1.13M113.55 130.94c.955 0 1.822.155 2.6.465.79.31 1.46.75 2.012 1.318.562.57.993 1.263 1.295 2.083.302.82.452 1.736.452 2.748 0 1.02-.15 1.94-.453 2.76-.302.82-.733 1.52-1.295 2.097-.553.578-1.223 1.022-2.01 1.33-.78.31-1.647.466-2.602.466-.964 0-1.84-.155-2.627-.465-.788-.308-1.463-.752-2.024-1.33-.554-.576-.986-1.275-1.296-2.095-.3-.82-.452-1.74-.452-2.76 0-1.013.15-1.93.452-2.75.31-.82.742-1.513 1.295-2.082.56-.57 1.235-1.008 2.023-1.318.787-.31 1.663-.464 2.627-.464m0 10.88c1.072 0 1.864-.36 2.375-1.078.52-.72.78-1.774.78-3.163 0-1.39-.26-2.448-.78-3.176-.51-.728-1.303-1.09-2.375-1.09-1.09 0-1.898.367-2.426 1.103-.52.728-.78 1.782-.78 3.162s.26 2.434.78 3.162c.528.72 1.336 1.08 2.426 1.08M122.278 144.017V131.14h1.898c.402.002.666.19.792.566l.2.954c.227-.25.462-.48.705-.69.25-.21.515-.39.79-.54.286-.15.588-.268.906-.35.326-.093.682-.14 1.068-.14.812 0 1.48.222 1.998.666.528.435.922 1.016 1.182 1.744.2-.426.452-.79.754-1.092.3-.31.632-.56.993-.753.36-.192.74-.334 1.143-.426.41-.093.822-.14 1.232-.14.712 0 1.345.11 1.898.327.553.218 1.018.535 1.395.954.377.42.662.93.855 1.532.2.602.302 1.292.302 2.07v8.195h-3.105v-8.195c0-.82-.18-1.434-.54-1.844-.36-.42-.89-.628-1.584-.628-.317 0-.615.055-.89.163-.27.11-.508.268-.718.477-.2.2-.36.456-.477.766-.118.31-.176.665-.176 1.066v8.195h-3.12v-8.195c0-.86-.175-1.49-.526-1.882-.344-.393-.85-.59-1.52-.59-.454 0-.877.113-1.27.34-.386.217-.746.518-1.082.903v9.424h-3.104M143.34 148.22v-17.08h1.898c.403.002.667.19.792.566l.252 1.192c.52-.594 1.114-1.075 1.784-1.443.68-.368 1.47-.552 2.376-.552.704 0 1.345.146 1.923.44.587.292 1.09.72 1.508 1.28.428.552.754 1.238.98 2.057.235.812.353 1.745.353 2.8 0 .96-.13 1.852-.39 2.672-.26.82-.633 1.53-1.12 2.133-.476.603-1.06 1.076-1.746 1.42-.678.333-1.44.5-2.287.5-.73 0-1.35-.108-1.86-.326-.503-.227-.956-.536-1.358-.93v5.27h-3.104m6.034-14.87c-.646 0-1.2.138-1.66.414-.452.268-.875.65-1.27 1.142v5.773c.353.434.734.74 1.145.915.418.168.87.25 1.356.25.47 0 .893-.087 1.27-.262.377-.176.695-.444.955-.804.27-.36.474-.812.617-1.356.142-.552.214-1.2.214-1.945 0-.754-.062-1.39-.188-1.91-.117-.526-.29-.952-.515-1.28-.227-.325-.503-.563-.83-.714-.318-.15-.683-.226-1.093-.226M163.334 130.94c.955 0 1.823.155 2.602.465.788.31 1.458.75 2.01 1.318.562.57.994 1.263 1.296 2.083.3.82.452 1.736.452 2.748 0 1.02-.15 1.94-.452 2.76-.302.82-.734 1.52-1.295 2.097-.553.578-1.223 1.022-2.01 1.33-.78.31-1.648.466-2.603.466-.963 0-1.84-.155-2.627-.465-.787-.308-1.462-.752-2.023-1.33-.553-.576-.985-1.275-1.295-2.095-.303-.82-.453-1.74-.453-2.76 0-1.013.15-1.93.452-2.75.31-.82.74-1.513 1.294-2.082.56-.57 1.236-1.008 2.023-1.318.788-.31 1.664-.464 2.627-.464m0 10.88c1.073 0 1.865-.36 2.376-1.078.52-.72.78-1.774.78-3.163 0-1.39-.26-2.448-.78-3.176-.51-.728-1.303-1.09-2.376-1.09-1.09 0-1.898.367-2.426 1.103-.52.728-.78 1.782-.78 3.162s.26 2.434.78 3.162c.528.72 1.337 1.08 2.426 1.08"/>
      </g>
      <g fill="#000">
        <path d="M181.692 143.833c-.218 0-.343-.11-.377-.327l-.125-1.97c-.553.753-1.2 1.35-1.936 1.795-.737.444-1.567.666-2.49.666-1.54 0-2.74-.532-3.593-1.594-.854-1.063-1.28-2.656-1.28-4.78 0-.913.116-1.763.35-2.55.243-.794.595-1.48 1.056-2.057.46-.586 1.027-1.046 1.697-1.38.68-.335 1.458-.502 2.338-.502.847 0 1.58.158 2.2.476.62.31 1.16.765 1.622 1.367v-7.404h1.194v18.26h-.654m-4.587-.804c.82 0 1.567-.214 2.237-.64.68-.427 1.282-1.025 1.81-1.795v-6.55c-.478-.72-1.01-1.227-1.596-1.52-.58-.3-1.24-.45-1.986-.45-.738 0-1.383.133-1.936.4-.553.268-1.018.65-1.395 1.142-.37.486-.65 1.07-.843 1.757-.185.678-.277 1.427-.277 2.247 0 1.858.34 3.226 1.018 4.104.688.87 1.676 1.305 2.967 1.305M191.415 131.145c.897 0 1.697.155 2.4.464.713.3 1.312.73 1.798 1.292.486.56.855 1.238 1.106 2.033.26.786.39 1.67.39 2.648 0 .98-.13 1.86-.39 2.648-.252.787-.62 1.46-1.107 2.02-.486.562-1.085.993-1.797 1.294-.704.3-1.504.452-2.4.452-.897 0-1.702-.15-2.414-.452-.704-.3-1.303-.732-1.797-1.293-.486-.56-.86-1.233-1.12-2.02-.25-.786-.376-1.668-.376-2.647 0-.98.125-1.862.376-2.648.26-.795.633-1.472 1.12-2.033.493-.56 1.092-.99 1.796-1.293.712-.31 1.517-.465 2.413-.465m0 11.91c.746 0 1.395-.126 1.948-.377.562-.26 1.027-.627 1.395-1.104.378-.477.658-1.05.843-1.72.185-.677.277-1.434.277-2.27 0-.83-.092-1.582-.276-2.26-.184-.678-.464-1.255-.842-1.732-.368-.485-.833-.857-1.395-1.117-.553-.26-1.202-.39-1.948-.39s-1.4.13-1.96.39c-.554.26-1.02.632-1.396 1.117-.37.477-.65 1.054-.843 1.732-.184.678-.276 1.43-.276 2.26 0 .836.093 1.593.277 2.27.193.67.474 1.243.842 1.72.376.477.84.845 1.394 1.104.562.25 1.215.377 1.96.377M208.913 133.015c-.04.042-.083.08-.125.113-.034.025-.084.038-.15.038-.085 0-.198-.055-.34-.164-.143-.117-.336-.242-.58-.376-.242-.134-.547-.255-.916-.364-.36-.117-.8-.176-1.32-.176-.72 0-1.362.13-1.923.39-.554.25-1.023.614-1.41 1.09-.384.478-.677 1.055-.878 1.733-.193.677-.29 1.438-.29 2.283 0 .878.1 1.656.302 2.334.21.678.503 1.25.88 1.72.377.46.834.81 1.37 1.054.536.243 1.13.365 1.785.365.602 0 1.105-.072 1.507-.214.41-.14.746-.296 1.005-.463.27-.167.478-.322.63-.464.15-.143.275-.214.376-.214.1 0 .184.04.25.125l.316.4c-.193.252-.436.487-.73.704-.293.217-.624.405-.992.564-.37.16-.77.28-1.207.364-.427.092-.876.138-1.345.138-.796 0-1.525-.142-2.187-.427-.653-.294-1.22-.712-1.697-1.256-.47-.552-.838-1.226-1.106-2.02-.26-.795-.39-1.7-.39-2.71 0-.955.126-1.825.378-2.61.25-.788.62-1.465 1.106-2.034.486-.57 1.077-1.008 1.772-1.318.704-.318 1.508-.477 2.413-.477.812 0 1.533.13 2.16.39.63.258 1.178.61 1.648 1.053l-.315.427"/>
      </g>
    </g>
    <path stroke="#979797" d="M.5.5h303v166H.5z"/>
  </g>
</svg>
