<svg width="304" height="167" viewBox="0 0 304 167" xmlns="http://www.w3.org/2000/svg">
  <title>
    github-off
  </title>
  <g fill="none" fill-rule="evenodd">
    <path stroke="#979797" d="M.5.5h303v166H.5z"/>
    <g fill="#5D5D5D">
      <path d="M99.916 80.42H85.118c-.38 0-.69.31-.69.693v7.248c0 .383.31.695.69.695h5.773v9.005s-1.295.442-4.88.442c-4.226 0-10.132-1.547-10.132-14.558 0-13.013 6.15-14.726 11.923-14.726 5 0 7.152.882 8.522 1.307.43.13.83-.298.83-.68l1.65-7.003c0-.18-.062-.395-.265-.54C97.98 61.9 94.587 60 86.01 60 76.134 60 66 64.21 66 84.452c0 20.24 11.6 23.257 21.378 23.257 8.094 0 13.005-3.466 13.005-3.466.202-.112.224-.396.224-.525V81.112c0-.383-.31-.693-.69-.693M175.447 61.47h-8.332c-.38 0-.69.31-.69.696l.003 16.13H153.44v-16.13c0-.386-.306-.697-.687-.697h-8.33c-.38 0-.69.31-.69.696v43.68c0 .384.31.698.69.698h8.33c.38 0 .687-.314.687-.7V87.163h12.988l-.023 18.683c0 .385.31.7.69.7h8.35c.383 0 .688-.315.69-.7v-43.68c0-.385-.306-.696-.688-.696zM115.855 68.374c0-3.006-2.404-5.435-5.372-5.435-2.965 0-5.372 2.428-5.372 5.434 0 3.002 2.408 5.437 5.373 5.437 2.968 0 5.372-2.434 5.372-5.436M115.317 97.022V76.86c0-.384-.31-.697-.69-.697h-8.305c-.38 0-.722.394-.722.777v28.886c0 .85.528 1.102 1.21 1.102h7.484c.82 0 1.023-.404 1.023-1.115v-8.79M207.977 76.163h-8.267c-.38 0-.688.313-.688.698v21.42s-2.1 1.538-5.082 1.538c-2.98 0-3.772-1.355-3.772-4.28V76.862c0-.384-.308-.697-.688-.697h-8.39c-.38 0-.69.313-.69.698v20.093c0 8.686 4.832 10.81 11.48 10.81 5.454 0 9.85-3.017 9.85-3.017s.21 1.59.305 1.78c.094.187.34.377.608.377l5.338-.024c.38 0 .69-.314.69-.698l-.003-29.32c0-.386-.308-.7-.69-.7M227.027 99.467c-2.868-.087-4.813-1.39-4.813-1.39V84.243s1.92-1.18 4.273-1.39c2.977-.266 5.846.635 5.846 7.75 0 7.504-1.294 8.985-5.306 8.863zm3.26-24.61c-4.695 0-7.89 2.1-7.89 2.1v-14.79c0-.387-.307-.698-.686-.698h-8.355c-.38 0-.688.31-.688.696v43.68c0 .384.308.698.69.698h5.796c.26 0 .46-.135.605-.37.144-.236.352-2.015.352-2.015s3.416 3.242 9.884 3.242c7.593 0 11.948-3.858 11.948-17.32 0-13.465-6.955-15.225-11.654-15.225zM139.174 76.088h-6.25l-.01-8.27c0-.315-.16-.47-.522-.47h-8.516c-.332 0-.51.145-.51.464v8.548s-4.267 1.032-4.556 1.115c-.287.084-.5.35-.5.666v5.373c0 .386.31.698.69.698h4.367v12.923c0 9.6 6.72 10.542 11.254 10.542 2.074 0 4.552-.667 4.962-.818.247-.09.39-.348.39-.627l.008-5.91c0-.384-.325-.696-.69-.696-.365 0-1.297.148-2.256.148-3.07 0-4.11-1.43-4.11-3.28V84.21h6.25c.38 0 .69-.313.69-.7v-6.728c0-.385-.31-.696-.69-.696"/>
    </g>
  </g>
</svg>
