<svg width="304" height="167" viewBox="0 0 304 167" xmlns="http://www.w3.org/2000/svg">
  <title>
    npm-off
  </title>
  <g fill="none" fill-rule="evenodd">
    <g fill-rule="nonzero">
      <path d="M66 57h176v58.286h-88V125h-39.11v-9.714H66V57zm9.778 48.57h19.555V76.43h9.778v29.14h9.78V66.715H75.777v38.857zm48.89-38.856v48.572h19.554v-9.715h19.556V66.715h-39.11zm19.554 9.715H154v19.427h-9.778V76.43zm29.334-9.716v38.857h19.555V76.43h9.78v29.14h9.777V76.43h9.777v29.14h9.778V66.715h-58.666z" fill="#525252"/>
      <path fill="#FFF" d="M75.778 105.57h19.555V76.43h9.778v29.14h9.78V66.715H75.777M124.667 66.714v48.572h19.555v-9.715h19.556V66.715h-39.11zM154 95.857h-9.778V76.43H154v19.427zM173.556 66.714v38.857h19.555V76.43h9.78v29.14h9.777V76.43h9.777v29.14h9.778V66.715"/>
    </g>
    <path stroke="#979797" d="M.5.5h303v166H.5z"/>
  </g>
</svg>
