<svg width="304" height="167" viewBox="0 0 304 167" xmlns="http://www.w3.org/2000/svg">
  <title>
    unpkg-off
  </title>
  <g fill="none" fill-rule="evenodd">
    <path d="M69.618 65.923V83.95c0 .968.037 1.958.11 2.97.073 1.01.293 1.926.66 2.747.366.82.945 1.488 1.736 2 .792.514 1.906.77 3.342.77 1.436 0 2.543-.256 3.32-.77.777-.512 1.356-1.18 1.737-2 .38-.82.608-1.737.68-2.748.074-1.012.11-2.002.11-2.97V65.924h8.575v19.215c0 5.16-1.18 8.926-3.54 11.3C83.99 98.813 80.362 100 75.467 100s-8.53-1.187-10.904-3.562C62.187 94.064 61 90.298 61 85.138V65.923h8.618zm29.416 33.154V65.923h8.618l15.917 20.27v-20.27h8.573v33.154h-8.574l-15.918-20.27v20.27h-8.618zm50.873-17.94h2.858c3.166 0 4.75-1.378 4.75-4.133 0-2.756-1.584-4.133-4.75-4.133h-2.858v8.267zm0 17.94h-8.618V65.923h13.718c3.722 0 6.573.968 8.552 2.902 1.978 1.935 2.968 4.66 2.968 8.18 0 3.516-.99 6.242-2.968 8.177-1.98 1.935-4.83 2.902-8.552 2.902h-5.1v10.993zm32.01-19.48l10.51-13.674h10.64L189.92 81.62l14.378 17.457h-11.17l-11.21-14.38v14.38h-8.62V65.923h8.62v13.675zm44.542.924h17.103c0 1.76-.073 3.358-.22 4.794-.147 1.436-.44 2.77-.88 4-.615 1.73-1.45 3.262-2.506 4.596-1.055 1.334-2.293 2.448-3.715 3.342-1.422.894-2.983 1.575-4.683 2.044-1.7.47-3.49.704-5.365.704-2.58 0-4.932-.425-7.057-1.275-2.126-.85-3.95-2.045-5.475-3.584-1.524-1.538-2.71-3.384-3.56-5.54-.85-2.153-1.276-4.535-1.276-7.144 0-2.58.417-4.947 1.253-7.1.835-2.156 2.022-3.995 3.56-5.52 1.54-1.524 3.394-2.71 5.564-3.56 2.17-.85 4.587-1.276 7.255-1.276 3.458 0 6.49.747 9.1 2.242 2.61 1.495 4.676 3.81 6.2 6.948l-8.178 3.385c-.762-1.817-1.752-3.12-2.968-3.913-1.217-.79-2.602-1.187-4.155-1.187-1.29 0-2.464.242-3.52.725-1.054.484-1.956 1.173-2.703 2.067-.748.894-1.334 1.97-1.76 3.232-.424 1.26-.637 2.666-.637 4.22 0 1.407.184 2.71.55 3.913.366 1.202.916 2.243 1.65 3.122.732.88 1.64 1.56 2.725 2.045 1.085.483 2.345.725 3.78.725.852 0 1.672-.095 2.464-.286.79-.19 1.5-.5 2.13-.924.632-.425 1.152-.975 1.562-1.65.41-.673.69-1.494.836-2.46h-7.08V80.52z" fill="#575757"/>
    <path stroke="#979797" d="M.5.5h303v166H.5z"/>
  </g>
</svg>
