<?xml version="1.0" standalone="no"?>
<!DOCTYPE svg PUBLIC "-//W3C//DTD SVG 20010904//EN"
 "http://www.w3.org/TR/2001/REC-SVG-20010904/DTD/svg10.dtd">
<svg version="1.0" xmlns="http://www.w3.org/2000/svg"
 width="1000.000000pt" height="1000.000000pt" viewBox="0 0 1000.000000 1000.000000"
 preserveAspectRatio="xMidYMid meet">
<metadata>
Created by potrace 1.11, written by Peter Selinger 2001-2013
</metadata>
<g transform="translate(0.000000,1000.000000) scale(0.100000,-0.100000)"
fill="#000000" stroke="none">
<path d="M1125 9990 c-172 -27 -267 -57 -420 -133 -130 -64 -214 -126 -337
-250 -182 -184 -306 -428 -352 -692 -21 -122 -22 -7714 -1 -7825 34 -180 70
-280 162 -451 34 -64 118 -172 189 -244 115 -118 217 -193 350 -259 112 -55
168 -74 368 -123 17 -4 1766 -8 3886 -10 3740 -2 3858 -2 3958 17 263 48 492
164 674 343 94 93 111 112 172 200 78 112 145 258 181 392 45 169 44 9 44
4040 0 2227 -4 3839 -10 3879 -42 325 -210 625 -469 838 -166 136 -366 227
-589 268 -104 19 -182 19 -3931 18 -2104 0 -3847 -4 -3875 -8z"/>
</g>
</svg>
