<!--
  * @license MIT
  * Copyright (c) 2017 Bernhard Grünewaldt - codeclou.io
  * https://github.com/cloukit/legal
-->
<svg width="410" height="410" viewBox="0 0 410 410" xmlns="http://www.w3.org/2000/svg">
  <title>
    cloukit-logo
  </title>
  <defs>
    <linearGradient x1="10.119%" y1="-2.805%" x2="83.699%" y2="102.827%" id="a">
      <stop stop-color="#3023AE" offset="0%"/>
      <stop stop-color="#B943CC" offset="100%"/>
    </linearGradient>
  </defs>
  <g fill="none" fill-rule="evenodd">
    <path fill="url(#a)" transform="rotate(15 206.143 205.5)" d="M206.143 19l167.143 93.25v186.5L206.143 392 39 298.75v-186.5"/>
    <path d="M154.705 178.114c29.967-12.478 36.968 19.944 33.628 28.096-3.586 8.754-6.12 16.074-19.022 17.82 12.012 15.814 10.623 29.357 23.714 29.357 15.213 0 18.1-21.362 21.007-32.05.23-.845 4.314-11.566 4.314-25.237-1.047-11.838 16.66-9.22 16.66 1.937-2.145 15.576-4.693 23.58-4.036 33.988 1.274 20.206 9.788 20.206 15.474 22.392 10.038 3.86 31.27-26.896 38.202-70.155h-6.93c-9.673-5.017-6.33-14.323 0-12.346.214-.097 5.884 1.476 9.02 0 1.795-7.46 3.125-17.49 5.063-38.216-4.16-29.577 18.44-10.478 12.778 1.573-1.86 17.507-2.476 30.174-2.476 36.643 6.7-.42 13.157-2.818 17.713-2.818 12.657 5.39 6.84 15.164 0 14.234-11.52 0-17.714.93-18.734 2.127.62 66.77 7.732 68.88 12.377 71.434 2.78 1.53 17.15-14.063 20.584-12.61 1.412.69 4.683 3.104 3.816 5-8.477 16.126-19.316 21.568-25.76 21.568-11.017 0-22.237-20.27-22.237-49.516-15.73 43.17-31.498 46.93-43.418 46.93-11.438 0-20.85-9.105-26.598-16.035-8.42 12.467-16.114 17.915-24.42 17.915-26.113 0-34.752-34.912-42.447-41.823-20.393-13.797-2.465-26.928 7.695-13.797 10.242-3.518 13.2-8.45 13.806-12.334 2.77-17.752-16.276-17.343-29.723-1.06-1.35 3.902-2.393 7.58-2.844 10.555-1.544 10.204-1.24 23.954-3.962 52.316-1.514 8.79-14.638 5.81-14.638-1.635 0-17.155 3.453-34.844 5.356-53.76-7.233 8.588-44.995 50.664-51.66 56.986-4.06 3.852-15.71-4.173-10.833-9.992 40.344-42.284 58.457-61.388 64.966-69.29 2.337-14.898 4.98-36.637 6.808-46.754 5.878-30.34 43.045-11.924 30.016 18.936-2.64 5.13-5.397 11.24-11.91 17.09-.41.74-.863 1.59-1.35 2.534zm78.574-27.668c-6.075 0-11-5.047-11-11.274 0-6.226 4.925-11.273 11-11.273 6.074 0 10.998 5.046 10.998 11.272 0 6.227-4.924 11.274-11 11.274zm-87.145 16.933c4.788-7.555 12.065-12.4 12.065-17.947 0-19.98-7.447-17.238-10.06-1.483-2.518 15.18-1.554 18.086-2.005 19.43z" fill="#FFF"/>
    <path d="M70.696 241.44c1.188-1.188 1.994-2.842 2.12-4.667l-2.608-.615c-.106 1.082-.445 2.228-1.252 3.034-1.633 1.633-4.157 1.4-6.236-.68-2.1-2.1-2.312-4.645-.637-6.32.658-.658 1.464-.913 2.504-.976l-.404-2.78c-1.42.107-2.884.552-4.22 1.89-2.78 2.777-3.225 7.21.254 10.69 3.457 3.458 7.636 3.267 10.48.424zm8.087-8.087c.573-.572.912-1.082 1.082-1.506l-2.143-1.506c-.148.234-.233.32-.34.425-.254.255-.742.32-1.336-.275l-12.43-12.43-2.44 2.438 12.304 12.304c1.803 1.803 3.563 2.29 5.303.55zm7.896-7.896c-2.59 2.588-6.938 2.95-10.396-.51-3.48-3.478-3.118-7.826-.53-10.414 2.61-2.61 6.958-2.97 10.437.51 3.46 3.456 3.098 7.805.49 10.414zm-1.995-1.994c1.527-1.527 1.082-3.84-.997-5.918-2.1-2.1-4.412-2.546-5.94-1.018-1.527 1.527-1.06 3.818 1.04 5.918 2.08 2.08 4.37 2.546 5.897 1.018zm12.733-8.744c1.42-1.423 1.74-3.14 1.57-5.135l.063-.064 1.72 1.338 1.993-1.994-10.415-10.416-2.44 2.44 7.128 7.127c.233 1.803.042 2.843-.87 3.755-1.124 1.124-2.25.976-3.967-.742l-6.216-6.216-2.44 2.44 6.534 6.533c2.63 2.63 5.112 3.16 7.34.934z" fill="#FFF"/>
  </g>
</svg>
