<!--
  * @license MIT
  * Copyright (c) 2017 Bernhard Grünewaldt - codeclou.io
  * https://github.com/cloukit/legal
-->
<svg width="560" height="87" viewBox="0 0 560 87" xmlns="http://www.w3.org/2000/svg" xmlns:xlink="http://www.w3.org/1999/xlink">
  <defs>
    <path id="a" d="M4 6.5h553v76H4z"/>
    <mask id="b" x="0" y="0" width="553" height="76" fill="#fff">
      <use xlink:href="#a"/>
    </mask>
  </defs>
  <g fill="none" fill-rule="evenodd">
    <use stroke="#710ECC" mask="url(#b)" stroke-width="2" fill="#710ECC" xlink:href="#a"/>
    <path d="M22.416 34.755c-.448.114-.896.184-1.342.22-.16.013-.32.022-.477.027l-.137.005c-.125 0-.25 0-.373-.006-.045 0-.09-.002-.134-.005-.143-.007-.286-.02-.43-.036 0 0-.004 0-.007-.002-2.12-.245-4.03-1.436-5.288-3.718-.68-1.234-.947-2.28-1.008-3.13-.078.438-.1.742-.1.742-.085-1.372.06-2.284.242-2.87-.248.467-.372.88-.372.88.176-1.047.393-1.736.607-2.193.014-.067.134-.335.366-.657.002-.04.003-.082.003-.128-.133-1.962.756-2.682.756-2.682l.002.017.003-.002c.023.62.448 1.138.74 1.414.153.033.287.045.396.044.42-.096.9-.106 1.443.025.66-.883 2.094-.95 1.98-.88.01.004.014.01.003.015-.56.33-.9.82-1.018 1.505.085.193.354.7.842.697.32 0 .55 0 .718.003h.035l.055.003c.012 0 .023 0 .034.002.016 0 .032 0 .047.002.017 0 .033.002.05.004l.04.005c.01 0 .02.002.028.003.01 0 .02.003.027.004.008 0 .015.002.022.004.006 0 .013.003.02.004l.024.007.018.007.014.007.01.007.01.007.006.007.01.014.003.008.005.012c0 .003 0 .006.002.01 0 .003 0 .007.002.012v.008c.002.007.002.015.002.022.003.043.002.082 0 .118 0 .014-.002.027-.003.04l-.007.062c-.005.028-.01.054-.017.078l-.005.02v.004l-.006.015-.008.022-.003.01-.02.045c-.004.012-.01.024-.016.035l-.02.037-.023.033-.016.02-.012.016-.006.008-.02.024-.022.02-.01.008-.007.007c-.002 0-.003.002-.005.004l-.016.014-.028.022c-.08.064-1.177.734-1.217.925 0 .008-.005.01-.01.012.05.15.08.316.1.475.033.16.046.29.026.332.003.113.003.213 0 .29-.216-.118-.422-.195-.66-.238-.142.058-.392.132-.475.376-.026.08-.047.172-.065.267.008.26.083.63.797 1.075.942.588 1.56.007 2.057-.13.705-.194 1.227.162 1.442.422.215.26.03.552-.246.487-.276-.066-.584.208-1.105.583-.477.374-1.554.524-2.124.395 0 .002.003.003.004.005 1.115.803 3.58 2.605 5.665-.763.363-.702-.165 1.115-.106 1.076.747-.496.906-2.298.756-3.434.47.223.5.74.532.644.24-.757.303-2.28.052-3.083.38.115.69.792.69.792-.575-2.957-3.385-3.316-3.35-3.327.753-.23 1.512-.23 1.512-.23-.317-.457-2.102-.777-2.108-.785l-.035-.004h.043c.098-.03.976-.184 2.6.376 1.464.506 2.017 2.095 2.017 2.095s.057-.448-.255-1.285c0 0 .21-.01.675 1.233.304.813.553 2.985.553 2.985l.173-1.173s.677 7.92-5.55 9.505z" fill="#FFF" fill-rule="nonzero"/>
    <path fill="#FEFEFE" fill-rule="nonzero" d="M6 47h109v33H6z"/>
    <path d="M47.5 72c-4.142 0-7.5-3.358-7.5-7.5 0-4.142 3.358-7.5 7.5-7.5 4.142 0 7.5 3.358 7.5 7.5 0 4.142-3.358 7.5-7.5 7.5zm3.99-11.994h-1.86l-2.13 3.126-2.13-3.126h-1.86l3.06 4.492-3.06 4.493h1.86l2.13-3.126 2.13 3.127h1.86L48.43 64.5l3.06-4.492z" fill="#710ECC" fill-rule="nonzero"/>
    <path d="M130.5 36c-.138 0-.272-.013-.41-.02l3.75-6.227-.07-.038c.142-.38.23-.786.23-1.215 0-.98-.406-1.865-1.056-2.5h4.62c.277.783.436 1.622.436 2.5 0 4.142-3.358 7.5-7.5 7.5zm.5-10.95c-.165-.023-.33-.05-.5-.05-1.93 0-3.493 1.562-3.5 3.49l-3.247-3.248C124.966 22.734 127.527 21 130.5 21c2.877 0 5.373 1.622 6.63 4H131v.05zm-3 3.45c0-1.38 1.12-2.5 2.5-2.5s2.5 1.12 2.5 2.5c0 .516-.157.996-.425 1.394l-.003.005c-.45.663-1.21 1.1-2.072 1.1-.686 0-1.306-.277-1.758-.724l.023-.023-.253-.252c-.317-.418-.512-.934-.512-1.5zm.03 2.48l.005.003c.633.628 1.503 1.017 2.465 1.017.307 0 .6-.052.884-.126l-2.393 3.974c-3.418-.698-5.99-3.723-5.99-7.348 0-.772.117-1.517.334-2.217l4.686 4.686c.004.002.008.006.01.01z" fill="#FFF" fill-rule="nonzero"/>
    <path fill="#FEFEFE" fill-rule="nonzero" d="M116 47h109v33H116z"/>
    <path d="M247.947 23.453c-.034.142-.21.117-.177-.034.202-.59.664-2.017-.176-2.697-1.118-.913-3.44.23-4.684 1.002 3.05.78 4.927 2.824 4.927 5.958 0 .27.042.513.025.857l-9.088.008c.06 1.672.966 2.8 2.285 2.8 1.05 0 1.72-.935 1.922-1.926l4.788.008c-.873 2.806-3.318 5.136-6.804 5.136-.505 0-.985-.034-1.44-.1-1.89 1.237-4.237 2.21-5.548 1.385-1.73-1.09-.866-4.065.16-6.18v.002c1.62-3.358 4.114-5.69 5.46-6.497-.01 0-.01.026 0 0 .117-.058.04-.21-.085-.15-.8.415-3.816 1.99-5.778 5.063v-.05c0-1.93.772-3.603 2.166-4.88 1.227-1.108 2.84-1.696 4.84-1.696.495 0 .97.04 1.424.11 1.582-.924 4.45-2.29 5.715-1.152.613.555.487 1.974.067 3.033zm-11.643 9.735c-.584-.445-1.08-.978-1.476-1.57-.653 1.474-.98 2.986-.237 3.544.995.746 3.026.11 4.5-.77-1.07-.21-1.997-.61-2.786-1.204zm4.612-8.417c-1.092 0-2.134.32-2.16 1.772h4.65c0-1.42-1.34-1.77-2.49-1.77z" fill="#FFF" fill-rule="nonzero"/>
    <path fill="#FEFEFE" fill-rule="nonzero" d="M226 47h109v33H226z"/>
    <path d="M273.554 63.75c-.64.3-1.64.645-2.872.645-1.18 0-2.028-.473-2.805-.997l1.463-5.022c.812.513 1.657.974 2.714.974 1.252 0 2.264-.328 2.946-.642l-1.446 5.042zm-6.247-.744c-.753-.518-1.503-.983-2.507-.983-1.248 0-2.463.395-3.118.65l1.48-5.076c.498-.242 1.47-.597 2.902-.597 1.037 0 1.87.478 2.694 1.003l-1.45 5.003zm-.198.682l-1.463 5.04c-.78-.487-1.553-.927-2.568-.927-1.225 0-2.417.38-3.08.636l1.46-5.004c.454-.24 1.464-.654 3.013-.654 1.005 0 1.828.428 2.636.91zm.58.352c.848.51 1.724.98 2.818.98 1.23 0 2.205-.322 2.864-.637l-1.45 5.053c-.61.256-1.605.564-2.874.564-1.174 0-2.035-.433-2.828-.915l1.47-5.045z" fill="#710ECC" fill-rule="nonzero"/>
    <path d="M346.386 23.968c-1.782 1.11-2.8 2.686-2.8 2.686s.263-3.306 2.8-5.24c1.01-.77 2.388-1.414 4.244-1.414.697 0 2.16.122 3.476.933 1.317.812 1.85 1.492 2.442 2.487.255.43.464.98.594 1.514.243.997.273 2.19.273 2.19v1.57h-9.41s-.23 3.162 4.098 3.162c1.505 0 2.032-.236 2.527-.383.774-.23 1.523-.74 1.523-.74v3.158s-1.77 1.092-4.446 1.092c-.753 0-1.547-.063-2.312-.312-.67-.218-2.07-.803-3.01-2.176-.33-.485-.69-1.13-.868-1.763-.193-.68-.19-1.345-.19-1.71 0-1.365.467-2.67 1.276-3.612 1.048-1.22 2.375-1.758 2.375-1.758s-.432.504-.698 1.13c-.265.627-.34 1.258-.34 1.258h5.314s.31-3.175-3.007-3.175c-1.25 0-2.783.434-3.86 1.105z" fill="#FFF" fill-rule="nonzero"/>
    <path fill="#FEFEFE" fill-rule="nonzero" d="M336 47h109v33H336z"/>
    <path d="M383.554 63.75c-.64.3-1.64.645-2.872.645-1.18 0-2.028-.473-2.805-.997l1.463-5.022c.812.513 1.657.974 2.714.974 1.252 0 2.264-.328 2.946-.642l-1.446 5.042zm-6.247-.744c-.753-.518-1.503-.983-2.507-.983-1.248 0-2.463.395-3.118.65l1.48-5.076c.498-.242 1.47-.597 2.902-.597 1.037 0 1.87.478 2.694 1.003l-1.45 5.003zm-.198.682l-1.463 5.04c-.78-.487-1.553-.927-2.568-.927-1.225 0-2.417.38-3.08.636l1.46-5.004c.454-.24 1.464-.654 3.013-.654 1.005 0 1.828.428 2.636.91zm.58.352c.848.51 1.724.98 2.818.98 1.23 0 2.205-.322 2.864-.637l-1.45 5.053c-.61.256-1.605.564-2.874.564-1.174 0-2.035-.433-2.828-.915l1.47-5.045z" fill="#710ECC" fill-rule="nonzero"/>
    <path fill="#FEFEFE" fill-rule="nonzero" d="M446 47h109v33H446z"/>
    <path d="M487.5 71c-4.142 0-7.5-3.358-7.5-7.5 0-4.142 3.358-7.5 7.5-7.5 4.142 0 7.5 3.358 7.5 7.5 0 4.142-3.358 7.5-7.5 7.5zm3.99-11.994h-1.86l-2.13 3.126-2.13-3.126h-1.86l3.06 4.492-3.06 4.493h1.86l2.13-3.126 2.13 3.127h1.86l-3.06-4.492 3.06-4.492z" fill="#710ECC" fill-rule="nonzero"/>
    <path d="M458 37c-4.418 0-8-3.582-8-8s3.582-8 8-8 8 3.582 8 8-3.582 8-8 8zm0-1.714c3.472 0 6.286-2.814 6.286-6.286 0-3.472-2.814-6.286-6.286-6.286-3.472 0-6.286 2.814-6.286 6.286 0 3.472 2.814 6.286 6.286 6.286z" fill="#FFF"/>
    <path fill="#FFF" d="M454.99 33.213l1.705-4.953 4.448-3.26-1.663 5.048"/>
    <path d="M158.5 72c-4.142 0-7.5-3.358-7.5-7.5 0-4.142 3.358-7.5 7.5-7.5 4.142 0 7.5 3.358 7.5 7.5 0 4.142-3.358 7.5-7.5 7.5zm3.99-11.994h-1.86l-2.13 3.126-2.13-3.126h-1.86l3.06 4.492-3.06 4.493h1.86l2.13-3.126 2.13 3.127h1.86l-3.06-4.492 3.06-4.492z" fill="#710ECC" fill-rule="nonzero"/>
    <g>
      <path d="M44.44 23.504h6.048v1.12h-4.72v3.552h4v1.12h-4V34H44.44V23.504zm8.448 1.12c-.256 0-.472-.08-.648-.24-.176-.16-.264-.363-.264-.608 0-.256.088-.46.264-.616.176-.155.392-.232.648-.232s.472.077.648.232c.176.155.264.36.264.616 0 .245-.088.448-.264.608-.176.16-.392.24-.648.24zm-.672 1.6h1.312V34h-1.312v-7.776zm3.936 0h1.088l.112 1.408h.048c.267-.49.59-.88.968-1.168.38-.288.792-.432 1.24-.432.31 0 .587.053.832.16l-.256 1.152c-.128-.043-.245-.075-.352-.096-.107-.02-.24-.032-.4-.032-.33 0-.675.133-1.032.4s-.67.73-.936 1.392V34h-1.312v-7.776zm4.816 3.904c0-.64.1-1.213.296-1.72.197-.507.46-.936.784-1.288.325-.352.696-.62 1.112-.808.416-.187.848-.28 1.296-.28.49 0 .93.085 1.32.256.39.17.715.416.976.736.26.32.46.704.6 1.152.14.448.208.95.208 1.504 0 .288-.016.528-.048.72h-5.248c.053.843.312 1.51.776 2s1.07.736 1.816.736c.373 0 .717-.056 1.032-.168.315-.112.616-.26.904-.44l.464.864c-.34.213-.72.4-1.136.56-.416.16-.89.24-1.424.24-.523 0-1.01-.093-1.464-.28-.453-.187-.848-.453-1.184-.8-.336-.347-.6-.77-.792-1.272-.192-.5-.288-1.072-.288-1.712zm5.44-.592c0-.8-.168-1.41-.504-1.832-.336-.42-.808-.632-1.416-.632-.277 0-.54.056-.792.168-.25.112-.477.272-.68.48-.203.208-.37.464-.504.768-.133.304-.22.653-.264 1.048h4.16zm6.576-5.856c-.288-.128-.58-.192-.88-.192-.725 0-1.088.5-1.088 1.504v1.232h1.648v1.072h-1.648V34h-1.312v-6.704h-1.056v-.992l1.056-.08v-1.232c0-.8.184-1.43.552-1.888.368-.46.94-.688 1.72-.688.245 0 .477.024.696.072.22.048.42.11.6.184l-.288 1.008zm.432 6.448c0-.65.1-1.23.296-1.736.197-.507.46-.936.792-1.288.33-.352.712-.62 1.144-.8.432-.18.888-.272 1.368-.272.48 0 .936.09 1.368.272.432.18.813.448 1.144.8.33.352.595.78.792 1.288.197.507.296 1.085.296 1.736 0 .64-.1 1.213-.296 1.72-.197.507-.46.933-.792 1.28-.33.347-.712.61-1.144.792-.432.18-.888.272-1.368.272-.48 0-.936-.09-1.368-.272-.432-.18-.813-.445-1.144-.792-.33-.347-.595-.773-.792-1.28-.197-.507-.296-1.08-.296-1.72zm1.36 0c0 .448.053.853.16 1.216.107.363.26.675.456.936.197.26.435.464.712.608.277.144.58.216.912.216.33 0 .635-.072.912-.216.277-.144.515-.347.712-.608.197-.26.35-.573.456-.936.107-.363.16-.768.16-1.216 0-.448-.053-.856-.16-1.224-.107-.368-.26-.685-.456-.952-.197-.267-.435-.472-.712-.616-.277-.144-.58-.216-.912-.216-.33 0-.635.072-.912.216-.277.144-.515.35-.712.616-.197.267-.35.584-.456.952-.107.368-.16.776-.16 1.224zm9.072-.192l-2.352-3.712h1.424l1.04 1.712c.117.213.24.43.368.648.128.22.26.435.4.648h.064c.117-.213.235-.43.352-.648.117-.22.235-.435.352-.648l.944-1.712h1.376l-2.352 3.856L87.992 34h-1.424l-1.136-1.808-.416-.704c-.14-.235-.283-.464-.432-.688h-.064c-.14.224-.272.45-.4.68-.128.23-.256.467-.384.712L82.68 34h-1.376l2.544-4.064z" fill="#FFF"/>
      <path d="M14.424 66.28c.31.277.643.515 1 .712.357.197.755.296 1.192.296.523 0 .94-.133 1.248-.4.31-.267.464-.66.464-1.184 0-.512-.147-.9-.44-1.168-.293-.267-.68-.4-1.16-.4-.15 0-.283.008-.4.024-.117.016-.232.045-.344.088-.112.043-.23.096-.352.16-.123.064-.26.144-.408.24l-1.056-.672.288-5.136h5.76v1.984h-3.728l-.176 1.904c.192-.085.376-.147.552-.184.176-.037.37-.056.584-.056.437 0 .85.064 1.24.192s.733.32 1.032.576c.3.256.533.58.704.976.17.395.256.864.256 1.408 0 .565-.1 1.067-.304 1.504-.203.437-.475.808-.816 1.112-.34.304-.74.536-1.192.696-.453.16-.925.24-1.416.24-.832 0-1.536-.136-2.112-.408-.576-.272-1.067-.61-1.472-1.016l1.056-1.488zm8.144.816h2.208v-5.872h-1.904v-1.456c.555-.107 1.024-.235 1.408-.384.384-.15.757-.33 1.12-.544h1.728v8.256h1.904V69h-6.464v-1.904zM62.264 67.912H64.6v-7.52h-1.856v-.848c.47-.085.877-.19 1.224-.312.347-.123.66-.27.936-.44h1.008v9.12h2.112V69h-5.76v-1.088zm10.672 1.28c-1.035 0-1.84-.46-2.416-1.376-.576-.917-.864-2.235-.864-3.952s.288-3.024.864-3.92c.576-.896 1.38-1.344 2.416-1.344 1.024 0 1.824.448 2.4 1.344.576.896.864 2.203.864 3.92s-.288 3.035-.864 3.952c-.576.917-1.376 1.376-2.4 1.376zm0-1.056c.3 0 .568-.083.808-.248.24-.165.448-.42.624-.768.176-.347.312-.79.408-1.328.096-.54.144-1.18.144-1.928 0-.747-.048-1.387-.144-1.92-.096-.533-.232-.968-.408-1.304-.176-.336-.384-.584-.624-.744-.24-.16-.51-.24-.808-.24-.3 0-.57.08-.816.24-.245.16-.456.408-.632.744s-.312.77-.408 1.304c-.096.533-.144 1.173-.144 1.92 0 1.493.184 2.58.552 3.256.368.677.85 1.016 1.448 1.016zm5.008.064c0-.31.093-.557.28-.744.187-.187.413-.28.68-.28.256 0 .477.093.664.28.187.187.28.435.28.744 0 .288-.093.525-.28.712-.187.187-.408.28-.664.28-.267 0-.493-.093-.68-.28-.187-.187-.28-.424-.28-.712zm4.208-.288h2.336v-7.52h-1.856v-.848c.47-.085.877-.19 1.224-.312.347-.123.66-.27.936-.44H85.8v9.12h2.112V69h-5.76v-1.088zm7.952 0h2.336v-7.52h-1.856v-.848c.47-.085.877-.19 1.224-.312.347-.123.66-.27.936-.44h1.008v9.12h2.112V69h-5.76v-1.088z" fill="#710ECC"/>
      <path d="M153.832 28.752c0-.843.117-1.6.352-2.272.235-.672.56-1.243.976-1.712.416-.47.91-.83 1.48-1.08.57-.25 1.192-.376 1.864-.376.64 0 1.2.13 1.68.392.48.26.875.563 1.184.904l-.752.848c-.277-.3-.584-.536-.92-.712-.336-.176-.728-.264-1.176-.264-.5 0-.955.1-1.36.296-.405.197-.752.48-1.04.848-.288.368-.512.813-.672 1.336-.16.523-.24 1.11-.24 1.76 0 .66.077 1.256.232 1.784.155.528.37.98.648 1.352.277.373.616.66 1.016.864.4.203.85.304 1.352.304.512 0 .957-.1 1.336-.304.38-.203.74-.49 1.08-.864l.752.816c-.416.48-.885.853-1.408 1.12-.523.267-1.12.4-1.792.4-.66 0-1.272-.123-1.832-.368s-1.045-.6-1.456-1.064c-.41-.464-.73-1.035-.96-1.712-.23-.677-.344-1.443-.344-2.296zm9.616-6.144h1.312v3.104l-.048 1.6c.373-.352.763-.653 1.168-.904.405-.25.88-.376 1.424-.376.82 0 1.42.256 1.8.768.38.512.568 1.27.568 2.272V34h-1.312v-4.752c0-.736-.117-1.267-.352-1.592-.235-.325-.608-.488-1.12-.488-.405 0-.763.1-1.072.304-.31.203-.66.5-1.056.896V34h-1.312V22.608zm8.704 3.616h1.088l.112 1.408h.048c.267-.49.59-.88.968-1.168.38-.288.792-.432 1.24-.432.31 0 .587.053.832.16l-.256 1.152c-.128-.043-.245-.075-.352-.096-.107-.02-.24-.032-.4-.032-.33 0-.675.133-1.032.4s-.67.73-.936 1.392V34h-1.312v-7.776zm4.816 3.904c0-.65.1-1.23.296-1.736.197-.507.46-.936.792-1.288.33-.352.712-.62 1.144-.8.432-.18.888-.272 1.368-.272.48 0 .936.09 1.368.272.432.18.813.448 1.144.8.33.352.595.78.792 1.288.197.507.296 1.085.296 1.736 0 .64-.1 1.213-.296 1.72-.197.507-.46.933-.792 1.28-.33.347-.712.61-1.144.792-.432.18-.888.272-1.368.272-.48 0-.936-.09-1.368-.272-.432-.18-.813-.445-1.144-.792-.33-.347-.595-.773-.792-1.28-.197-.507-.296-1.08-.296-1.72zm1.36 0c0 .448.053.853.16 1.216.107.363.26.675.456.936.197.26.435.464.712.608.277.144.58.216.912.216.33 0 .635-.072.912-.216.277-.144.515-.347.712-.608.197-.26.35-.573.456-.936.107-.363.16-.768.16-1.216 0-.448-.053-.856-.16-1.224-.107-.368-.26-.685-.456-.952-.197-.267-.435-.472-.712-.616-.277-.144-.58-.216-.912-.216-.33 0-.635.072-.912.216-.277.144-.515.35-.712.616-.197.267-.35.584-.456.952-.107.368-.16.776-.16 1.224zm7.888-3.904h1.088l.112 1.12h.048c.34-.373.712-.685 1.112-.936.4-.25.835-.376 1.304-.376.597 0 1.064.13 1.4.392.336.26.584.627.744 1.096.405-.448.813-.808 1.224-1.08.41-.272.856-.408 1.336-.408.8 0 1.395.256 1.784.768.39.512.584 1.27.584 2.272V34h-1.312v-4.752c0-.736-.117-1.267-.352-1.592-.235-.325-.597-.488-1.088-.488-.587 0-1.237.4-1.952 1.2V34h-1.312v-4.752c0-.736-.117-1.267-.352-1.592-.235-.325-.603-.488-1.104-.488-.587 0-1.237.4-1.952 1.2V34h-1.312v-7.776zm12.688 3.904c0-.64.1-1.213.296-1.72.197-.507.46-.936.784-1.288.325-.352.696-.62 1.112-.808.416-.187.848-.28 1.296-.28.49 0 .93.085 1.32.256.39.17.715.416.976.736.26.32.46.704.6 1.152.14.448.208.95.208 1.504 0 .288-.016.528-.048.72H200.2c.053.843.312 1.51.776 2s1.07.736 1.816.736c.373 0 .717-.056 1.032-.168.315-.112.616-.26.904-.44l.464.864c-.34.213-.72.4-1.136.56-.416.16-.89.24-1.424.24-.523 0-1.01-.093-1.464-.28-.453-.187-.848-.453-1.184-.8-.336-.347-.6-.77-.792-1.272-.192-.5-.288-1.072-.288-1.712zm5.44-.592c0-.8-.168-1.41-.504-1.832-.336-.42-.808-.632-1.416-.632-.277 0-.54.056-.792.168-.25.112-.477.272-.68.48-.203.208-.37.464-.504.768-.133.304-.22.653-.264 1.048h4.16z" fill="#FFF"/>
      <path d="M124.424 66.28c.31.277.643.515 1 .712.357.197.755.296 1.192.296.523 0 .94-.133 1.248-.4.31-.267.464-.66.464-1.184 0-.512-.147-.9-.44-1.168-.293-.267-.68-.4-1.16-.4-.15 0-.283.008-.4.024-.117.016-.232.045-.344.088-.112.043-.23.096-.352.16-.123.064-.26.144-.408.24l-1.056-.672.288-5.136h5.76v1.984h-3.728l-.176 1.904c.192-.085.376-.147.552-.184.176-.037.37-.056.584-.056.437 0 .85.064 1.24.192s.733.32 1.032.576c.3.256.533.58.704.976.17.395.256.864.256 1.408 0 .565-.1 1.067-.304 1.504-.203.437-.475.808-.816 1.112-.34.304-.74.536-1.192.696-.453.16-.925.24-1.416.24-.832 0-1.536-.136-2.112-.408-.576-.272-1.067-.61-1.472-1.016l1.056-1.488zm11.472 1.152c.352 0 .653-.13.904-.392.25-.26.376-.68.376-1.256 0-.544-.125-.925-.376-1.144-.25-.22-.568-.328-.952-.328-.256 0-.517.075-.784.224-.267.15-.517.41-.752.784.053.405.133.74.24 1.008.107.267.23.483.368.648.14.165.29.283.456.352.165.07.34.104.52.104zm2.048-6.16c-.18-.192-.416-.36-.704-.504-.288-.144-.58-.216-.88-.216-.277 0-.54.053-.784.16-.245.107-.46.285-.648.536-.187.25-.34.58-.456.984-.117.405-.187.9-.208 1.488.128-.17.277-.323.448-.456.17-.133.347-.245.528-.336.18-.09.363-.16.544-.208.18-.048.352-.072.512-.072.437 0 .84.064 1.208.192s.688.32.96.576c.272.256.483.58.632.976.15.395.224.86.224 1.392 0 .533-.09 1.008-.272 1.424-.18.416-.424.773-.728 1.072-.304.3-.66.525-1.072.68-.41.155-.845.232-1.304.232-.49 0-.968-.096-1.432-.288-.464-.192-.875-.49-1.232-.896-.357-.405-.643-.925-.856-1.56-.213-.635-.32-1.4-.32-2.296 0-.95.115-1.77.344-2.464.23-.693.533-1.264.912-1.712.38-.448.816-.78 1.312-1 .496-.22 1.01-.328 1.544-.328.672 0 1.253.12 1.744.36.49.24.896.525 1.216.856l-1.232 1.408z" fill="#710ECC"/>
      <path d="M264.44 23.504h1.328V34h-1.328V23.504zm4.208 0h6.048v1.12h-4.72v3.296h3.984v1.136h-3.984v3.808h4.88V34h-6.208V23.504z" fill="#FFF"/>
      <path d="M234.12 67.096h2.208v-5.872h-1.904v-1.456c.555-.107 1.024-.235 1.408-.384.384-.15.757-.33 1.12-.544h1.728v8.256h1.904V69h-6.464v-1.904zm8.448 0h2.208v-5.872h-1.904v-1.456c.555-.107 1.024-.235 1.408-.384.384-.15.757-.33 1.12-.544h1.728v8.256h1.904V69h-6.464v-1.904zM280.84 66.264c0 .288.056.55.168.784.112.235.267.44.464.616s.43.312.696.408c.267.096.555.144.864.144.597 0 1.08-.165 1.448-.496.368-.33.552-.763.552-1.296 0-.33-.075-.613-.224-.848-.15-.235-.352-.44-.608-.616s-.552-.336-.888-.48c-.336-.144-.685-.29-1.048-.44-.405.277-.744.6-1.016.968s-.408.787-.408 1.256zm2.88-2.832c.34-.31.605-.635.792-.976.187-.34.28-.7.28-1.072 0-.512-.155-.94-.464-1.288-.31-.347-.747-.52-1.312-.52-.48 0-.875.15-1.184.448-.31.3-.464.7-.464 1.2 0 .31.064.573.192.792.128.22.3.413.52.584.22.17.47.323.752.456.283.133.58.26.888.376zm-4.064 2.96c0-.33.056-.637.168-.92.112-.283.256-.54.432-.768.176-.23.38-.432.608-.608.23-.176.467-.328.712-.456v-.064c-.373-.267-.704-.59-.992-.968-.288-.38-.432-.84-.432-1.384 0-.395.075-.752.224-1.072.15-.32.352-.595.608-.824.256-.23.56-.408.912-.536.352-.128.736-.192 1.152-.192.448 0 .848.067 1.2.2s.653.32.904.56c.25.24.443.528.576.864.133.336.2.7.2 1.096 0 .267-.045.523-.136.768-.09.245-.203.475-.336.688-.133.213-.283.405-.448.576-.165.17-.328.315-.488.432v.064c.224.128.443.275.656.44.213.165.403.352.568.56.165.208.3.445.4.712.1.267.152.57.152.912 0 .384-.08.74-.24 1.072-.16.33-.384.62-.672.864-.288.245-.635.437-1.04.576-.405.14-.853.208-1.344.208-.48 0-.925-.07-1.336-.208-.41-.14-.763-.333-1.056-.584-.293-.25-.525-.547-.696-.888-.17-.34-.256-.715-.256-1.12zm8.336 1.808c0-.31.093-.557.28-.744.187-.187.413-.28.68-.28.256 0 .477.093.664.28.187.187.28.435.28.744 0 .288-.093.525-.28.712-.187.187-.408.28-.664.28-.267 0-.493-.093-.68-.28-.187-.187-.28-.424-.28-.712zm4.208-.288h2.336v-7.52h-1.856v-.848c.47-.085.877-.19 1.224-.312.347-.123.66-.27.936-.44h1.008v9.12h2.112V69h-5.76v-1.088z" fill="#710ECC"/>
      <path d="M374.44 23.504h6.048v1.12h-4.72v3.296h3.984v1.136h-3.984v3.808h4.88V34h-6.208V23.504zm7.744 6.624c0-.63.093-1.197.28-1.704.187-.507.435-.936.744-1.288.31-.352.667-.624 1.072-.816.405-.192.832-.288 1.28-.288.448 0 .837.08 1.168.24.33.16.667.38 1.008.656l-.064-1.328v-2.992H389V34h-1.088l-.112-.912h-.048c-.31.3-.664.557-1.064.776-.4.22-.83.328-1.288.328-.98 0-1.763-.352-2.344-1.056-.58-.704-.872-1.707-.872-3.008zm1.36-.016c0 .94.187 1.67.56 2.192.373.523.9.784 1.584.784.363 0 .704-.088 1.024-.264.32-.176.64-.445.96-.808v-4.064c-.33-.3-.648-.51-.952-.632-.304-.123-.616-.184-.936-.184-.31 0-.6.072-.872.216-.272.144-.51.347-.712.608-.203.26-.363.573-.48.936-.117.363-.176.768-.176 1.216zm8.64 5.2c0 .416.2.747.6.992.4.245.952.368 1.656.368.373 0 .712-.045 1.016-.136.304-.09.563-.208.776-.352.213-.144.38-.312.496-.504.117-.192.176-.39.176-.592 0-.363-.133-.613-.4-.752-.267-.14-.656-.208-1.168-.208h-1.344c-.15 0-.312-.008-.488-.024s-.35-.05-.52-.104c-.277.203-.48.416-.608.64-.128.224-.192.448-.192.672zm-1.152.176c0-.33.1-.645.304-.944.203-.3.48-.57.832-.816v-.064c-.192-.117-.355-.28-.488-.488-.133-.208-.2-.467-.2-.776 0-.33.09-.62.272-.864.18-.245.373-.437.576-.576v-.064c-.256-.213-.488-.5-.696-.856-.208-.357-.312-.77-.312-1.24 0-.427.077-.81.232-1.152.155-.34.365-.632.632-.872s.58-.424.936-.552c.357-.128.733-.192 1.128-.192.213 0 .413.02.6.056.187.037.355.083.504.136h2.704v1.008h-1.6c.18.18.333.41.456.688.123.277.184.58.184.912 0 .416-.075.792-.224 1.128-.15.336-.352.62-.608.848-.256.23-.557.408-.904.536-.347.128-.717.192-1.112.192-.192 0-.39-.024-.592-.072-.203-.048-.395-.115-.576-.2-.14.117-.256.248-.352.392-.096.144-.144.323-.144.536 0 .245.096.448.288.608.192.16.555.24 1.088.24h1.504c.907 0 1.587.147 2.04.44.453.293.68.765.68 1.416 0 .363-.09.707-.272 1.032-.18.325-.443.61-.784.856-.34.245-.755.44-1.24.584-.485.144-1.032.216-1.64.216-.48 0-.917-.045-1.312-.136-.395-.09-.733-.227-1.016-.408-.283-.18-.5-.4-.656-.656-.155-.256-.232-.555-.232-.896zm3.216-4.832c.224 0 .435-.043.632-.128s.373-.208.528-.368c.155-.16.275-.355.36-.584.085-.23.128-.488.128-.776 0-.576-.16-1.02-.48-1.336-.32-.315-.71-.472-1.168-.472-.46 0-.848.157-1.168.472-.32.315-.48.76-.48 1.336 0 .288.043.547.128.776.085.23.205.424.36.584.155.16.33.283.528.368.197.085.408.128.632.128zm4.64-.528c0-.64.1-1.213.296-1.72.197-.507.46-.936.784-1.288.325-.352.696-.62 1.112-.808.416-.187.848-.28 1.296-.28.49 0 .93.085 1.32.256.39.17.715.416.976.736.26.32.46.704.6 1.152.14.448.208.95.208 1.504 0 .288-.016.528-.048.72h-5.248c.053.843.312 1.51.776 2s1.07.736 1.816.736c.373 0 .717-.056 1.032-.168.315-.112.616-.26.904-.44l.464.864c-.34.213-.72.4-1.136.56-.416.16-.89.24-1.424.24-.523 0-1.01-.093-1.464-.28-.453-.187-.848-.453-1.184-.8-.336-.347-.6-.77-.792-1.272-.192-.5-.288-1.072-.288-1.712zm5.44-.592c0-.8-.168-1.41-.504-1.832-.336-.42-.808-.632-1.416-.632-.277 0-.54.056-.792.168-.25.112-.477.272-.68.48-.203.208-.37.464-.504.768-.133.304-.22.653-.264 1.048h4.16z" fill="#FFF"/>
      <path d="M344.12 67.096h2.208v-5.872h-1.904v-1.456c.555-.107 1.024-.235 1.408-.384.384-.15.757-.33 1.12-.544h1.728v8.256h1.904V69h-6.464v-1.904zm12.032-2.32v-1.648c0-.33.01-.712.032-1.144.02-.432.043-.808.064-1.128h-.064c-.128.277-.26.56-.4.848-.14.288-.283.576-.432.864l-1.344 2.208h2.144zm3.36 1.792h-1.168V69h-2.192v-2.432h-4.4v-1.616l3.712-6.112h2.88v5.936h1.168v1.792zM390.264 67.912h2.336v-7.52h-1.856v-.848c.47-.085.877-.19 1.224-.312.347-.123.66-.27.936-.44h1.008v9.12h2.112V69h-5.76v-1.088zm10.672 1.28c-1.035 0-1.84-.46-2.416-1.376-.576-.917-.864-2.235-.864-3.952s.288-3.024.864-3.92c.576-.896 1.38-1.344 2.416-1.344 1.024 0 1.824.448 2.4 1.344.576.896.864 2.203.864 3.92s-.288 3.035-.864 3.952c-.576.917-1.376 1.376-2.4 1.376zm0-1.056c.3 0 .568-.083.808-.248.24-.165.448-.42.624-.768.176-.347.312-.79.408-1.328.096-.54.144-1.18.144-1.928 0-.747-.048-1.387-.144-1.92-.096-.533-.232-.968-.408-1.304-.176-.336-.384-.584-.624-.744-.24-.16-.51-.24-.808-.24-.3 0-.57.08-.816.24-.245.16-.456.408-.632.744s-.312.77-.408 1.304c-.096.533-.144 1.173-.144 1.92 0 1.493.184 2.58.552 3.256.368.677.85 1.016 1.448 1.016z" fill="#710ECC"/>
      <path d="M484.472 31.712c.373.395.813.712 1.32.952.507.24 1.032.36 1.576.36.693 0 1.232-.157 1.616-.472.384-.315.576-.728.576-1.24 0-.267-.045-.493-.136-.68-.09-.187-.213-.347-.368-.48s-.34-.253-.552-.36c-.213-.107-.443-.22-.688-.336l-1.504-.656c-.245-.107-.496-.235-.752-.384-.256-.15-.485-.33-.688-.544-.203-.213-.368-.467-.496-.76s-.192-.632-.192-1.016c0-.395.083-.763.248-1.104.165-.34.395-.637.688-.888.293-.25.64-.445 1.04-.584.4-.14.84-.208 1.32-.208.63 0 1.21.12 1.744.36.533.24.987.552 1.36.936l-.72.864c-.32-.31-.675-.552-1.064-.728-.39-.176-.83-.264-1.32-.264-.587 0-1.06.136-1.416.408-.357.272-.536.648-.536 1.128 0 .256.05.472.152.648.1.176.237.33.408.464.17.133.357.25.56.352.203.1.41.195.624.28l1.488.64c.3.128.58.275.848.44.267.165.496.357.688.576.192.22.344.475.456.768.112.293.168.632.168 1.016 0 .416-.083.805-.248 1.168-.165.363-.403.68-.712.952-.31.272-.683.485-1.12.64-.437.155-.933.232-1.488.232-.736 0-1.42-.14-2.048-.416-.63-.277-1.173-.656-1.632-1.136l.8-.928zm8 .272c0-.853.38-1.507 1.144-1.96.763-.453 1.976-.77 3.64-.952 0-.245-.024-.485-.072-.72-.048-.235-.133-.443-.256-.624-.123-.18-.285-.328-.488-.44-.203-.112-.464-.168-.784-.168-.46 0-.883.085-1.272.256-.39.17-.74.363-1.048.576l-.528-.912c.363-.235.805-.46 1.328-.68.523-.22 1.1-.328 1.728-.328.95 0 1.637.29 2.064.872.427.58.64 1.357.64 2.328V34h-1.088l-.112-.928h-.032c-.373.31-.776.573-1.208.792-.432.22-.888.328-1.368.328-.66 0-1.208-.192-1.64-.576-.432-.384-.648-.928-.648-1.632zm1.296-.096c0 .448.13.768.392.96.26.192.584.288.968.288.373 0 .728-.088 1.064-.264.336-.176.69-.435 1.064-.776v-2.16c-.65.085-1.2.187-1.648.304-.448.117-.808.256-1.08.416-.272.16-.467.344-.584.552-.117.208-.176.435-.176.68zm10.784-8.208c-.288-.128-.58-.192-.88-.192-.725 0-1.088.5-1.088 1.504v1.232h1.648v1.072h-1.648V34h-1.312v-6.704h-1.056v-.992l1.056-.08v-1.232c0-.8.184-1.43.552-1.888.368-.46.94-.688 1.72-.688.245 0 .477.024.696.072.22.048.42.11.6.184l-.288 1.008zm.464 8.304c0-.853.38-1.507 1.144-1.96.763-.453 1.976-.77 3.64-.952 0-.245-.024-.485-.072-.72-.048-.235-.133-.443-.256-.624-.123-.18-.285-.328-.488-.44-.203-.112-.464-.168-.784-.168-.46 0-.883.085-1.272.256-.39.17-.74.363-1.048.576l-.528-.912c.363-.235.805-.46 1.328-.68.523-.22 1.1-.328 1.728-.328.95 0 1.637.29 2.064.872.427.58.64 1.357.64 2.328V34h-1.088l-.112-.928h-.032c-.373.31-.776.573-1.208.792-.432.22-.888.328-1.368.328-.66 0-1.208-.192-1.64-.576-.432-.384-.648-.928-.648-1.632zm1.296-.096c0 .448.13.768.392.96.26.192.584.288.968.288.373 0 .728-.088 1.064-.264.336-.176.69-.435 1.064-.776v-2.16c-.65.085-1.2.187-1.648.304-.448.117-.808.256-1.08.416-.272.16-.467.344-.584.552-.117.208-.176.435-.176.68zm7.28-5.664h1.088l.112 1.408h.048c.267-.49.59-.88.968-1.168.38-.288.792-.432 1.24-.432.31 0 .587.053.832.16l-.256 1.152c-.128-.043-.245-.075-.352-.096-.107-.02-.24-.032-.4-.032-.33 0-.675.133-1.032.4s-.67.73-.936 1.392V34h-1.312v-7.776zm6.224-1.6c-.256 0-.472-.08-.648-.24-.176-.16-.264-.363-.264-.608 0-.256.088-.46.264-.616.176-.155.392-.232.648-.232s.472.077.648.232c.176.155.264.36.264.616 0 .245-.088.448-.264.608-.176.16-.392.24-.648.24zm-.672 1.6h1.312V34h-1.312v-7.776z" fill="#FFF"/>
      <path d="M454.12 67.096h2.208v-5.872h-1.904v-1.456c.555-.107 1.024-.235 1.408-.384.384-.15.757-.33 1.12-.544h1.728v8.256h1.904V69h-6.464v-1.904zm11.552 2.096c-.544 0-1.04-.115-1.488-.344-.448-.23-.83-.568-1.144-1.016-.315-.448-.56-1.003-.736-1.664-.176-.66-.264-1.424-.264-2.288 0-.864.088-1.62.264-2.272.176-.65.42-1.197.736-1.64.315-.443.696-.773 1.144-.992.448-.22.944-.328 1.488-.328s1.04.11 1.488.328c.448.22.83.55 1.144.992.315.443.56.99.736 1.64.176.65.264 1.408.264 2.272 0 .864-.088 1.627-.264 2.288-.176.66-.42 1.216-.736 1.664-.315.448-.696.787-1.144 1.016-.448.23-.944.344-1.488.344zm0-1.824c.203 0 .39-.05.56-.152.17-.1.32-.285.448-.552.128-.267.227-.624.296-1.072.07-.448.104-1.02.104-1.712 0-.693-.035-1.26-.104-1.704-.07-.443-.168-.79-.296-1.04-.128-.25-.277-.424-.448-.52-.17-.096-.357-.144-.56-.144-.192 0-.373.048-.544.144-.17.096-.32.27-.448.52s-.23.597-.304 1.04c-.075.443-.112 1.01-.112 1.704 0 .693.037 1.264.112 1.712.075.448.176.805.304 1.072s.277.45.448.552c.17.1.352.152.544.152zM500.264 67.912h2.336v-7.52h-1.856v-.848c.47-.085.877-.19 1.224-.312.347-.123.66-.27.936-.44h1.008v9.12h2.112V69h-5.76v-1.088zm10.672 1.28c-1.035 0-1.84-.46-2.416-1.376-.576-.917-.864-2.235-.864-3.952s.288-3.024.864-3.92c.576-.896 1.38-1.344 2.416-1.344 1.024 0 1.824.448 2.4 1.344.576.896.864 2.203.864 3.92s-.288 3.035-.864 3.952c-.576.917-1.376 1.376-2.4 1.376zm0-1.056c.3 0 .568-.083.808-.248.24-.165.448-.42.624-.768.176-.347.312-.79.408-1.328.096-.54.144-1.18.144-1.928 0-.747-.048-1.387-.144-1.92-.096-.533-.232-.968-.408-1.304-.176-.336-.384-.584-.624-.744-.24-.16-.51-.24-.808-.24-.3 0-.57.08-.816.24-.245.16-.456.408-.632.744s-.312.77-.408 1.304c-.096.533-.144 1.173-.144 1.92 0 1.493.184 2.58.552 3.256.368.677.85 1.016 1.448 1.016zm5.008.064c0-.31.093-.557.28-.744.187-.187.413-.28.68-.28.256 0 .477.093.664.28.187.187.28.435.28.744 0 .288-.093.525-.28.712-.187.187-.408.28-.664.28-.267 0-.493-.093-.68-.28-.187-.187-.28-.424-.28-.712zm4.208-.288h2.336v-7.52h-1.856v-.848c.47-.085.877-.19 1.224-.312.347-.123.66-.27.936-.44h1.008v9.12h2.112V69h-5.76v-1.088zm7.952 0h2.336v-7.52h-1.856v-.848c.47-.085.877-.19 1.224-.312.347-.123.66-.27.936-.44h1.008v9.12h2.112V69h-5.76v-1.088zM173.264 67.912h2.336v-7.52h-1.856v-.848c.47-.085.877-.19 1.224-.312.347-.123.66-.27.936-.44h1.008v9.12h2.112V69h-5.76v-1.088zm10.672 1.28c-1.035 0-1.84-.46-2.416-1.376-.576-.917-.864-2.235-.864-3.952s.288-3.024.864-3.92c.576-.896 1.38-1.344 2.416-1.344 1.024 0 1.824.448 2.4 1.344.576.896.864 2.203.864 3.92s-.288 3.035-.864 3.952c-.576.917-1.376 1.376-2.4 1.376zm0-1.056c.3 0 .568-.083.808-.248.24-.165.448-.42.624-.768.176-.347.312-.79.408-1.328.096-.54.144-1.18.144-1.928 0-.747-.048-1.387-.144-1.92-.096-.533-.232-.968-.408-1.304-.176-.336-.384-.584-.624-.744-.24-.16-.51-.24-.808-.24-.3 0-.57.08-.816.24-.245.16-.456.408-.632.744s-.312.77-.408 1.304c-.096.533-.144 1.173-.144 1.92 0 1.493.184 2.58.552 3.256.368.677.85 1.016 1.448 1.016zm5.008.064c0-.31.093-.557.28-.744.187-.187.413-.28.68-.28.256 0 .477.093.664.28.187.187.28.435.28.744 0 .288-.093.525-.28.712-.187.187-.408.28-.664.28-.267 0-.493-.093-.68-.28-.187-.187-.28-.424-.28-.712zm4.208-.288h2.336v-7.52h-1.856v-.848c.47-.085.877-.19 1.224-.312.347-.123.66-.27.936-.44h1.008v9.12h2.112V69h-5.76v-1.088zm7.952 0h2.336v-7.52h-1.856v-.848c.47-.085.877-.19 1.224-.312.347-.123.66-.27.936-.44h1.008v9.12h2.112V69h-5.76v-1.088z" fill="#710ECC"/>
    </g>
  </g>
</svg>
