<!--
  * @license MIT
  * Copyright (c) 2017 Bernhard Grünewaldt - codeclou.io
  * https://github.com/cloukit/legal
-->
<svg width="512" height="512" viewBox="0 0 512 512" xmlns="http://www.w3.org/2000/svg">
  <title>
    smiley-chan
  </title>
  <path d="M256 474c-120.398 0-218-97.602-218-218S135.602 38 256 38s218 97.602 218 218-97.602 218-218 218zm-83-242c20.435 0 37-16.565 37-37s-16.565-37-37-37-37 16.565-37 37 16.565 37 37 37zm163 0c20.435 0 37-16.565 37-37s-16.565-37-37-37-37 16.565-37 37 16.565 37 37 37zm-197 73v41c39 34.91 78 52.367 117 52.367S334 380.91 373 346v-41c-39.24 24.443-78.24 36.664-117 36.664-38.76 0-77.76-12.22-117-36.664z" fill="#710ECC" fill-rule="evenodd"/>
</svg>
