<svg width="304" height="167" viewBox="0 0 304 167" xmlns="http://www.w3.org/2000/svg">
  <title>
    status-experimental-off
  </title>
  <g fill="none" fill-rule="evenodd">
    <path stroke="#979797" d="M.5.5h303v166H.5z"/>
    <g fill-rule="nonzero" fill="#767676">
      <path d="M173.496 55.678V30.084c0-2.252-1.856-4.084-4.138-4.084h-33.715c-2.282 0-4.14 1.832-4.14 4.084v25.594c-2.68 1.12-4.49 3.763-4.49 6.684 0 2.923 1.81 5.562 4.49 6.684v3.143c0 5.96 4.917 10.81 10.96 10.81h20.076c6.04 0 10.956-4.85 10.956-10.81v-3.145c2.682-1.122 4.492-3.76 4.492-6.683 0-2.92-1.81-5.562-4.492-6.684zM131.504 66.64c-1.424-.933-2.336-2.534-2.336-4.278 0-1.743.913-3.345 2.336-4.28v8.558zm39.836 5.55c0 4.787-3.948 8.682-8.8 8.682H142.46c-4.853 0-8.8-3.895-8.8-8.683V38.53h3.153v1.17c0 .588.483 1.064 1.08 1.064.594 0 1.077-.476 1.077-1.064v-1.17h5.147v1.17c0 .588.482 1.064 1.077 1.064s1.078-.476 1.078-1.064v-1.17h5.147v1.17c0 .588.483 1.064 1.078 1.064.596 0 1.078-.476 1.078-1.064v-1.17h5.147v1.17c0 .588.483 1.064 1.078 1.064.596 0 1.08-.476 1.08-1.064v-1.17h5.146v1.17c0 .588.48 1.064 1.077 1.064.595 0 1.078-.476 1.078-1.064v-1.17h3.154V72.19zm0-35.786h-3.154v-1.17c0-.588-.483-1.064-1.08-1.064-.594 0-1.077.477-1.077 1.064v1.17h-5.148v-1.17c0-.588-.482-1.064-1.078-1.064-.596 0-1.078.477-1.078 1.064v1.17h-5.147v-1.17c0-.588-.484-1.064-1.08-1.064-.595 0-1.077.477-1.077 1.064v1.17h-5.147v-1.17c0-.588-.483-1.064-1.078-1.064-.596 0-1.08.477-1.08 1.064v1.17h-5.146v-1.17c0-.588-.482-1.064-1.078-1.064-.595 0-1.078.477-1.078 1.064v1.17h-3.155v-6.32c0-1.08.89-1.956 1.983-1.956h33.715c1.093 0 1.982.877 1.982 1.956v6.32zm2.156 30.236v-8.556c1.424.934 2.336 2.535 2.336 4.278 0 1.744-.912 3.344-2.336 4.278z"/>
      <path d="M169.326 57.663h-33.65c-.596 0-1.08.476-1.08 1.063 0 .588.484 1.064 1.08 1.064h.784c-.14.704.018 1.44.463 2.033.994 1.33 2.587 2.124 4.26 2.124.685 0 1.34-.13 1.94-.365-.703 1.252-1.817 2.467-3.58 3.248-.544.24-.787.87-.544 1.406.18.395.572.63.984.63.147 0 .297-.03.44-.095 4.912-2.17 5.854-6.83 6.02-8.98h2.606v8.436c0 1.116.92 2.024 2.05 2.024h2.8c1.13 0 2.05-.908 2.05-2.024V59.79h2.606c.167 2.15 1.11 6.81 6.02 8.98.144.065.294.095.44.095.413 0 .806-.234.986-.63.243-.535 0-1.165-.543-1.405-1.78-.787-2.897-2.004-3.6-3.255.606.24 1.267.372 1.96.372 1.672 0 3.264-.794 4.258-2.123.445-.595.604-1.33.463-2.034h.786c.596 0 1.078-.476 1.078-1.064 0-.587-.483-1.063-1.078-1.063zm-28.143 4.156c-1.006 0-1.926-.46-2.525-1.26-.148-.198-.086-.39-.037-.488.045-.084.176-.28.46-.28h5.046c-.44 1.18-1.594 2.027-2.943 2.027zm12.61 6.302h-2.586V59.79h2.587v8.332zm12.55-7.562c-.6.8-1.52 1.26-2.525 1.26-1.35 0-2.503-.847-2.944-2.03h5.047c.285 0 .416.197.46.282.05.098.11.29-.037.488zM164.366 73.057c-7.763-2.218-15.97-2.218-23.73 0-.573.164-.903.754-.737 1.318.165.565.762.89 1.335.726 7.37-2.105 15.16-2.105 22.53 0 .1.03.202.044.302.044.467 0 .898-.303 1.035-.77.165-.563-.164-1.153-.736-1.317z"/>
      <path d="M158.683 75.504c-4.102-.6-8.262-.6-12.365 0-.59.086-.995.627-.908 1.21.088.58.635.98 1.225.895 3.892-.57 7.84-.57 11.732 0 .053.007.107.01.16.01.525 0 .985-.38 1.064-.907.088-.582-.318-1.123-.907-1.21zM146.354 52.31l-2.157-4.254c-.182-.36-.556-.588-.964-.588h-2.835l-2.49-4.158c-.303-.506-.965-.674-1.477-.375-.512.3-.682.95-.38 1.457l2.805 4.68c.194.325.547.524.928.524h2.784l1.858 3.667c.19.373.57.588.965.588.162 0 .327-.035.482-.11.532-.264.748-.903.482-1.43z"/>
    </g>
    <g fill="#767676">
      <path d="M56.104 108.912h11.552v1.28h-10.08v7.968h8.448v1.28h-8.448v9.28h10.4V130H56.104v-21.088zm20.256 10.176l-5.888-10.176h1.6l3.456 6.208c.3.49.57.95.816 1.376.245.427.55.928.912 1.504h.128c.3-.576.56-1.077.784-1.504.224-.427.485-.885.784-1.376l3.456-6.208h1.504l-5.888 10.24L84.36 130h-1.6l-3.68-6.464c-.3-.533-.603-1.067-.912-1.6-.31-.533-.656-1.12-1.04-1.76H77c-.34.64-.65 1.227-.928 1.76-.277.533-.565 1.067-.864 1.6L71.528 130h-1.504l6.336-10.912zm11.648-10.176h5.76c1.173 0 2.224.1 3.152.304.928.203 1.717.54 2.368 1.008.65.47 1.147 1.077 1.488 1.824.34.747.512 1.664.512 2.752 0 2.07-.66 3.61-1.984 4.624-1.323 1.013-3.168 1.52-5.536 1.52H89.48V130h-1.472v-21.088zm5.408 10.784c2.155 0 3.755-.384 4.8-1.152 1.045-.768 1.568-2.016 1.568-3.744 0-.896-.133-1.637-.4-2.224-.267-.587-.66-1.06-1.184-1.424-.523-.363-1.184-.62-1.984-.768-.8-.15-1.733-.224-2.8-.224H89.48v9.536h3.936zm12.48-10.784h11.552v1.28h-10.08v7.968h8.448v1.28h-8.448v9.28h10.4V130h-11.872v-21.088zm22.144 10.176c1.877 0 3.312-.38 4.304-1.136.992-.757 1.488-1.915 1.488-3.472 0-1.58-.5-2.693-1.504-3.344-1.003-.65-2.432-.976-4.288-.976h-4.192v8.928h4.192zM134.056 130l-5.728-9.696h-4.48V130h-1.472v-21.088h6.048c1.045 0 1.995.1 2.848.304.853.203 1.58.528 2.176.976.597.448 1.06 1.024 1.392 1.728.33.704.496 1.557.496 2.56 0 1.685-.485 3.008-1.456 3.968-.97.96-2.288 1.547-3.952 1.76l5.824 9.792h-1.696zm6.24-21.088h1.472V130h-1.472v-21.088zm7.68 0h2.08l4.416 12.384 1.664 4.672h.128l1.6-4.672 4.416-12.384h2.08V130h-1.44v-13.856c0-.875.02-1.82.064-2.832.043-1.013.085-1.968.128-2.864h-.128l-1.664 4.64-4.512 12.608h-1.312l-4.544-12.608-1.664-4.64h-.128c.043.896.085 1.85.128 2.864.043 1.013.064 1.957.064 2.832V130h-1.376v-21.088zm22.592 0h11.552v1.28h-10.08v7.968h8.448v1.28h-8.448v9.28h10.4V130h-11.872v-21.088zm16.48 0h1.536l8.896 14.88 2.368 4.192h.128l-.128-3.072c-.043-1.024-.064-2.048-.064-3.072v-12.928h1.408V130h-1.536l-8.896-14.88-2.368-4.192h-.128c.043 1.024.085 2.02.128 2.992.043.97.064 1.968.064 2.992V130h-1.408v-21.088zm24.896 1.28h-6.72v-1.28h14.912v1.28h-6.72V130h-1.472v-19.808zm21.28 11.328l-1.344-3.936c-.427-1.26-.832-2.464-1.216-3.616-.384-1.152-.757-2.38-1.12-3.68h-.128c-.363 1.3-.736 2.528-1.12 3.68-.384 1.152-.79 2.357-1.216 3.616l-1.344 3.936h7.488zm.416 1.248h-8.352L222.792 130h-1.472l7.424-21.088h1.472L237.64 130h-1.536l-2.464-7.232zm7.36-13.856h1.472v19.808h9.728V130H241v-21.088z"/>
    </g>
  </g>
</svg>
