<!--
  * @license MIT
  * Copyright (c) 2017 Bernhard Grünewaldt - codeclou.io
  * https://github.com/cloukit/legal
-->
<svg width="304" height="167" viewBox="0 0 304 167" xmlns="http://www.w3.org/2000/svg">
  <title>
    status-experimental-on
  </title>
  <g fill="none" fill-rule="evenodd">
    <path stroke="#979797" d="M.5.5h303v166H.5z"/>
    <path d="M55.104 108.912h11.552v1.28h-10.08v7.968h8.448v1.28h-8.448v9.28h10.4V130H55.104v-21.088zm20.256 10.176l-5.888-10.176h1.6l3.456 6.208c.3.49.57.95.816 1.376.245.427.55.928.912 1.504h.128c.3-.576.56-1.077.784-1.504.224-.427.485-.885.784-1.376l3.456-6.208h1.504l-5.888 10.24L83.36 130h-1.6l-3.68-6.464c-.3-.533-.603-1.067-.912-1.6-.31-.533-.656-1.12-1.04-1.76H76c-.34.64-.65 1.227-.928 1.76-.277.533-.565 1.067-.864 1.6L70.528 130h-1.504l6.336-10.912zm11.648-10.176h5.76c1.173 0 2.224.1 3.152.304.928.203 1.717.54 2.368 1.008.65.47 1.147 1.077 1.488 1.824.34.747.512 1.664.512 2.752 0 2.07-.66 3.61-1.984 4.624-1.323 1.013-3.168 1.52-5.536 1.52H88.48V130h-1.472v-21.088zm5.408 10.784c2.155 0 3.755-.384 4.8-1.152 1.045-.768 1.568-2.016 1.568-3.744 0-.896-.133-1.637-.4-2.224-.267-.587-.66-1.06-1.184-1.424-.523-.363-1.184-.62-1.984-.768-.8-.15-1.733-.224-2.8-.224H88.48v9.536h3.936zm12.48-10.784h11.552v1.28h-10.08v7.968h8.448v1.28h-8.448v9.28h10.4V130h-11.872v-21.088zm22.144 10.176c1.877 0 3.312-.38 4.304-1.136.992-.757 1.488-1.915 1.488-3.472 0-1.58-.5-2.693-1.504-3.344-1.003-.65-2.432-.976-4.288-.976h-4.192v8.928h4.192zM133.056 130l-5.728-9.696h-4.48V130h-1.472v-21.088h6.048c1.045 0 1.995.1 2.848.304.853.203 1.58.528 2.176.976.597.448 1.06 1.024 1.392 1.728.33.704.496 1.557.496 2.56 0 1.685-.485 3.008-1.456 3.968-.97.96-2.288 1.547-3.952 1.76l5.824 9.792h-1.696zm6.24-21.088h1.472V130h-1.472v-21.088zm7.68 0h2.08l4.416 12.384 1.664 4.672h.128l1.6-4.672 4.416-12.384h2.08V130h-1.44v-13.856c0-.875.02-1.82.064-2.832.043-1.013.085-1.968.128-2.864h-.128l-1.664 4.64-4.512 12.608h-1.312l-4.544-12.608-1.664-4.64h-.128c.043.896.085 1.85.128 2.864.043 1.013.064 1.957.064 2.832V130h-1.376v-21.088zm22.592 0h11.552v1.28h-10.08v7.968h8.448v1.28h-8.448v9.28h10.4V130h-11.872v-21.088zm16.48 0h1.536l8.896 14.88 2.368 4.192h.128l-.128-3.072c-.043-1.024-.064-2.048-.064-3.072v-12.928h1.408V130h-1.536l-8.896-14.88-2.368-4.192h-.128c.043 1.024.085 2.02.128 2.992.043.97.064 1.968.064 2.992V130h-1.408v-21.088zm24.896 1.28h-6.72v-1.28h14.912v1.28h-6.72V130h-1.472v-19.808zm21.28 11.328l-1.344-3.936c-.427-1.26-.832-2.464-1.216-3.616-.384-1.152-.757-2.38-1.12-3.68h-.128c-.363 1.3-.736 2.528-1.12 3.68-.384 1.152-.79 2.357-1.216 3.616l-1.344 3.936h7.488zm.416 1.248h-8.352L221.792 130h-1.472l7.424-21.088h1.472L236.64 130h-1.536l-2.464-7.232zm7.36-13.856h1.472v19.808h9.728V130H240v-21.088z" fill="#000"/>
    <g transform="translate(128 21)">
      <path d="M8.445 16.42c.175.446.548 1.07 1.175 1.975.29.418 1.7 2.372 2.087 2.926 2.33 3.34 3.593 5.894 3.847 8.58.094.988.03 1.95-.202 2.883-.044 4.736-1.685 8.01-5.593 12.877-.28.35-1.25 1.543-1.296 1.6C3.252 53.71 1.438 58.045 2.47 65.5h44.116c1.145-7.01-.742-11.243-6.258-17.798.09.107-1.07-1.267-1.384-1.643-4.22-5.057-5.965-8.462-5.84-13.29-.183-.687-.27-1.39-.264-2.108.025-3.093 1.59-6.01 4.586-9.72.54-.67 2.244-2.693 2.364-2.84.632-.766 1.047-1.317 1.302-1.736-.165-.013-.356-.02-.574-.02H9.46c-.426 0-.766.027-1.015.075z" stroke="#000" stroke-width="3"/>
      <path fill="#000" d="M11.635 20h25.45L35 23H13"/>
      <circle fill="#000" cx="7" cy="5" r="5"/>
      <circle fill="#000" cx="14.5" cy="9.5" r="2.5"/>
      <circle fill="#000" cx="21.5" cy="6.5" r="4.5"/>
      <circle fill="#000" cx="28.5" cy="11.5" r="3.5"/>
      <path d="M41.505 49.278c4.743 10.508 3.347.044 6.33 17.722H1.186c3.286-17.468 5.368-10.41 4.07-15.063 15.567-14.402 24.79 9.59 36.25-2.66z" fill="#000"/>
    </g>
  </g>
</svg>
