<svg width="304" height="167" viewBox="0 0 304 167" xmlns="http://www.w3.org/2000/svg">
  <title>
    status-stable-off
  </title>
  <g fill="none" fill-rule="evenodd">
    <path stroke="#979797" d="M.5.5h303v166H.5z"/>
    <g fill="#767676">
      <path d="M104.432 127.192c.768.875 1.685 1.568 2.752 2.08 1.067.512 2.208.768 3.424.768 1.62 0 2.9-.39 3.84-1.168.94-.78 1.408-1.797 1.408-3.056 0-.66-.1-1.216-.304-1.664-.203-.448-.475-.837-.816-1.168-.34-.33-.74-.62-1.2-.864-.46-.245-.944-.485-1.456-.72l-3.2-1.44c-.47-.192-.955-.427-1.456-.704-.5-.277-.96-.624-1.376-1.04-.416-.416-.763-.907-1.04-1.472s-.416-1.243-.416-2.032c0-.768.155-1.467.464-2.096.31-.63.736-1.173 1.28-1.632.544-.46 1.195-.816 1.952-1.072.757-.256 1.573-.384 2.448-.384 1.28 0 2.416.25 3.408.752.992.5 1.808 1.093 2.448 1.776l-.832.992c-.62-.66-1.344-1.19-2.176-1.584-.832-.395-1.78-.592-2.848-.592-1.408 0-2.54.34-3.392 1.024-.853.683-1.28 1.6-1.28 2.752 0 .62.117 1.14.352 1.568.235.427.533.795.896 1.104.363.31.757.576 1.184.8.427.224.832.42 1.216.592l3.2 1.408c.597.256 1.163.544 1.696.864.533.32 1.003.693 1.408 1.12.405.427.73.933.976 1.52.245.587.368 1.285.368 2.096 0 .81-.16 1.563-.48 2.256-.32.693-.773 1.29-1.36 1.792-.587.5-1.296.896-2.128 1.184-.832.288-1.76.432-2.784.432-1.536 0-2.9-.293-4.096-.88-1.195-.587-2.208-1.35-3.04-2.288l.96-1.024zm21.888-16h-6.72v-1.28h14.912v1.28h-6.72V131h-1.472v-19.808zm21.28 11.328l-1.344-3.936c-.427-1.26-.832-2.464-1.216-3.616-.384-1.152-.757-2.38-1.12-3.68h-.128c-.363 1.3-.736 2.528-1.12 3.68-.384 1.152-.79 2.357-1.216 3.616l-1.344 3.936h7.488zm.416 1.248h-8.352L137.168 131h-1.472l7.424-21.088h1.472L152.016 131h-1.536l-2.464-7.232zm7.36-13.856h5.696c2.133 0 3.83.41 5.088 1.232 1.26.82 1.888 2.117 1.888 3.888 0 1.11-.315 2.075-.944 2.896-.63.82-1.563 1.392-2.8 1.712v.128c1.557.235 2.784.773 3.68 1.616.896.843 1.344 2 1.344 3.472 0 1.024-.187 1.92-.56 2.688-.373.768-.9 1.408-1.584 1.92-.683.512-1.504.896-2.464 1.152-.96.256-2.037.384-3.232.384h-6.112v-21.088zm5.12 9.28c2.176 0 3.733-.347 4.672-1.04.94-.693 1.408-1.744 1.408-3.152 0-1.365-.5-2.352-1.504-2.96-1.003-.608-2.475-.912-4.416-.912h-3.808v8.064h3.648zm.608 10.592c2.112 0 3.77-.395 4.976-1.184 1.205-.79 1.808-2.037 1.808-3.744 0-1.515-.587-2.64-1.76-3.376-1.173-.736-2.848-1.104-5.024-1.104h-4.256v9.408h4.256zm12.768-19.872h1.472v19.808h9.728V131h-11.2v-21.088zm14.944 0h11.552v1.28h-10.08v7.968h8.448v1.28h-8.448v9.28h10.4V131h-11.872v-21.088z"/>
    </g>
    <g fill-rule="nonzero" fill="#767676">
      <path d="M174.205 21.428c-.464-.526-1.264-.573-1.786-.11l-6.303 5.608c-1.028-.227-2.256.08-3.153.92-.617.577-1.032 1.317-1.17 2.085-.052.286-.05.563-.023.833l-4.474 3.95c-.525.46-.577 1.264-.116 1.792.25.286.6.432.95.432.297 0 .595-.104.836-.317l4.267-3.764c.35.16.737.248 1.15.248.872 0 1.78-.38 2.49-1.04.616-.578 1.03-1.318 1.168-2.086.084-.457.058-.905-.058-1.317l6.114-5.44c.523-.464.572-1.267.11-1.792zm-9.056 8.775c-.287.266-.585.36-.77.36l-.098-.002c-.043-.09.017-.49.404-.853.28-.26.57-.357.847-.357h.016c.044.09-.012.49-.4.853zM153.765 47.718c.312 0 .626-.116.87-.348l2.87-2.734c.505-.483.526-1.287.045-1.797-.48-.51-1.28-.53-1.788-.048l-2.868 2.734c-.506.483-.527 1.287-.046 1.797.247.263.583.395.917.395z"/>
      <path d="M170.735 30.967c-.548-.434-1.342-.34-1.775.212-.433.55-.34 1.348.21 1.783.44.348.966.873.966 1.394 0 2.083-7.263 5.11-18.644 5.11-11.382 0-18.645-3.027-18.645-5.11s7.263-5.108 18.645-5.108c2.785 0 5.47.183 7.987.545.7.103 1.33-.383 1.43-1.078.1-.695-.38-1.34-1.073-1.438-2.632-.38-5.44-.573-8.345-.573-10.522 0-21.175 2.628-21.175 7.65 0 .87.34 1.665.924 2.39.067.174.16.338.303.474l16.937 16.15c2.87 11.22-.038 24.56-.067 24.695-.153.685.276 1.365.957 1.517.093.022.188.03.28.03.578 0 1.1-.4 1.232-.992.033-.148.257-1.175.517-2.814.26 1.638.484 2.666.517 2.814.13.59.655.993 1.233.993.09 0 .185-.01.28-.03.68-.154 1.11-.834.956-1.52-.03-.133-2.892-13.22-.143-24.39.102-.108.203-.216.294-.337l16.903-16.112c.143-.136.237-.3.302-.474.585-.726.924-1.52.924-2.392 0-1.236-.65-2.377-1.93-3.39zm-6.483 9.604l-11.67 11.124c-.206.106-.372.27-.496.474l-.04.038c-.346.174-.74.185-1.09.02L138.73 40.573c3.71.95 8.246 1.438 12.762 1.438 4.514-.002 9.05-.49 12.76-1.44z"/>
      <path d="M155.926 73.883c-.702-.086-1.324.41-1.408 1.108-.084.698.408 1.332 1.102 1.417 4.803.59 6.528 1.93 6.583 2.322-.104.766-3.873 2.567-10.713 2.567-6.838 0-10.608-1.8-10.712-2.565.054-.394 1.772-1.73 6.556-2.323.693-.087 1.186-.72 1.1-1.418-.084-.696-.714-1.188-1.41-1.106-2.637.326-8.774 1.452-8.774 4.843 0 3.508 6.864 5.107 13.242 5.107 6.377 0 13.242-1.6 13.242-5.108-.002-3.398-6.16-4.522-8.808-4.847z"/>
    </g>
  </g>
</svg>
