<!--
  * @license MIT
  * Copyright (c) 2017 Bernhard Grünewaldt - codeclou.io
  * https://github.com/cloukit/legal
-->
<svg width="304" height="167" viewBox="0 0 304 167" xmlns="http://www.w3.org/2000/svg">
  <title>
    status-stable-off
  </title>
  <g fill="none" fill-rule="evenodd">
    <path stroke="#979797" d="M.5.5h303v166H.5z"/>
    <path d="M104.432 127.192c.768.875 1.685 1.568 2.752 2.08 1.067.512 2.208.768 3.424.768 1.62 0 2.9-.39 3.84-1.168.94-.78 1.408-1.797 1.408-3.056 0-.66-.1-1.216-.304-1.664-.203-.448-.475-.837-.816-1.168-.34-.33-.74-.62-1.2-.864-.46-.245-.944-.485-1.456-.72l-3.2-1.44c-.47-.192-.955-.427-1.456-.704-.5-.277-.96-.624-1.376-1.04-.416-.416-.763-.907-1.04-1.472s-.416-1.243-.416-2.032c0-.768.155-1.467.464-2.096.31-.63.736-1.173 1.28-1.632.544-.46 1.195-.816 1.952-1.072.757-.256 1.573-.384 2.448-.384 1.28 0 2.416.25 3.408.752.992.5 1.808 1.093 2.448 1.776l-.832.992c-.62-.66-1.344-1.19-2.176-1.584-.832-.395-1.78-.592-2.848-.592-1.408 0-2.54.34-3.392 1.024-.853.683-1.28 1.6-1.28 2.752 0 .62.117 1.14.352 1.568.235.427.533.795.896 1.104.363.31.757.576 1.184.8.427.224.832.42 1.216.592l3.2 1.408c.597.256 1.163.544 1.696.864.533.32 1.003.693 1.408 1.12.405.427.73.933.976 1.52.245.587.368 1.285.368 2.096 0 .81-.16 1.563-.48 2.256-.32.693-.773 1.29-1.36 1.792-.587.5-1.296.896-2.128 1.184-.832.288-1.76.432-2.784.432-1.536 0-2.9-.293-4.096-.88-1.195-.587-2.208-1.35-3.04-2.288l.96-1.024zm21.888-16h-6.72v-1.28h14.912v1.28h-6.72V131h-1.472v-19.808zm21.28 11.328l-1.344-3.936c-.427-1.26-.832-2.464-1.216-3.616-.384-1.152-.757-2.38-1.12-3.68h-.128c-.363 1.3-.736 2.528-1.12 3.68-.384 1.152-.79 2.357-1.216 3.616l-1.344 3.936h7.488zm.416 1.248h-8.352L137.168 131h-1.472l7.424-21.088h1.472L152.016 131h-1.536l-2.464-7.232zm7.36-13.856h5.696c2.133 0 3.83.41 5.088 1.232 1.26.82 1.888 2.117 1.888 3.888 0 1.11-.315 2.075-.944 2.896-.63.82-1.563 1.392-2.8 1.712v.128c1.557.235 2.784.773 3.68 1.616.896.843 1.344 2 1.344 3.472 0 1.024-.187 1.92-.56 2.688-.373.768-.9 1.408-1.584 1.92-.683.512-1.504.896-2.464 1.152-.96.256-2.037.384-3.232.384h-6.112v-21.088zm5.12 9.28c2.176 0 3.733-.347 4.672-1.04.94-.693 1.408-1.744 1.408-3.152 0-1.365-.5-2.352-1.504-2.96-1.003-.608-2.475-.912-4.416-.912h-3.808v8.064h3.648zm.608 10.592c2.112 0 3.77-.395 4.976-1.184 1.205-.79 1.808-2.037 1.808-3.744 0-1.515-.587-2.64-1.76-3.376-1.173-.736-2.848-1.104-5.024-1.104h-4.256v9.408h4.256zm12.768-19.872h1.472v19.808h9.728V131h-11.2v-21.088zm14.944 0h11.552v1.28h-10.08v7.968h8.448v1.28h-8.448v9.28h10.4V131h-11.872v-21.088z" fill="#767676"/>
    <path d="M126.156 74.458h39.088v7.453h-39.088V74.46zm12.223-17.653C138.23 50.438 124.77 42.4 98 32.693V31h80.356v12.01c-15.94 3.083-23.782 7.68-23.526 13.795-.09 4.288 3.38 7.707 10.414 10.255v5.714h-39.088V67.06c8.06-2.728 12.133-6.146 12.223-10.255zm28.755 17.653h8.826v7.453h-8.825V74.46zm-51.697 0h8.827v7.453h-8.827V74.46zm64.937-43.4h25.846l-25.845 11.304V31.058z" fill="#8C8C8C"/>
  </g>
</svg>
